SplineFontDB: 3.0
FontName: Vazir-Bold
FullName: Vazir Bold
FamilyName: Vazir
Weight: Bold
Copyright: Copyright (c) 2003 by Bitstream, Inc. All Rights Reserved.\nDejaVu changes are in public domain\nChanges by Saber Rastikerdar are in public domain.\nNon-Arabic(Latin) glyphs and data in extended version are imported from Roboto font under the Apache License, Version 2.0.
Version: 17.1.1
ItalicAngle: 0
UnderlinePosition: -500
UnderlineWidth: 100
Ascent: 1638
Descent: 410
InvalidEm: 0
LayerCount: 2
Layer: 0 1 "Back" 1
Layer: 1 1 "Fore" 0
PreferredKerning: 4
XUID: [1021 502 1027637223 8571893]
UniqueID: 4013149
UseUniqueID: 1
FSType: 0
OS2Version: 1
OS2_WeightWidthSlopeOnly: 0
OS2_UseTypoMetrics: 1
CreationTime: 1431850356
ModificationTime: 1515612856
PfmFamily: 33
TTFWeight: 700
TTFWidth: 5
LineGap: 0
VLineGap: 0
Panose: 2 11 6 3 3 8 4 2 2 4
OS2TypoAscent: 2100
OS2TypoAOffset: 0
OS2TypoDescent: -1100
OS2TypoDOffset: 0
OS2TypoLinegap: 0
OS2WinAscent: 2100
OS2WinAOffset: 0
OS2WinDescent: 1100
OS2WinDOffset: 0
HheadAscent: 2100
HheadAOffset: 0
HheadDescent: -1100
HheadDOffset: 0
OS2SubXSize: 1331
OS2SubYSize: 1433
OS2SubXOff: 0
OS2SubYOff: 286
OS2SupXSize: 1331
OS2SupYSize: 1433
OS2SupXOff: 0
OS2SupYOff: 983
OS2StrikeYSize: 102
OS2StrikeYPos: 530
OS2CapHeight: 1638
OS2XHeight: 1082
OS2Vendor: 'PfEd'
OS2CodePages: 00000041.20080000
OS2UnicodeRanges: 80002003.80000000.00000008.00000000
Lookup: 1 9 0 "'fina' Terminal Forms in Arabic lookup 9" { "'fina' Terminal Forms in Arabic lookup 9 subtable"  } ['fina' ('arab' <'KUR ' 'SND ' 'URD ' 'dflt' > ) ]
Lookup: 1 9 0 "'medi' Medial Forms in Arabic lookup 11" { "'medi' Medial Forms in Arabic lookup 11 subtable"  } ['medi' ('arab' <'KUR ' 'SND ' 'URD ' 'dflt' > ) ]
Lookup: 1 9 0 "'init' Initial Forms in Arabic lookup 13" { "'init' Initial Forms in Arabic lookup 13 subtable"  } ['init' ('arab' <'KUR ' 'SND ' 'URD ' 'dflt' > ) ]

StartChar: exclam
Encoding: 33 33 1
GlifName: exclam
Width: 641
VWidth: 2804
GlyphClass: 2
Flags: W
LayerCount: 2
Fore
SplineSet
145.091796875 180.493164062 m 0,0,1
 145.091796875 252.936523438 145.091796875 252.936523438 196.463867188 304.307617188 c 128,-1,2
 247.834960938 355.6796875 247.834960938 355.6796875 320.278320312 355.6796875 c 128,-1,3
 392.72265625 355.6796875 392.72265625 355.6796875 444.09375 304.307617188 c 128,-1,4
 495.463867188 252.936523438 495.463867188 252.936523438 495.463867188 180.493164062 c 128,-1,5
 495.463867188 108.049804688 495.463867188 108.049804688 444.09375 56.6787109375 c 128,-1,6
 392.72265625 5.306640625 392.72265625 5.306640625 320.278320312 5.306640625 c 0,7,8
 299.705078125 5.306640625 299.705078125 5.306640625 280.225585938 9.7607421875 c 128,-1,9
 260.747070312 14.21484375 260.747070312 14.21484375 242.829101562 23.0751953125 c 128,-1,10
 224.911132812 31.935546875 224.911132812 31.935546875 209.326171875 44.919921875 c 0,11,12
 192.16796875 59.2138671875 192.16796875 59.2138671875 179.182617188 76.4482421875 c 128,-1,13
 166.197265625 93.6826171875 166.197265625 93.6826171875 158.041992188 113.330078125 c 0,14,15
 145.091796875 144.526367188 145.091796875 144.526367188 145.091796875 180.493164062 c 0,0,1
213.161132812 1407.07128906 m 5,16,-1
 430.612304688 1407.07128906 l 5,17,-1
 471.6171875 1407.07128906 l 5,18,-1
 470.599609375 1366.07910156 l 5,19,-1
 446.08203125 488.33203125 l 1,20,-1
 445.114257812 449.32421875 l 1,21,-1
 406.094726562 449.32421875 l 1,22,-1
 238.90234375 449.32421875 l 1,23,-1
 199.931640625 449.32421875 l 1,24,-1
 198.916015625 488.282226562 l 1,25,-1
 173.174804688 1366.02929688 l 5,26,-1
 172.10546875 1407.07128906 l 5,27,-1
 213.161132812 1407.07128906 l 5,16,-1
EndSplineSet
EndChar

StartChar: period
Encoding: 46 46 2
GlifName: period
Width: 641
VWidth: 2804
GlyphClass: 2
Flags: W
LayerCount: 2
Fore
SplineSet
145.091796875 180.493164062 m 0,0,1
 145.091796875 252.936523438 145.091796875 252.936523438 196.463867188 304.307617188 c 128,-1,2
 247.834960938 355.6796875 247.834960938 355.6796875 320.278320312 355.6796875 c 128,-1,3
 392.72265625 355.6796875 392.72265625 355.6796875 444.09375 304.307617188 c 128,-1,4
 495.463867188 252.936523438 495.463867188 252.936523438 495.463867188 180.493164062 c 128,-1,5
 495.463867188 108.049804688 495.463867188 108.049804688 444.09375 56.6787109375 c 128,-1,6
 392.72265625 5.306640625 392.72265625 5.306640625 320.278320312 5.306640625 c 0,7,8
 299.705078125 5.306640625 299.705078125 5.306640625 280.225585938 9.7607421875 c 128,-1,9
 260.747070312 14.21484375 260.747070312 14.21484375 242.829101562 23.0751953125 c 128,-1,10
 224.911132812 31.935546875 224.911132812 31.935546875 209.326171875 44.919921875 c 0,11,12
 192.16796875 59.2138671875 192.16796875 59.2138671875 179.182617188 76.4482421875 c 128,-1,13
 166.197265625 93.6826171875 166.197265625 93.6826171875 158.041992188 113.330078125 c 0,14,15
 145.091796875 144.526367188 145.091796875 144.526367188 145.091796875 180.493164062 c 0,0,1
EndSplineSet
EndChar

StartChar: colon
Encoding: 58 58 3
GlifName: colon
Width: 641
VWidth: 2804
GlyphClass: 2
Flags: W
LayerCount: 2
Fore
SplineSet
145.091796875 1050.49316406 m 0,0,1
 145.091796875 1122.93652344 145.091796875 1122.93652344 196.463867188 1174.30761719 c 0,2,3
 221.541015625 1199.38574219 221.541015625 1199.38574219 253.2109375 1212.53222656 c 128,-1,4
 284.879882812 1225.6796875 284.879882812 1225.6796875 320.278320312 1225.6796875 c 0,5,6
 392.72265625 1225.6796875 392.72265625 1225.6796875 444.09375 1174.30761719 c 128,-1,7
 495.463867188 1122.93652344 495.463867188 1122.93652344 495.463867188 1050.49316406 c 128,-1,8
 495.463867188 978.049804688 495.463867188 978.049804688 444.09375 926.678710938 c 128,-1,9
 392.72265625 875.306640625 392.72265625 875.306640625 320.278320312 875.306640625 c 0,10,11
 304.861328125 875.306640625 304.861328125 875.306640625 289.984375 877.834960938 c 128,-1,12
 275.107421875 880.36328125 275.107421875 880.36328125 261.125 885.32421875 c 128,-1,13
 247.141601562 890.286132812 247.141601562 890.286132812 234.081054688 897.732421875 c 128,-1,14
 221.01953125 905.177734375 221.01953125 905.177734375 209.326171875 914.919921875 c 0,15,16
 174.33984375 944.065429688 174.33984375 944.065429688 158.041992188 983.330078125 c 0,17,18
 151.547851562 998.973632812 151.547851562 998.973632812 148.3203125 1015.88378906 c 128,-1,19
 145.091796875 1032.79296875 145.091796875 1032.79296875 145.091796875 1050.49316406 c 0,0,1
145.091796875 180.493164062 m 0,20,21
 145.091796875 252.936523438 145.091796875 252.936523438 196.463867188 304.307617188 c 128,-1,22
 247.834960938 355.6796875 247.834960938 355.6796875 320.278320312 355.6796875 c 128,-1,23
 392.72265625 355.6796875 392.72265625 355.6796875 444.09375 304.307617188 c 128,-1,24
 495.463867188 252.936523438 495.463867188 252.936523438 495.463867188 180.493164062 c 128,-1,25
 495.463867188 108.049804688 495.463867188 108.049804688 444.09375 56.6787109375 c 128,-1,26
 392.72265625 5.306640625 392.72265625 5.306640625 320.278320312 5.306640625 c 0,27,28
 299.705078125 5.306640625 299.705078125 5.306640625 280.225585938 9.7607421875 c 128,-1,29
 260.747070312 14.21484375 260.747070312 14.21484375 242.829101562 23.0751953125 c 128,-1,30
 224.911132812 31.935546875 224.911132812 31.935546875 209.326171875 44.919921875 c 0,31,32
 192.16796875 59.2138671875 192.16796875 59.2138671875 179.182617188 76.4482421875 c 128,-1,33
 166.197265625 93.6826171875 166.197265625 93.6826171875 158.041992188 113.330078125 c 0,34,35
 145.091796875 144.526367188 145.091796875 144.526367188 145.091796875 180.493164062 c 0,20,21
EndSplineSet
EndChar

StartChar: afii57388
Encoding: 1548 1548 5
GlifName: afii57388
Width: 739
VWidth: 2812
GlyphClass: 2
Flags: W
LayerCount: 2
Fore
SplineSet
196.286132812 337.889648438 m 0,0,1
 248.787109375 597.743164062 248.787109375 597.743164062 458 756.318359375 c 2,2,-1
 479.926757812 772.938476562 l 1,3,-1
 503.290039062 758.405273438 l 1,4,-1
 551.524414062 728.401367188 l 1,5,-1
 596.72265625 700.286132812 l 1,6,-1
 557.142578125 664.693359375 l 2,7,8
 425.723632812 546.515625 425.723632812 546.515625 400.288085938 367.825195312 c 1,9,10
 457.500976562 363.08984375 457.500976562 363.08984375 497.8828125 342.73828125 c 128,-1,11
 538.264648438 322.38671875 538.264648438 322.38671875 558.359375 282.899414062 c 0,12,13
 582.2265625 234.950195312 582.2265625 234.950195312 581.080078125 187.219726562 c 0,14,15
 579.82421875 103.581054688 579.82421875 103.581054688 530.471679688 56.2724609375 c 128,-1,16
 481.120117188 8.962890625 481.120117188 8.962890625 396.096679688 8.9072265625 c 0,17,18
 364.05078125 8.7734375 364.05078125 8.7734375 336.604492188 14.1806640625 c 0,19,20
 237.368164062 33.73046875 237.368164062 33.73046875 203.586914062 119.728515625 c 128,-1,21
 169.806640625 205.7265625 169.806640625 205.7265625 196.286132812 337.889648438 c 0,0,1
EndSplineSet
EndChar

StartChar: uni0615
Encoding: 1557 1557 6
GlifName: uni0615
Width: -29
VWidth: 2714
GlyphClass: 4
Flags: W
AnchorPoint: "Anchor-10" 658.199 1624.46 mark 0
AnchorPoint: "Anchor-9" 658.199 1624.46 mark 0
AnchorPoint: "Anchor-1" 672.366 2447.86 basemark 0
AnchorPoint: "Anchor-1" 658.199 1624.46 mark 0
LayerCount: 2
Fore
SplineSet
892.769755624 1920.01350395 m 0,0,1
 892.769755624 1950.34192955 892.769755624 1950.34192955 880.286717348 1962.65524536 c 128,-1,2
 867.803679073 1974.96856117 867.803679073 1974.96856117 836.782727051 1974.96856117 c 0,3,4
 795.149612579 1974.96856117 795.149612579 1974.96856117 731.35825818 1933.54909616 c 128,-1,5
 667.566903781 1892.12963116 667.566903781 1892.12963116 587.704782659 1810.00390625 c 1,6,-1
 677.703125 1810.00390625 l 2,7,8
 727.611858114 1810.00390625 727.611858114 1810.00390625 767.322761717 1818.15079916 c 128,-1,9
 807.033665321 1826.29769208 807.033665321 1826.29769208 836.42090188 1842.11341856 c 0,10,11
 866.083184292 1858.0771702 866.083184292 1858.0771702 879.426469958 1877.13812536 c 128,-1,12
 892.769755624 1896.19908052 892.769755624 1896.19908052 892.769755624 1920.01350395 c 0,0,1
1011.13282009 1928.8058963 m 0,13,14
 1011.09632017 1869.77398547 1011.09632017 1869.77398547 988.305590603 1825.21970331 c 128,-1,15
 965.514861037 1780.66542114 965.514861037 1780.66542114 921.479204584 1751.80131524 c 128,-1,16
 877.44354813 1722.93720934 877.44354813 1722.93720934 814.071634666 1708.50571405 c 128,-1,17
 750.699721203 1694.07421875 750.699721203 1694.07421875 668.384765625 1694.07421875 c 2,18,-1
 354.936523438 1694.07421875 l 1,19,-1
 334.936523438 1694.07421875 l 1,20,-1
 334.936523438 1714.07421875 l 1,21,-1
 334.936523438 1790.00390625 l 1,22,-1
 334.936523438 1810.00390625 l 1,23,-1
 354.936523438 1810.00390625 l 1,24,-1
 442.987304688 1810.00390625 l 1,25,-1
 442.987304688 2322.15039062 l 1,26,-1
 442.987304688 2342.40226986 l 1,27,-1
 463.237597975 2342.14882439 l 1,28,-1
 540.484668287 2341.18202752 l 1,29,-1
 560.278753578 2340.93429179 l 1,30,-1
 560.234324627 2321.13870613 l 1,31,-1
 559.390680143 1945.24783719 l 1,32,33
 709.484125857 2100.07964876 709.484125857 2100.07964876 840.555998274 2100.07964876 c 0,34,35
 922.8417769 2100.07964876 922.8417769 2100.07964876 966.936567489 2055.77250247 c 128,-1,36
 1011.03135808 2011.46535618 1011.03135808 2011.46535618 1011.13282009 1928.8058963 c 0,13,14
EndSplineSet
EndChar

StartChar: uni061B
Encoding: 1563 1563 7
GlifName: uni061B_
Width: 739
VWidth: 2812
GlyphClass: 2
Flags: W
LayerCount: 2
Fore
SplineSet
222.091796875 180.493164062 m 0,0,1
 222.091796875 252.936523438 222.091796875 252.936523438 273.463867188 304.307617188 c 128,-1,2
 324.834960938 355.6796875 324.834960938 355.6796875 397.278320312 355.6796875 c 128,-1,3
 469.72265625 355.6796875 469.72265625 355.6796875 521.09375 304.307617188 c 128,-1,4
 572.463867188 252.936523438 572.463867188 252.936523438 572.463867188 180.493164062 c 128,-1,5
 572.463867188 108.049804688 572.463867188 108.049804688 521.09375 56.6787109375 c 128,-1,6
 469.72265625 5.306640625 469.72265625 5.306640625 397.278320312 5.306640625 c 0,7,8
 366.3125 5.306640625 366.3125 5.306640625 338.018554688 15.3671875 c 128,-1,9
 309.723632812 25.4267578125 309.723632812 25.4267578125 286.326171875 44.919921875 c 0,10,11
 269.16796875 59.2138671875 269.16796875 59.2138671875 256.182617188 76.4482421875 c 128,-1,12
 243.197265625 93.6826171875 243.197265625 93.6826171875 235.041992188 113.330078125 c 0,13,14
 222.091796875 144.526367188 222.091796875 144.526367188 222.091796875 180.493164062 c 0,0,1
196.286132812 777.889648438 m 0,15,16
 248.787109375 1037.74316406 248.787109375 1037.74316406 458 1196.31835938 c 2,17,-1
 479.926757812 1212.93847656 l 1,18,-1
 503.290039062 1198.40527344 l 1,19,-1
 551.524414062 1168.40136719 l 1,20,-1
 596.72265625 1140.28613281 l 1,21,-1
 557.142578125 1104.69335938 l 2,22,23
 425.723632812 986.515625 425.723632812 986.515625 400.288085938 807.825195312 c 1,24,25
 520.192382812 797.900390625 520.192382812 797.900390625 558.359375 722.899414062 c 0,26,27
 582.2265625 674.950195312 582.2265625 674.950195312 581.080078125 627.219726562 c 0,28,29
 579.82421875 543.581054688 579.82421875 543.581054688 530.471679688 496.272460938 c 128,-1,30
 481.120117188 448.962890625 481.120117188 448.962890625 396.096679688 448.907226562 c 0,31,32
 380.2890625 448.840820312 380.2890625 448.840820312 365.373046875 450.146484375 c 128,-1,33
 350.45703125 451.451171875 350.45703125 451.451171875 336.604492188 454.180664062 c 0,34,35
 237.368164062 473.73046875 237.368164062 473.73046875 203.586914062 559.728515625 c 128,-1,36
 169.806640625 645.7265625 169.806640625 645.7265625 196.286132812 777.889648438 c 0,15,16
EndSplineSet
EndChar

StartChar: uni061F
Encoding: 1567 1567 8
GlifName: uni061F_
Width: 974
VWidth: 2804
GlyphClass: 2
Flags: W
LayerCount: 2
Fore
SplineSet
378.091796875 180.493164062 m 0,0,1
 378.091796875 252.936523438 378.091796875 252.936523438 429.463867188 304.307617188 c 128,-1,2
 480.834960938 355.6796875 480.834960938 355.6796875 553.278320312 355.6796875 c 128,-1,3
 625.72265625 355.6796875 625.72265625 355.6796875 677.09375 304.307617188 c 128,-1,4
 728.463867188 252.936523438 728.463867188 252.936523438 728.463867188 180.493164062 c 128,-1,5
 728.463867188 108.049804688 728.463867188 108.049804688 677.09375 56.6787109375 c 128,-1,6
 625.72265625 5.306640625 625.72265625 5.306640625 553.278320312 5.306640625 c 0,7,8
 522.3125 5.306640625 522.3125 5.306640625 494.018554688 15.3671875 c 128,-1,9
 465.723632812 25.4267578125 465.723632812 25.4267578125 442.326171875 44.919921875 c 0,10,11
 425.16796875 59.2138671875 425.16796875 59.2138671875 412.182617188 76.4482421875 c 128,-1,12
 399.197265625 93.6826171875 399.197265625 93.6826171875 391.041992188 113.330078125 c 0,13,14
 378.091796875 144.526367188 378.091796875 144.526367188 378.091796875 180.493164062 c 0,0,1
412.349609375 456.328125 m 1,15,-1
 412.349609375 463.939453125 l 2,16,17
 412 512 412 512 254.872070312 635.68359375 c 4,18,19
 59 789 59 789 65.0078125 995.772460938 c 0,20,21
 67 1076 67 1076 90.8369140625 1143.92089844 c 0,22,23
 115 1212 115 1212 162.005859375 1265.46484375 c 0,24,25
 295 1415 295 1415 509.081054688 1414.51660156 c 0,26,27
 707 1414 707 1414 811.715820312 1303.3046875 c 0,28,29
 916 1193 916 1193 916 986 c 2,30,-1
 916 976.25 l 1,31,-1
 916 936.25 l 1,32,-1
 876 936.25 l 1,33,-1
 715.799804688 936.248046875 l 1,34,-1
 675.799804688 936.248046875 l 1,35,-1
 675.799804688 976.248046875 l 1,36,-1
 675.799804688 984.885742188 l 2,37,38
 676 1041 676 1041 659.903320312 1075.19140625 c 0,39,40
 644 1109 644 1109 609.458984375 1125.02929688 c 128,-1,41
 575 1141 575 1141 517.59375 1140.89453125 c 0,42,43
 419 1141 419 1141 375.114257812 1088.38476562 c 0,44,45
 340 1046 340 1046 339.510742188 978.801757812 c 0,46,47
 339 898 339 898 466.45703125 782.359375 c 4,48,49
 694.98046875 575.017720903 694.98046875 575.017720903 694.98046875 466.998046875 c 2,50,-1
 694.98046875 456.331054688 l 1,51,-1
 694.978515625 446.333984375 l 1,52,-1
 654.98046875 446.333007812 l 1,53,-1
 452.350585938 446.330078125 l 1,54,-1
 412.3515625 446.329101562 l 1,55,-1
 412.349609375 456.328125 l 1,15,-1
EndSplineSet
EndChar

StartChar: uni0621
Encoding: 1569 1569 9
GlifName: uni0621
Width: 868
VWidth: 2992
GlyphClass: 2
Flags: W
AnchorPoint: "Anchor-7" 471.326 -55.6465 basechar 0
AnchorPoint: "Anchor-10" 467.848 1221.06 basechar 0
LayerCount: 2
Fore
SplineSet
77.76953125 51.8525390625 m 1,0,-1
 77.76953125 229.793945312 l 1,1,-1
 77.76953125 251.516601562 l 1,2,-1
 95.990234375 263.344726562 l 2,3,4
 165.833984375 308.684570312 165.833984375 308.684570312 227.390625 336.663085938 c 1,5,6
 98.021484375 434.08203125 98.021484375 434.08203125 98.2568359375 580.763671875 c 0,7,8
 99.0810546875 730.955078125 99.0810546875 730.955078125 179.776367188 824.5703125 c 0,9,10
 293.73046875 955.98828125 293.73046875 955.98828125 475.275390625 956.10546875 c 0,11,12
 535.219726562 956.067382812 535.219726562 956.067382812 586.8125 945.1015625 c 128,-1,13
 638.405273438 934.135742188 638.405273438 934.135742188 682.603515625 911.23828125 c 128,-1,14
 726.801757812 888.33984375 726.801757812 888.33984375 761.036132812 853.842773438 c 2,15,-1
 779.719726562 835.014648438 l 1,16,-1
 769.646484375 810.4765625 l 1,17,-1
 713.0703125 672.658203125 l 1,18,-1
 693.788085938 625.684570312 l 1,19,-1
 652.634765625 655.430664062 l 2,20,21
 584.100585938 704.96875 584.100585938 704.96875 487.252929688 704.736328125 c 0,22,23
 416.333007812 704.13671875 416.333007812 704.13671875 377.54296875 666.577148438 c 0,24,25
 343.935546875 634.001953125 343.935546875 634.001953125 343.731445312 580.549804688 c 0,26,27
 343.768554688 568.212890625 343.768554688 568.212890625 350.78515625 554.379882812 c 128,-1,28
 357.801757812 540.546875 357.801757812 540.546875 372.95703125 524.30859375 c 128,-1,29
 388.112304688 508.0703125 388.112304688 508.0703125 415.73828125 489.715820312 c 128,-1,30
 443.365234375 471.361328125 443.365234375 471.361328125 480.984375 453.375976562 c 1,31,-1
 720.38671875 507.463867188 l 1,32,-1
 761.916992188 516.846679688 l 1,33,-1
 768.692382812 474.8125 l 1,34,-1
 796.490234375 302.365234375 l 1,35,-1
 803.125 261.208984375 l 1,36,-1
 761.728515625 256.280273438 l 2,37,38
 517.504882812 227.206054688 517.504882812 227.206054688 137.127929688 16.8486328125 c 2,39,-1
 77.76953125 -15.9775390625 l 1,40,-1
 77.76953125 51.8525390625 l 1,0,-1
EndSplineSet
EndChar

StartChar: uni0627
Encoding: 1575 1575 15
GlifName: uni0627
Width: 477
VWidth: 2992
GlyphClass: 2
Flags: W
AnchorPoint: "Anchor-10" 229.871 1533.46 basechar 0
AnchorPoint: "Anchor-7" 233.587 -196.365 basechar 0
LayerCount: 2
Fore
SplineSet
150.890625 1408.15039062 m 5,0,-1
 324.205078125 1408.15039062 l 5,1,-1
 364.205078125 1408.15039062 l 5,2,-1
 364.205078125 1368.15039062 l 5,3,-1
 364.205078125 40.751953125 l 5,4,-1
 364.205078125 0.751953125 l 5,5,-1
 324.205078125 0.751953125 l 5,6,-1
 150.890625 0.751953125 l 5,7,-1
 110.890625 0.751953125 l 5,8,-1
 110.890625 40.751953125 l 5,9,-1
 110.890625 1368.15039062 l 5,10,-1
 110.890625 1408.15039062 l 5,11,-1
 150.890625 1408.15039062 l 5,0,-1
EndSplineSet
Substitution2: "'fina' Terminal Forms in Arabic lookup 9 subtable" uniFE8E
EndChar

StartChar: uni062D
Encoding: 1581 1581 21
GlifName: uni062D_
Width: 1386
VWidth: 2992
GlyphClass: 2
Flags: W
AnchorPoint: "Anchor-7" 580.833 -770.619 basechar 0
AnchorPoint: "Anchor-10" 649.478 1302.07 basechar 0
LayerCount: 2
Fore
SplineSet
84.9873046875 -104.853515625 m 0,0,1
 84.9873046875 177.396484375 84.9873046875 177.396484375 246.2109375 367.045898438 c 128,-1,2
 407.435546875 556.694335938 407.435546875 556.694335938 720.947265625 648.377929688 c 1,3,4
 534.04296875 723.96484375 534.04296875 723.96484375 469.58203125 723.6875 c 0,5,6
 376.053710938 723.947265625 376.053710938 723.947265625 315.234375 645.607421875 c 2,7,-1
 287.206054688 609.504882812 l 1,8,-1
 267.182617188 583.711914062 l 1,9,-1
 237.903320312 598.166992188 l 1,10,-1
 84.04296875 674.126953125 l 1,11,-1
 44.9541015625 693.424804688 l 1,12,-1
 67.5341796875 730.713867188 l 1,13,-1
 84.2275390625 758.279296875 l 2,14,15
 151.692382812 869.743164062 151.692382812 869.743164062 249.6484375 927.563476562 c 128,-1,16
 347.603515625 985.383789062 347.603515625 985.383789062 470.986328125 985.840820312 c 0,17,18
 499.314453125 985.875976562 499.314453125 985.875976562 529.189453125 982.194335938 c 128,-1,19
 559.064453125 978.512695312 559.064453125 978.512695312 590.081054688 971.290039062 c 128,-1,20
 621.09765625 964.068359375 621.09765625 964.068359375 654.139648438 953.149414062 c 128,-1,21
 687.180664062 942.23046875 687.180664062 942.23046875 721.44921875 928.044921875 c 128,-1,22
 755.71875 913.859375 755.71875 913.859375 792.490234375 895.999023438 c 0,23,24
 1097.03222656 747.607421875 1097.03222656 747.607421875 1259.6171875 740.655273438 c 2,25,-1
 1300.875 738.890625 l 1,26,-1
 1297.796875 697.709960938 l 1,27,-1
 1284.80761719 523.948242188 l 1,28,-1
 1282.20800781 489.168945312 l 1,29,-1
 1247.39941406 487.006835938 l 2,30,31
 1161.00585938 481.638671875 1161.00585938 481.638671875 1089.32617188 472.473632812 c 128,-1,32
 1017.64648438 463.30859375 1017.64648438 463.30859375 961.659179688 450.584960938 c 0,33,34
 641.627929688 376.345703125 641.627929688 376.345703125 488.380859375 241.366210938 c 128,-1,35
 335.134765625 106.38671875 335.134765625 106.38671875 335.249023438 -89.3046875 c 0,36,37
 335.137695312 -254.271484375 335.137695312 -254.271484375 452.981445312 -336.079101562 c 128,-1,38
 570.826171875 -417.887695312 570.826171875 -417.887695312 826.395507812 -417.783203125 c 0,39,40
 1033.953125 -417.991210938 1033.953125 -417.991210938 1226.06542969 -326.192382812 c 2,41,-1
 1272.37695312 -304.063476562 l 1,42,-1
 1282.52246094 -354.377929688 l 1,43,-1
 1318.58203125 -533.204101562 l 1,44,-1
 1324.70214844 -563.553710938 l 1,45,-1
 1296.85449219 -577.086914062 l 2,46,47
 1089.22265625 -677.991210938 1089.22265625 -677.991210938 811.534179688 -678.249023438 c 0,48,49
 408.517578125 -677.98828125 408.517578125 -677.98828125 224.650390625 -479.484375 c 0,50,51
 84.9873046875 -328.662109375 84.9873046875 -328.662109375 84.9873046875 -104.853515625 c 0,0,1
EndSplineSet
Substitution2: "'fina' Terminal Forms in Arabic lookup 9 subtable" uniFEA2
Substitution2: "'medi' Medial Forms in Arabic lookup 11 subtable" uniFEA4
Substitution2: "'init' Initial Forms in Arabic lookup 13 subtable" uniFEA3
EndChar

StartChar: uni062F
Encoding: 1583 1583 23
GlifName: uni062F_
Width: 994
VWidth: 2992
GlyphClass: 2
Flags: W
AnchorPoint: "Anchor-10" 396.137 1271.03 basechar 0
AnchorPoint: "Anchor-7" 437.24 -199.316 basechar 0
LayerCount: 2
Fore
SplineSet
109.126953125 290.370117188 m 2,0,1
 231.096679688 265.00390625 231.096679688 265.00390625 341.650390625 265.107421875 c 0,2,3
 671.990234375 265.01171875 671.990234375 265.01171875 671.954101562 406.389648438 c 0,4,5
 671.973632812 494.135742188 671.973632812 494.135742188 574.0625 605.10546875 c 128,-1,6
 476.151367188 716.076171875 476.151367188 716.076171875 275.705078125 842.139648438 c 2,7,-1
 241.11328125 863.89453125 l 1,8,-1
 263.602539062 898.013671875 l 1,9,-1
 363.85546875 1050.11328125 l 1,10,-1
 384.900390625 1082.04199219 l 1,11,-1
 417.743164062 1062.453125 l 2,12,13
 931.966796875 755.736328125 931.966796875 755.736328125 932.479492188 408.899414062 c 0,14,15
 932.372070312 327.206054688 932.372070312 327.206054688 907.288085938 261.310546875 c 128,-1,16
 882.203125 195.416015625 882.203125 195.416015625 834.1953125 147.227539062 c 128,-1,17
 786.1875 99.0390625 786.1875 99.0390625 715.786132812 66.6240234375 c 128,-1,18
 645.385742188 34.2080078125 645.385742188 34.2080078125 555.153320312 18.3095703125 c 128,-1,19
 464.920898438 2.4111328125 464.920898438 2.4111328125 354.880859375 2.259765625 c 0,20,21
 203.629882812 1.9921875 203.629882812 1.9921875 92.2783203125 26.81640625 c 2,22,-1
 60.982421875 33.7939453125 l 1,23,-1
 60.982421875 65.8583984375 l 1,24,-1
 60.982421875 251.208007812 l 1,25,-1
 60.982421875 300.3828125 l 1,26,-1
 109.126953125 290.370117188 l 2,0,1
EndSplineSet
Substitution2: "'fina' Terminal Forms in Arabic lookup 9 subtable" uniFEAA
EndChar

StartChar: uni0631
Encoding: 1585 1585 25
GlifName: uni0631
Width: 826
VWidth: 2184
GlyphClass: 2
Flags: W
AnchorPoint: "Anchor-10" 507.256 966.2 basechar 0
AnchorPoint: "Anchor-7" 322.969 -627.998 basechar 0
LayerCount: 2
Fore
SplineSet
681.751953125 587.689453125 m 2,0,1
 725.20703125 488.93359375 725.20703125 488.93359375 747.192382812 392.991210938 c 128,-1,2
 769.177734375 297.049804688 769.177734375 297.049804688 769.375 204.0234375 c 0,3,4
 769.177734375 -111.231445312 769.177734375 -111.231445312 582.063476562 -291.432617188 c 128,-1,5
 394.948242188 -471.633789062 394.948242188 -471.633789062 33.654296875 -509.931640625 c 2,6,-1
 -0.9326171875 -513.59765625 l 1,7,-1
 -9.3681640625 -479.85546875 l 1,8,-1
 -51.9365234375 -309.580078125 l 1,9,-1
 -63.1572265625 -264.6953125 l 1,10,-1
 -17.1220703125 -260.078125 l 2,11,12
 255.893554688 -232.697265625 255.893554688 -232.697265625 384.745117188 -120.705078125 c 128,-1,13
 513.596679688 -8.712890625 513.596679688 -8.712890625 513.250976562 192.177734375 c 0,14,15
 513.014648438 336.087890625 513.014648438 336.087890625 438.7578125 495.072265625 c 2,16,-1
 420.044921875 535.137695312 l 1,17,-1
 461.780273438 549.751953125 l 1,18,-1
 631.919921875 609.331054688 l 1,19,-1
 666.846679688 621.5625 l 1,20,-1
 681.751953125 587.689453125 l 2,0,1
EndSplineSet
PairPos2: "'kern' Horizontal Kerning lookup 15-2" uniFBFE dx=60 dy=0 dh=60 dv=0 dx=0 dy=0 dh=0 dv=0
PairPos2: "'kern' Horizontal Kerning lookup 15-1" uniFEE7 dx=-178 dy=0 dh=-178 dv=0 dx=0 dy=0 dh=0 dv=0
PairPos2: "'kern' Horizontal Kerning lookup 15-2" uniFB90 dx=-226 dy=0 dh=-226 dv=0 dx=0 dy=0 dh=0 dv=0
PairPos2: "'kern' Horizontal Kerning lookup 15-2" uniFB8E dx=-226 dy=0 dh=-226 dv=0 dx=0 dy=0 dh=0 dv=0
PairPos2: "'kern' Horizontal Kerning lookup 15-2" uni06A9 dx=-226 dy=0 dh=-226 dv=0 dx=0 dy=0 dh=0 dv=0
PairPos2: "'kern' Horizontal Kerning lookup 15-2" uni064A dx=-60 dy=0 dh=-60 dv=0 dx=0 dy=0 dh=0 dv=0
PairPos2: "'kern' Horizontal Kerning lookup 15-2" afii57414 dx=-60 dy=0 dh=-60 dv=0 dx=0 dy=0 dh=0 dv=0
PairPos2: "'kern' Horizontal Kerning lookup 15-2" uni0649 dx=-60 dy=0 dh=-60 dv=0 dx=0 dy=0 dh=0 dv=0
PairPos2: "'kern' Horizontal Kerning lookup 15-2" uniFEEB dx=-178 dy=0 dh=-178 dv=0 dx=0 dy=0 dh=0 dv=0
PairPos2: "'kern' Horizontal Kerning lookup 15-2" uni0647 dx=-178 dy=0 dh=-178 dv=0 dx=0 dy=0 dh=0 dv=0
PairPos2: "'kern' Horizontal Kerning lookup 15-2" uni0646 dx=-60 dy=0 dh=-60 dv=0 dx=0 dy=0 dh=0 dv=0
PairPos2: "'kern' Horizontal Kerning lookup 15-2" uniFEE3 dx=-178 dy=0 dh=-178 dv=0 dx=0 dy=0 dh=0 dv=0
PairPos2: "'kern' Horizontal Kerning lookup 15-2" uni0645 dx=-178 dy=0 dh=-178 dv=0 dx=0 dy=0 dh=0 dv=0
PairPos2: "'kern' Horizontal Kerning lookup 15-2" uniFEFB dx=-143 dy=0 dh=-143 dv=0 dx=0 dy=0 dh=0 dv=0
PairPos2: "'kern' Horizontal Kerning lookup 15-2" uniFEDF dx=-143 dy=0 dh=-143 dv=0 dx=0 dy=0 dh=0 dv=0
PairPos2: "'kern' Horizontal Kerning lookup 15-2" uni0644 dx=-60 dy=0 dh=-60 dv=0 dx=0 dy=0 dh=0 dv=0
PairPos2: "'kern' Horizontal Kerning lookup 15-2" uniFEDB dx=-226 dy=0 dh=-226 dv=0 dx=0 dy=0 dh=0 dv=0
PairPos2: "'kern' Horizontal Kerning lookup 15-2" uni0643 dx=-143 dy=0 dh=-143 dv=0 dx=0 dy=0 dh=0 dv=0
PairPos2: "'kern' Horizontal Kerning lookup 15-2" uniFED7 dx=-178 dy=0 dh=-178 dv=0 dx=0 dy=0 dh=0 dv=0
PairPos2: "'kern' Horizontal Kerning lookup 15-2" uni0642 dx=-60 dy=0 dh=-60 dv=0 dx=0 dy=0 dh=0 dv=0
PairPos2: "'kern' Horizontal Kerning lookup 15-2" uniFED3 dx=-178 dy=0 dh=-178 dv=0 dx=0 dy=0 dh=0 dv=0
PairPos2: "'kern' Horizontal Kerning lookup 15-2" uni0641 dx=-178 dy=0 dh=-178 dv=0 dx=0 dy=0 dh=0 dv=0
PairPos2: "'kern' Horizontal Kerning lookup 15-2" uniFECF dx=-178 dy=0 dh=-178 dv=0 dx=0 dy=0 dh=0 dv=0
PairPos2: "'kern' Horizontal Kerning lookup 15-2" uniFECB dx=-178 dy=0 dh=-178 dv=0 dx=0 dy=0 dh=0 dv=0
PairPos2: "'kern' Horizontal Kerning lookup 15-2" uniFEC7 dx=-178 dy=0 dh=-178 dv=0 dx=0 dy=0 dh=0 dv=0
PairPos2: "'kern' Horizontal Kerning lookup 15-2" uni0638 dx=-178 dy=0 dh=-178 dv=0 dx=0 dy=0 dh=0 dv=0
PairPos2: "'kern' Horizontal Kerning lookup 15-2" uniFEC3 dx=-178 dy=0 dh=-178 dv=0 dx=0 dy=0 dh=0 dv=0
PairPos2: "'kern' Horizontal Kerning lookup 15-2" uni0637 dx=-178 dy=0 dh=-178 dv=0 dx=0 dy=0 dh=0 dv=0
PairPos2: "'kern' Horizontal Kerning lookup 15-2" uniFEBF dx=-178 dy=0 dh=-178 dv=0 dx=0 dy=0 dh=0 dv=0
PairPos2: "'kern' Horizontal Kerning lookup 15-2" uni0636 dx=-178 dy=0 dh=-178 dv=0 dx=0 dy=0 dh=0 dv=0
PairPos2: "'kern' Horizontal Kerning lookup 15-2" uniFEBB dx=-178 dy=0 dh=-178 dv=0 dx=0 dy=0 dh=0 dv=0
PairPos2: "'kern' Horizontal Kerning lookup 15-2" uni0635 dx=-178 dy=0 dh=-178 dv=0 dx=0 dy=0 dh=0 dv=0
PairPos2: "'kern' Horizontal Kerning lookup 15-2" uniFEB7 dx=-178 dy=0 dh=-178 dv=0 dx=0 dy=0 dh=0 dv=0
PairPos2: "'kern' Horizontal Kerning lookup 15-2" uni0634 dx=-178 dy=0 dh=-178 dv=0 dx=0 dy=0 dh=0 dv=0
PairPos2: "'kern' Horizontal Kerning lookup 15-2" uniFEB3 dx=-178 dy=0 dh=-178 dv=0 dx=0 dy=0 dh=0 dv=0
PairPos2: "'kern' Horizontal Kerning lookup 15-2" uni0633 dx=-178 dy=0 dh=-178 dv=0 dx=0 dy=0 dh=0 dv=0
PairPos2: "'kern' Horizontal Kerning lookup 15-2" uni0630 dx=-178 dy=0 dh=-178 dv=0 dx=0 dy=0 dh=0 dv=0
PairPos2: "'kern' Horizontal Kerning lookup 15-2" uni062F dx=-178 dy=0 dh=-178 dv=0 dx=0 dy=0 dh=0 dv=0
PairPos2: "'kern' Horizontal Kerning lookup 15-2" uniFEA7 dx=-178 dy=0 dh=-178 dv=0 dx=0 dy=0 dh=0 dv=0
PairPos2: "'kern' Horizontal Kerning lookup 15-2" uniFEA3 dx=-178 dy=0 dh=-178 dv=0 dx=0 dy=0 dh=0 dv=0
PairPos2: "'kern' Horizontal Kerning lookup 15-2" uniFE9F dx=-178 dy=0 dh=-178 dv=0 dx=0 dy=0 dh=0 dv=0
PairPos2: "'kern' Horizontal Kerning lookup 15-2" uniFE9B dx=-178 dy=0 dh=-178 dv=0 dx=0 dy=0 dh=0 dv=0
PairPos2: "'kern' Horizontal Kerning lookup 15-2" uni062B dx=-178 dy=0 dh=-178 dv=0 dx=0 dy=0 dh=0 dv=0
PairPos2: "'kern' Horizontal Kerning lookup 15-2" uniFE97 dx=-178 dy=0 dh=-178 dv=0 dx=0 dy=0 dh=0 dv=0
PairPos2: "'kern' Horizontal Kerning lookup 15-2" uni062A dx=-178 dy=0 dh=-178 dv=0 dx=0 dy=0 dh=0 dv=0
PairPos2: "'kern' Horizontal Kerning lookup 15-2" uni0629 dx=-178 dy=0 dh=-178 dv=0 dx=0 dy=0 dh=0 dv=0
PairPos2: "'kern' Horizontal Kerning lookup 15-2" uni0628 dx=-178 dy=0 dh=-178 dv=0 dx=0 dy=0 dh=0 dv=0
PairPos2: "'kern' Horizontal Kerning lookup 15-2" uni0627 dx=-143 dy=0 dh=-143 dv=0 dx=0 dy=0 dh=0 dv=0
PairPos2: "'kern' Horizontal Kerning lookup 15-2" uni0623 dx=-143 dy=0 dh=-143 dv=0 dx=0 dy=0 dh=0 dv=0
PairPos2: "'kern' Horizontal Kerning lookup 15-2" uni0622 dx=-143 dy=0 dh=-143 dv=0 dx=0 dy=0 dh=0 dv=0
PairPos2: "'kern' Horizontal Kerning lookup 15-2" uni0621 dx=-178 dy=0 dh=-178 dv=0 dx=0 dy=0 dh=0 dv=0
PairPos2: "'kern' Horizontal Kerning lookup 15-2" uniFB94 dx=-226 dy=0 dh=-226 dv=0 dx=0 dy=0 dh=0 dv=0
PairPos2: "'kern' Horizontal Kerning lookup 15-2" uniFB92 dx=-226 dy=0 dh=-226 dv=0 dx=0 dy=0 dh=0 dv=0
PairPos2: "'kern' Horizontal Kerning lookup 15-2" uni06AF dx=-226 dy=0 dh=-226 dv=0 dx=0 dy=0 dh=0 dv=0
PairPos2: "'kern' Horizontal Kerning lookup 15-2" afii57506 dx=-178 dy=0 dh=-178 dv=0 dx=0 dy=0 dh=0 dv=0
PairPos2: "'kern' Horizontal Kerning lookup 15-2" afii57440 dx=-178 dy=0 dh=-178 dv=0 dx=0 dy=0 dh=0 dv=0
PairPos2: "'kern' Horizontal Kerning lookup 15-2" uniFE8B dx=-178 dy=0 dh=-178 dv=0 dx=0 dy=0 dh=0 dv=0
Substitution2: "'fina' Terminal Forms in Arabic lookup 9 subtable" uniFEAE
EndChar

StartChar: uni0633
Encoding: 1587 1587 27
GlifName: uni0633
Width: 2500
VWidth: 2992
GlyphClass: 2
Flags: W
AnchorPoint: "Anchor-10" 1818.53 1177.1 basechar 0
AnchorPoint: "Anchor-7" 681.902 -716.086 basechar 0
LayerCount: 2
Fore
SplineSet
1552.80175781 -0.0810546875 m 0,0,1
 1469.15820312 -0.0810546875 1469.15820312 -0.0810546875 1405.78515625 27.6708984375 c 1,2,3
 1392.69628906 -84.935546875 1392.69628906 -84.935546875 1339.90039062 -194.354492188 c 0,4,5
 1183.13085938 -520.015625 1183.13085938 -520.015625 707.33203125 -519.724609375 c 0,6,7
 391.533203125 -519.868164062 391.533203125 -519.868164062 226.708007812 -367.251953125 c 128,-1,8
 61.8828125 -214.635742188 61.8828125 -214.635742188 61.7529296875 81.05859375 c 0,9,10
 62.009765625 293.97265625 62.009765625 293.97265625 166.068359375 545.420898438 c 2,11,-1
 181.341796875 582.328125 l 1,12,-1
 218.271484375 567.106445312 l 1,13,-1
 376.791992188 501.768554688 l 1,14,-1
 413.215820312 486.755859375 l 1,15,-1
 398.7578125 450.108398438 l 2,16,17
 318.01171875 245.42578125 318.01171875 245.42578125 318.268554688 82.8779296875 c 0,18,19
 318.145507812 -94.3017578125 318.145507812 -94.3017578125 413.4609375 -178.705078125 c 128,-1,20
 508.776367188 -263.107421875 508.776367188 -263.107421875 714.362304688 -263.203125 c 0,21,22
 938.39453125 -263.107421875 938.39453125 -263.107421875 1044.11230469 -164.2734375 c 128,-1,23
 1149.83007812 -65.439453125 1149.83007812 -65.439453125 1150.5546875 142.051757812 c 0,24,25
 1150.97753906 316.815429688 1150.97753906 316.815429688 1064.49023438 494.2421875 c 2,26,-1
 1044.77441406 534.689453125 l 1,27,-1
 1087.25292969 549.530273438 l 1,28,-1
 1259.89453125 609.84765625 l 1,29,-1
 1298.53808594 623.348632812 l 1,30,-1
 1311.14355469 584.404296875 l 1,31,-1
 1371.07128906 399.271484375 l 2,32,33
 1393.56640625 329.190429688 1393.56640625 329.190429688 1437.44824219 297.092773438 c 128,-1,34
 1481.33007812 264.995117188 1481.33007812 264.995117188 1554.49902344 264.9921875 c 0,35,36
 1608.69238281 264.994140625 1608.69238281 264.994140625 1640.94921875 279.637695312 c 128,-1,37
 1673.20703125 294.28125 1673.20703125 294.28125 1687.85351562 325.405273438 c 128,-1,38
 1702.5 356.529296875 1702.5 356.529296875 1702.30175781 408.520507812 c 0,39,40
 1702.15722656 436.556640625 1702.15722656 436.556640625 1701.40234375 461.262695312 c 128,-1,41
 1700.64746094 485.967773438 1700.64746094 485.967773438 1699.29882812 507.126953125 c 2,42,-1
 1693.8984375 591.842773438 l 1,43,-1
 1691.48535156 629.694335938 l 1,44,-1
 1729.15527344 634.115234375 l 1,45,-1
 1893.88085938 653.448242188 l 1,46,-1
 1935.53808594 658.336914062 l 1,47,-1
 1938.44628906 616.495117188 l 1,48,-1
 1954.52148438 385.270507812 l 2,49,50
 1958.85351562 320.393554688 1958.85351562 320.393554688 1985.97851562 293.845703125 c 128,-1,51
 2013.10351562 267.297851562 2013.10351562 267.297851562 2072.86523438 267.5 c 0,52,53
 2127.6171875 267.684570312 2127.6171875 267.684570312 2154.15039062 305.735351562 c 128,-1,54
 2180.68359375 343.786132812 2180.68359375 343.786132812 2180.42285156 439.180664062 c 0,55,56
 2180.0234375 536.306640625 2180.0234375 536.306640625 2137.96386719 683.216796875 c 2,57,-1
 2126.76171875 722.346679688 l 1,58,-1
 2166.08007812 732.8671875 l 1,59,-1
 2337.03125 778.607421875 l 1,60,-1
 2373.97851562 788.493164062 l 1,61,-1
 2385.50878906 752.025390625 l 2,62,63
 2437.02441406 589.095703125 2437.02441406 589.095703125 2436.43652344 440.301757812 c 0,64,65
 2435.96484375 194.79296875 2435.96484375 194.79296875 2301.06933594 77.013671875 c 0,66,67
 2214.01660156 1.0107421875 2214.01660156 1.0107421875 2075.16699219 0.912109375 c 0,68,69
 1992.078125 0.951171875 1992.078125 0.951171875 1928.16992188 28.4150390625 c 128,-1,70
 1864.26171875 55.87890625 1864.26171875 55.87890625 1824.69628906 110.719726562 c 1,71,72
 1717.63085938 -0.0810546875 1717.63085938 -0.0810546875 1552.80175781 -0.0810546875 c 0,0,1
EndSplineSet
Substitution2: "'fina' Terminal Forms in Arabic lookup 9 subtable" uniFEB2
Substitution2: "'medi' Medial Forms in Arabic lookup 11 subtable" uniFEB4
Substitution2: "'init' Initial Forms in Arabic lookup 13 subtable" uniFEB3
EndChar

StartChar: uni0635
Encoding: 1589 1589 29
GlifName: uni0635
Width: 2597
VWidth: 2992
GlyphClass: 2
Flags: W
AnchorPoint: "Anchor-7" 681.902 -716.086 basechar 0
AnchorPoint: "Anchor-10" 2066.53 1276.1 basechar 0
LayerCount: 2
Fore
SplineSet
1416.93457031 302.989257812 m 1,0,1
 1760.48046875 872.022460938 1760.48046875 872.022460938 2119.42480469 871.42578125 c 0,2,3
 2279.52734375 870.958007812 2279.52734375 870.958007812 2389.56054688 779.307617188 c 0,4,5
 2535.04296875 658.768554688 2535.04296875 658.768554688 2534.59667969 463.670898438 c 0,6,7
 2534.15234375 345.844726562 2534.15234375 345.844726562 2483.23925781 257.55078125 c 128,-1,8
 2432.32519531 169.2578125 2432.32519531 169.2578125 2334.15234375 112.649414062 c 128,-1,9
 2235.97851562 56.0419921875 2235.97851562 56.0419921875 2095.81738281 28.0205078125 c 128,-1,10
 1955.65722656 0 1955.65722656 0 1773.15136719 0 c 2,11,-1
 1722.34082031 0 l 2,12,13
 1623.60449219 0 1623.60449219 0 1544.87597656 9.4306640625 c 128,-1,14
 1466.1484375 18.8623046875 1466.1484375 18.8623046875 1406.90136719 38.1357421875 c 1,15,16
 1395.11914062 -79.9150390625 1395.11914062 -79.9150390625 1339.90039062 -194.354492188 c 0,17,18
 1183.13085938 -520.015625 1183.13085938 -520.015625 707.33203125 -519.724609375 c 0,19,20
 391.533203125 -519.868164062 391.533203125 -519.868164062 226.708007812 -367.251953125 c 128,-1,21
 61.8828125 -214.635742188 61.8828125 -214.635742188 61.7529296875 81.05859375 c 0,22,23
 62.009765625 293.97265625 62.009765625 293.97265625 166.068359375 545.420898438 c 2,24,-1
 181.341796875 582.328125 l 1,25,-1
 218.271484375 567.106445312 l 1,26,-1
 376.791992188 501.768554688 l 1,27,-1
 413.215820312 486.755859375 l 1,28,-1
 398.7578125 450.108398438 l 2,29,30
 318.01171875 245.42578125 318.01171875 245.42578125 318.268554688 82.8779296875 c 0,31,32
 318.145507812 -94.3017578125 318.145507812 -94.3017578125 413.4609375 -178.705078125 c 128,-1,33
 508.776367188 -263.107421875 508.776367188 -263.107421875 714.362304688 -263.203125 c 0,34,35
 938.39453125 -263.107421875 938.39453125 -263.107421875 1044.11230469 -164.2734375 c 128,-1,36
 1149.83007812 -65.439453125 1149.83007812 -65.439453125 1150.5546875 142.051757812 c 0,37,38
 1150.97753906 316.815429688 1150.97753906 316.815429688 1064.49023438 494.2421875 c 2,39,-1
 1044.77441406 534.689453125 l 1,40,-1
 1087.25292969 549.530273438 l 1,41,-1
 1259.89453125 609.84765625 l 1,42,-1
 1298.60644531 623.373046875 l 1,43,-1
 1311.16601562 584.336914062 l 1,44,-1
 1379.06738281 373.282226562 l 2,45,46
 1387.5078125 347.1953125 1387.5078125 347.1953125 1397.48144531 329.4609375 c 128,-1,47
 1407.45410156 311.727539062 1407.45410156 311.727539062 1416.93457031 302.989257812 c 1,0,1
1768.72265625 264.534179688 m 2,48,49
 1903.36914062 264.649414062 1903.36914062 264.649414062 2002.29101562 278.806640625 c 128,-1,50
 2101.21289062 292.962890625 2101.21289062 292.962890625 2159.35449219 319.106445312 c 128,-1,51
 2217.49609375 345.249023438 2217.49609375 345.249023438 2245.01757812 379.06640625 c 128,-1,52
 2272.5390625 412.8828125 2272.5390625 412.8828125 2272.66113281 455.5078125 c 0,53,54
 2272.9296875 536.065429688 2272.9296875 536.065429688 2212.28613281 577.961914062 c 0,55,56
 2174.38183594 604.110351562 2174.38183594 604.110351562 2121.81640625 604.57421875 c 0,57,58
 2031.49023438 605.139648438 2031.49023438 605.139648438 1924.59277344 521.3671875 c 128,-1,59
 1817.6953125 437.595703125 1817.6953125 437.595703125 1699.06152344 264.477539062 c 1,60,-1
 1768.72265625 264.534179688 l 2,48,49
EndSplineSet
Substitution2: "'fina' Terminal Forms in Arabic lookup 9 subtable" uniFEBA
Substitution2: "'medi' Medial Forms in Arabic lookup 11 subtable" uniFEBC
Substitution2: "'init' Initial Forms in Arabic lookup 13 subtable" uniFEBB
EndChar

StartChar: uni0637
Encoding: 1591 1591 31
GlifName: uni0637
Width: 1480
VWidth: 2992
GlyphClass: 2
Flags: W
AnchorPoint: "Anchor-10" 471.36 1586.58 basechar 0
AnchorPoint: "Anchor-7" 641.602 -196.453 basechar 0
LayerCount: 2
Fore
SplineSet
1419.67382812 463.62890625 m 0,0,1
 1418 230 1418 230 1222.48144531 114.905273438 c 128,-1,2
 1027 0 1027 0 658.228515625 0 c 2,3,-1
 101.302734375 0 l 1,4,-1
 61.302734375 0 l 1,5,-1
 61.302734375 40 l 1,6,-1
 61.302734375 224.221679688 l 1,7,-1
 61.302734375 264.193359375 l 1,8,-1
 101.274414062 264.221679688 l 1,9,-1
 302.625 264.36328125 l 1,10,11
 323 294 323 294 355.6328125 348.911132812 c 1,12,-1
 355.6328125 1368.87402344 l 5,13,-1
 355.6328125 1408.87402344 l 5,14,-1
 395.6328125 1408.87402344 l 5,15,-1
 568.946289062 1408.87402344 l 5,16,-1
 608.946289062 1408.87402344 l 5,17,-1
 608.946289062 1368.87402344 l 5,18,-1
 608.946289062 689.366210938 l 1,19,20
 792.892380138 874.882922744 792.892380138 874.882922744 1005.12890625 871.418945312 c 0,21,22
 1085 870 1085 870 1153.22851562 847.080078125 c 0,23,24
 1221 824 1221 824 1274.68261719 779.26953125 c 0,25,26
 1420 659 1420 659 1419.67382812 463.62890625 c 0,0,1
1006.98144531 604.573242188 m 0,27,28
 915.173828125 604.743164062 915.173828125 604.743164062 808.184570312 520.951171875 c 128,-1,29
 701.196289062 437.16015625 701.196289062 437.16015625 583.787109375 264.534179688 c 1,30,-1
 653.815429688 264.534179688 l 2,31,32
 714.374023438 264.5859375 714.374023438 264.5859375 767.849609375 267.560546875 c 128,-1,33
 821.325195312 270.534179688 821.325195312 270.534179688 865.611328125 276.079101562 c 128,-1,34
 909.896484375 281.623046875 909.896484375 281.623046875 947.62109375 289.766601562 c 128,-1,35
 985.346679688 297.909179688 985.346679688 297.909179688 1015.00488281 308.092773438 c 128,-1,36
 1044.66308594 318.275390625 1044.66308594 318.275390625 1068.24121094 330.747070312 c 128,-1,37
 1091.81933594 343.21875 1091.81933594 343.21875 1108.45507812 357.200195312 c 128,-1,38
 1125.08984375 371.181640625 1125.08984375 371.181640625 1136.12695312 387.142578125 c 128,-1,39
 1147.1640625 403.102539062 1147.1640625 403.102539062 1152.38085938 420.041992188 c 128,-1,40
 1157.59863281 436.981445312 1157.59863281 436.981445312 1157.73828125 455.576171875 c 0,41,42
 1157.94628906 536.06640625 1157.94628906 536.06640625 1097.35742188 577.966796875 c 0,43,44
 1059.3984375 604.110351562 1059.3984375 604.110351562 1006.98144531 604.573242188 c 0,27,28
EndSplineSet
Substitution2: "'fina' Terminal Forms in Arabic lookup 9 subtable" uniFEC2
Substitution2: "'medi' Medial Forms in Arabic lookup 11 subtable" uniFEC4
Substitution2: "'init' Initial Forms in Arabic lookup 13 subtable" uniFEC3
EndChar

StartChar: uni0639
Encoding: 1593 1593 33
GlifName: uni0639
Width: 1330
VWidth: 2992
GlyphClass: 2
Flags: W
AnchorPoint: "Anchor-7" 580.833 -770.619 basechar 0
AnchorPoint: "Anchor-10" 723.478 1406.07 basechar 0
LayerCount: 2
Fore
SplineSet
652.064453125 546.64453125 m 1,0,1
 819.3359375 574.0234375 819.3359375 574.0234375 941.010742188 574.546875 c 0,2,3
 1037.18359375 575.010742188 1037.18359375 575.010742188 1128.28710938 564.590820312 c 2,4,-1
 1168.54882812 559.985351562 l 1,5,-1
 1163.41992188 519.786132812 l 1,6,-1
 1141.06738281 344.625976562 l 1,7,-1
 1136.43359375 308.317382812 l 1,8,-1
 1099.85742188 309.71875 l 2,9,10
 1014.78515625 312.978515625 1014.78515625 312.978515625 986.146484375 312.188476562 c 0,11,12
 640.442382812 302.366210938 640.442382812 302.366210938 477.787109375 197.5703125 c 128,-1,13
 315.131835938 92.7744140625 315.131835938 92.7744140625 315.240234375 -104.857421875 c 0,14,15
 315.091796875 -322.86328125 315.091796875 -322.86328125 537.489257812 -387.9921875 c 0,16,17
 641.407226562 -418.071289062 641.407226562 -418.071289062 795.2890625 -418.266601562 c 0,18,19
 993.951171875 -418.01171875 993.951171875 -418.01171875 1186.13671875 -326.642578125 c 2,20,-1
 1232.39746094 -304.649414062 l 1,21,-1
 1242.52246094 -354.861328125 l 1,22,-1
 1278.58203125 -533.6875 l 1,23,-1
 1284.67578125 -563.909179688 l 1,24,-1
 1257.00195312 -577.499023438 l 2,25,26
 1050.27148438 -679.009765625 1050.27148438 -679.009765625 783.040039062 -678.733398438 c 0,27,28
 432.869140625 -678.87109375 432.869140625 -678.87109375 248.928710938 -536.109375 c 128,-1,29
 64.98828125 -393.34765625 64.98828125 -393.34765625 64.9755859375 -112.30859375 c 0,30,31
 64.9873046875 81.1708984375 64.9873046875 81.1708984375 149.848632812 224.094726562 c 128,-1,32
 234.709960938 367.017578125 234.709960938 367.017578125 400.171875 452.586914062 c 1,33,34
 351.349609375 519.051757812 351.349609375 519.051757812 326.633789062 589.76171875 c 128,-1,35
 301.91796875 660.470703125 301.91796875 660.470703125 301.84375 735.095703125 c 0,36,37
 302.017578125 811.616210938 302.017578125 811.616210938 332.177734375 888.420898438 c 0,38,39
 361.715820312 961.963867188 361.715820312 961.963867188 420.62109375 1024.23632812 c 0,40,41
 533.76171875 1144 533.76171875 1144 734 1144 c 0,42,43
 899.380859375 1144 899.380859375 1144 1088.2578125 1014.68652344 c 2,44,-1
 1115.890625 995.767578125 l 1,45,-1
 1102.12597656 965.239257812 l 1,46,-1
 1034.77734375 815.866210938 l 1,47,-1
 1016.37597656 775.053710938 l 1,48,-1
 977.884765625 797.916992188 l 2,49,50
 838.05078125 880.979492188 838.05078125 880.979492188 743.950195312 880.802734375 c 0,51,52
 637.610351562 880.965820312 637.610351562 880.965820312 590.063476562 801.83203125 c 0,53,54
 566.044921875 762.76171875 566.044921875 762.76171875 566.20703125 722.154296875 c 0,55,56
 566.04296875 686.237304688 566.04296875 686.237304688 585.396484375 646.977539062 c 0,57,58
 603.33984375 610.828125 603.33984375 610.828125 652.064453125 546.64453125 c 1,0,1
EndSplineSet
Substitution2: "'fina' Terminal Forms in Arabic lookup 9 subtable" uniFECA
Substitution2: "'medi' Medial Forms in Arabic lookup 11 subtable" uniFECC
Substitution2: "'init' Initial Forms in Arabic lookup 13 subtable" uniFECB
EndChar

StartChar: afii57440
Encoding: 1600 1600 35
GlifName: afii57440
Width: 286
VWidth: 2992
GlyphClass: 2
Flags: W
AnchorPoint: "Anchor-10" 143.774 1416.11 basechar 0
AnchorPoint: "Anchor-7" 147.7 -194.739 basechar 0
LayerCount: 2
Fore
SplineSet
-6.9384765625 0 m 2,0,1
 -56.1552734375 0 -56.1552734375 0 -80.466796875 37.21484375 c 128,-1,2
 -104.778320312 74.4287109375 -104.778320312 74.4287109375 -104.778320312 128.313476562 c 2,3,-1
 -104.778320312 147.134765625 l 2,4,5
 -104.920898438 196.392578125 -104.920898438 196.392578125 -79.5078125 230.1953125 c 128,-1,6
 -54.095703125 263.999023438 -54.095703125 263.999023438 -6.9384765625 263.999023438 c 2,7,-1
 294.642578125 263.999023438 l 2,8,9
 354.771484375 264.003798605 354.771484375 264.003798605 354.771484375 147.174804688 c 6,10,-1
 354.771484375 128.376953125 l 2,11,12
 355.087061939 5.68434188608e-13 355.087061939 5.68434188608e-13 294.69140625 0 c 2,13,-1
 -6.9384765625 0 l 2,0,1
EndSplineSet
EndChar

StartChar: uni0643
Encoding: 1603 1603 38
GlifName: uni0643
Width: 1971
VWidth: 2992
GlyphClass: 2
Flags: W
AnchorPoint: "Anchor-7" 750.268 -196.468 basechar 0
AnchorPoint: "Anchor-10" 978.11 1492.05 basechar 0
LayerCount: 2
Fore
SplineSet
940.491210938 264.215820312 m 0,0,1
 986 264 986 264 1037.12109375 266.712890625 c 0,2,3
 1089 269 1089 269 1146.03222656 274.639648438 c 0,4,5
 1381 296 1381 296 1487.56152344 380.125 c 0,6,7
 1591.82910156 461.866023423 1591.82910156 461.866023423 1591.82910156 581.591796875 c 6,8,-1
 1591.82910156 1364.56640625 l 5,9,-1
 1591.82910156 1404.56640625 l 5,10,-1
 1631.82910156 1404.56640625 l 5,11,-1
 1809.70996094 1404.56640625 l 5,12,-1
 1849.70996094 1404.56640625 l 5,13,-1
 1849.70996094 1364.56640625 l 5,14,-1
 1849.70996094 584.360351562 l 6,15,16
 1850 328 1850 328 1668.07519531 177.345703125 c 0,17,18
 1455 0 1455 0 942.133789062 0 c 0,19,20
 438 0 438 0 242.124023438 143.46484375 c 0,21,22
 60 276 60 276 59.1611328125 544.438476562 c 0,23,24
 59.0005561015 686.507991737 59.0005561015 686.507991737 109.12109375 799.057617188 c 2,25,-1
 125.24609375 835.267578125 l 1,26,-1
 161.6015625 819.473632812 l 1,27,-1
 319.373046875 750.928710938 l 1,28,-1
 354.610351562 735.619140625 l 1,29,-1
 340.733398438 699.79296875 l 2,30,31
 317 639 317 639 318.450195312 557.395507812 c 0,32,33
 320 415 320 415 421.810546875 351.442382812 c 0,34,35
 558 266 558 266 940.491210938 264.215820312 c 0,0,1
720.405273438 781.7890625 m 6,36,37
 753.597793656 778.246876188 753.597793656 778.246876188 806.13671875 774.252929688 c 4,38,39
 846 772 846 772 878.805664062 771.265625 c 4,40,41
 977 771 977 771 1023.29492188 789.899414062 c 4,42,43
 1036 795 1036 795 1042.45214844 800.510742188 c 132,-1,44
 1049 806 1049 806 1050.81933594 810.497070312 c 4,45,46
 1053 815 1053 815 1052.75 822.112304688 c 4,47,48
 1053 836 1053 836 1049.09082031 844.416015625 c 4,49,50
 1044 855 1044 855 1036.29492188 860.077148438 c 4,51,52
 1031 864 1031 864 1025.01269531 868.061523438 c 132,-1,53
 1019 872 1019 872 1010.05664062 875.137695312 c 4,54,55
 1001 879 1001 879 990.159179688 881.254882812 c 4,56,57
 979 884 979 884 965.337890625 885.865234375 c 4,58,59
 847 904 847 904 782.764648438 968.846679688 c 4,60,61
 719 1034 719 1034 720.94140625 1139.41796875 c 4,62,63
 727.005863026 1382.23475162 727.005863026 1382.23475162 1150.671875 1413.44433594 c 6,64,-1
 1193.61035156 1416.60742188 l 5,65,-1
 1193.61035156 1373.55273438 l 5,66,-1
 1193.61035156 1244.98925781 l 5,67,-1
 1193.61035156 1208.51464844 l 5,68,-1
 1157.29101562 1205.15917969 l 6,69,70
 1111 1201 1111 1201 1064.39746094 1192.375 c 4,71,72
 1023 1184 1023 1184 999.68359375 1176.04980469 c 4,73,74
 976 1168 976 1168 960.493164062 1158.52734375 c 132,-1,75
 945 1149 945 1149 939.530273438 1142.54296875 c 132,-1,76
 934 1136 934 1136 934.139648438 1130.43847656 c 4,77,78
 934 1090 934 1090 1038.98535156 1074.29394531 c 4,79,80
 1147 1058 1147 1058 1206.56152344 993.454101562 c 132,-1,81
 1266 929 1266 929 1265.36425781 826.006835938 c 4,82,83
 1265 755 1265 755 1229.04980469 698.333007812 c 4,84,85
 1193 642 1193 642 1125.59375 605.145507812 c 4,86,87
 1041 559 1041 559 896.008789062 559.088867188 c 4,88,89
 812.943801996 558.999939836 812.943801996 558.999939836 710.075195312 574.83203125 c 6,90,-1
 676.16015625 580.051757812 l 5,91,-1
 676.16015625 614.366210938 l 5,92,-1
 676.16015625 742.014648438 l 5,93,-1
 676.16015625 786.510742188 l 5,94,-1
 720.405273438 781.7890625 l 6,36,37
EndSplineSet
Substitution2: "'fina' Terminal Forms in Arabic lookup 9 subtable" uniFEDA
Substitution2: "'medi' Medial Forms in Arabic lookup 11 subtable" uniFEDC
Substitution2: "'init' Initial Forms in Arabic lookup 13 subtable" uniFEDB
EndChar

StartChar: uni0644
Encoding: 1604 1604 39
GlifName: uni0644
Width: 1441
VWidth: 2992
GlyphClass: 2
Flags: W
AnchorPoint: "Anchor-7" 681.902 -716.086 basechar 0
AnchorPoint: "Anchor-10" 593.908 1211.66 basechar 0
LayerCount: 2
Fore
SplineSet
1072.60449219 139.880859375 m 2,0,-1
 1075.91699219 1368.09179688 l 5,1,-1
 1076.015625 1407.99316406 l 5,2,-1
 1115.91699219 1407.99316406 l 5,3,-1
 1287.88574219 1407.99316406 l 5,4,-1
 1327.91015625 1407.99316406 l 5,5,-1
 1327.88574219 1367.96875 l 5,6,-1
 1327.18554688 339.270507812 l 2,7,8
 1327 197 1327 197 1317.74902344 65.5185546875 c 0,9,10
 1296 -222 1296 -222 1133.94921875 -371.122070312 c 0,11,12
 972 -520 972 -520 681.4296875 -519.734375 c 0,13,14
 378 -520 378 -520 219.685546875 -366.990234375 c 0,15,16
 62 -214 62 -214 62.740234375 80.833984375 c 0,17,18
 63 186 63 186 84.2939453125 289.541992188 c 0,19,20
 106.118528686 395.575866932 106.118528686 395.575866932 149.284179688 501.560546875 c 2,21,-1
 164.435546875 538.76171875 l 1,22,-1
 201.572265625 523.454101562 l 1,23,-1
 360.096679688 458.114257812 l 1,24,-1
 396.471679688 443.122070312 l 1,25,-1
 382.08203125 406.50390625 l 2,26,27
 318 243 318 243 318.24609375 78.2021484375 c 0,28,29
 318 -98 318 -98 405.7109375 -180.333984375 c 0,30,31
 493 -263 493 -263 681.786132812 -263.2265625 c 0,32,33
 882 -263 882 -263 977.353515625 -165.458984375 c 0,34,35
 1072 -68 1072 -68 1072.60449219 139.880859375 c 2,0,-1
EndSplineSet
Substitution2: "'fina' Terminal Forms in Arabic lookup 9 subtable" uniFEDE
Substitution2: "'medi' Medial Forms in Arabic lookup 11 subtable" uniFEE0
Substitution2: "'init' Initial Forms in Arabic lookup 13 subtable" uniFEDF
EndChar

StartChar: uni0645
Encoding: 1605 1605 40
GlifName: uni0645
Width: 1242
VWidth: 2662
GlyphClass: 2
Flags: W
AnchorPoint: "Anchor-7" 724.983 -276.909 basechar 0
AnchorPoint: "Anchor-10" 769.239 1174.48 basechar 0
LayerCount: 2
Fore
SplineSet
842.154296875 238 m 0,0,1
 875.946289062 237.740234375 875.946289062 237.740234375 895.067382812 246.678710938 c 128,-1,2
 914.188476562 255.6171875 914.188476562 255.6171875 923.155273438 276.891601562 c 128,-1,3
 932.122070312 298.166992188 932.122070312 298.166992188 932.35546875 336.271484375 c 0,4,5
 931.65625 362.2421875 931.65625 362.2421875 926.926757812 385.907226562 c 128,-1,6
 922.197265625 409.573242188 922.197265625 409.573242188 913.352539062 431.993164062 c 0,7,8
 901.541992188 461.091796875 901.541992188 461.091796875 884.946289062 479.327148438 c 128,-1,9
 868.350585938 497.5625 868.350585938 497.5625 845.409179688 506.513671875 c 128,-1,10
 822.467773438 515.46484375 822.467773438 515.46484375 791.158203125 516.009765625 c 0,11,12
 692.166992188 517.463867188 692.166992188 517.463867188 628.708984375 360.682617188 c 1,13,14
 666.138671875 329.127929688 666.138671875 329.127929688 700.33984375 304.955078125 c 128,-1,15
 734.540039062 280.78125 734.540039062 280.78125 761.096679688 266.49609375 c 128,-1,16
 787.653320312 252.211914062 787.653320312 252.211914062 808 245.10546875 c 128,-1,17
 828.346679688 238 828.346679688 238 842.154296875 238 c 0,0,1
1183.39257812 349.009765625 m 0,18,19
 1183 194 1183 194 1106.74511719 90.3798828125 c 0,20,21
 1024 -23 1024 -23 851.991210938 -23.1376953125 c 0,22,23
 739 -23 739 -23 585.934570312 70.529296875 c 0,24,25
 539 99 539 99 485.970703125 126.380859375 c 0,26,27
 465.413342634 137.203079381 465.413342634 137.203079381 429.185546875 137.75390625 c 0,28,29
 413 138 413 138 397.190429688 123.486328125 c 0,30,31
 382 109 382 109 366.579101562 75.4892578125 c 128,-1,32
 351 42 351 42 340.327148438 -9.07421875 c 0,33,34
 329 -60 329 -60 322.393554688 -134.274902344 c 0,35,36
 316 -209 316 -209 315.751953125 -297.94921875 c 4,37,38
 316.000343161 -492.26845978 316.000343161 -492.26845978 329.666992188 -651.390625 c 6,39,-1
 333.396484375 -694.813476562 l 5,40,-1
 289.813476562 -694.813476562 l 5,41,-1
 110.231445312 -694.813476562 l 5,42,-1
 72.7255859375 -694.813476562 l 5,43,-1
 70.314453125 -657.385742188 l 6,44,45
 58 -466 58 -466 59.0625 -293.713867188 c 4,46,47
 62 59 62 59 142.340820312 217.123046875 c 0,48,49
 223 375 223 375 363.782226562 407.8984375 c 1,50,51
 520 784 520 784 788.727539062 785.381835938 c 0,52,53
 878 786 878 786 951.094726562 752.671875 c 0,54,55
 1024 720 1024 720 1077.92285156 654.373046875 c 0,56,57
 1183 526 1183 526 1183.39257812 349.009765625 c 0,18,19
EndSplineSet
Substitution2: "'init' Initial Forms in Arabic lookup 13 subtable" uniFEE3
Substitution2: "'medi' Medial Forms in Arabic lookup 11 subtable" uniFEE4
Substitution2: "'fina' Terminal Forms in Arabic lookup 9 subtable" uniFEE2
EndChar

StartChar: uni0647
Encoding: 1607 1607 42
GlifName: uni0647
Width: 942
VWidth: 2992
GlyphClass: 2
Flags: W
AnchorPoint: "Anchor-10" 424.775 1251.01 basechar 0
AnchorPoint: "Anchor-7" 450.63 -200.576 basechar 0
LayerCount: 2
Fore
SplineSet
463.1328125 631.505859375 m 1,0,1
 385.611328125 559.6171875 385.611328125 559.6171875 348.76953125 498.889648438 c 128,-1,2
 311.927734375 438.161132812 311.927734375 438.161132812 311.884765625 390.985351562 c 0,3,4
 311.907226562 357.7265625 311.907226562 357.7265625 320.203125 334.561523438 c 128,-1,5
 328.499023438 311.396484375 328.499023438 311.396484375 347.545898438 295.247070312 c 128,-1,6
 366.591796875 279.098632812 366.591796875 279.098632812 398.016601562 271.545898438 c 128,-1,7
 429.442382812 263.994140625 429.442382812 263.994140625 475.34375 263.9921875 c 0,8,9
 566.467773438 263.99609375 566.467773438 263.99609375 603.56640625 294.447265625 c 128,-1,10
 640.666015625 324.8984375 640.666015625 324.8984375 640.423828125 392.00390625 c 0,11,12
 640.276367188 433.005859375 640.276367188 433.005859375 596.317382812 494.984375 c 128,-1,13
 552.358398438 556.963867188 552.358398438 556.963867188 463.1328125 631.505859375 c 1,0,1
407.303710938 1019.69140625 m 2,14,15
 647.276367188 843.860351562 647.276367188 843.860351562 769.091796875 687.264648438 c 128,-1,16
 890.908203125 530.66796875 890.908203125 530.66796875 890.791992188 386.3828125 c 0,17,18
 891.024414062 174.791992188 891.024414062 174.791992188 707.432617188 60.5625 c 0,19,20
 618.577148438 5.0703125 618.577148438 5.0703125 476.206054688 4.1943359375 c 0,21,22
 345.583007812 3.984375 345.583007812 3.984375 251.565429688 51.0205078125 c 0,23,24
 157.260742188 98.1591796875 157.260742188 98.1591796875 109.21484375 183.623046875 c 128,-1,25
 61.16796875 269.087890625 61.16796875 269.087890625 61.3681640625 385.787109375 c 0,26,27
 60.99609375 595.102539062 60.99609375 595.102539062 270.522460938 812.590820312 c 1,28,-1
 257.590820312 823.95703125 l 1,29,-1
 229.848632812 848.34375 l 1,30,-1
 251.953125 877.9375 l 1,31,-1
 351.615234375 1011.36328125 l 1,32,-1
 375.333007812 1043.11621094 l 1,33,-1
 407.303710938 1019.69140625 l 2,14,15
EndSplineSet
Substitution2: "'fina' Terminal Forms in Arabic lookup 9 subtable" uniFEEA
Substitution2: "'medi' Medial Forms in Arabic lookup 11 subtable" uniFEEC
Substitution2: "'init' Initial Forms in Arabic lookup 13 subtable" uniFEEB
EndChar

StartChar: uni0648
Encoding: 1608 1608 43
GlifName: uni0648
Width: 890
VWidth: 2184
GlyphClass: 2
Flags: W
AnchorPoint: "Anchor-7" 382.969 -627.998 basechar 0
AnchorPoint: "Anchor-10" 443.256 1152.2 basechar 0
LayerCount: 2
Fore
SplineSet
578.1953125 271.143554688 m 5,0,1
 571.436523438 343.947265625 571.436523438 343.947265625 557.447265625 396.107421875 c 132,-1,2
 543.45703125 448.268554688 543.45703125 448.268554688 523.361328125 478.133789062 c 132,-1,3
 503.264648438 508 503.264648438 508 479.772460938 521.551757812 c 132,-1,4
 456.280273438 535.103515625 456.280273438 535.103515625 427.416992188 535.124023438 c 4,5,6
 404.865234375 535.094726562 404.865234375 535.094726562 387.693359375 526.852539062 c 132,-1,7
 370.522460938 518.610351562 370.522460938 518.610351562 355.286132812 497.719726562 c 132,-1,8
 340.048828125 476.830078125 340.048828125 476.830078125 328.299804688 442.059570312 c 4,9,10
 312.021484375 394.418945312 312.021484375 394.418945312 312.159179688 352.60546875 c 4,11,12
 312.1015625 303.122070312 312.1015625 303.122070312 346.25390625 279.436523438 c 132,-1,13
 380.405273438 255.750976562 380.405273438 255.750976562 468.641601562 256.362304688 c 4,14,15
 521.318359375 256.821289062 521.318359375 256.821289062 578.1953125 271.143554688 c 5,0,1
468.30078125 -2.1884765625 m 4,16,17
 274 -2 274 -2 168.393554688 84.61328125 c 4,18,19
 63 171 63 171 63.0048828125 338.3515625 c 4,20,21
 63 468 63 468 118.57421875 584.715820312 c 4,22,23
 170 692 170 692 251.204101562 747.811523438 c 4,24,25
 333 804 333 804 439.120117188 804.077148438 c 4,26,27
 516 804 516 804 579.040039062 774.217773438 c 4,28,29
 642 744 642 744 689.625976562 687.80859375 c 4,30,31
 737 631 737 631 768.307617188 549.33984375 c 4,32,33
 832 384 832 384 830.83203125 179.899414062 c 4,34,35
 829 -125 829 -125 644.720703125 -299.591796875 c 4,36,37
 461.399414062 -473.62109375 461.399414062 -473.62109375 107.39453125 -509.954101562 c 6,38,-1
 72.912109375 -513.493164062 l 5,39,-1
 64.5048828125 -479.864257812 l 5,40,-1
 21.9296875 -309.563476562 l 5,41,-1
 10.7353515625 -264.78515625 l 5,42,-1
 56.650390625 -260.071289062 l 6,43,44
 453 -219 453 -219 560.5703125 5.431640625 c 5,45,46
 530 1 530 1 501.330078125 -0.3388671875 c 4,47,48
 481 -2 481 -2 468.30078125 -2.1884765625 c 4,16,17
EndSplineSet
Substitution2: "'fina' Terminal Forms in Arabic lookup 9 subtable" uniFEEE
EndChar

StartChar: uni0649
Encoding: 1609 1609 44
GlifName: uni0649
Width: 1504
VWidth: 2992
GlyphClass: 2
Flags: MW
AnchorPoint: "Anchor-7" 671.902 -676.086 basechar 0
AnchorPoint: "Anchor-10" 727.6 996.22 basechar 0
LayerCount: 2
Fore
SplineSet
318.268554688 81.2451171875 m 0,0,1
 318.147460938 -82.9111328125 318.147460938 -82.9111328125 419.5 -162.876953125 c 128,-1,2
 520.852539062 -242.842773438 520.852539062 -242.842773438 741.02734375 -243.607421875 c 0,3,4
 910.192382812 -243.98046875 910.192382812 -243.98046875 1042.14746094 -182.586914062 c 0,5,6
 1075.47265625 -167.127929688 1075.47265625 -167.127929688 1104.37304688 -146.733398438 c 128,-1,7
 1133.2734375 -126.33984375 1133.2734375 -126.33984375 1158.18457031 -100.743164062 c 0,8,9
 1201.95605469 -55.7880859375 1201.95605469 -55.7880859375 1201.80761719 -0.3525390625 c 0,10,11
 1201.86432412 16.7838583881 1201.86432412 16.7838583881 1163.32617188 17.015625 c 2,12,-1
 1050.17382812 17.6943359375 l 2,13,14
 914.110351562 18.4072265625 914.110351562 18.4072265625 837.512695312 79.4716796875 c 128,-1,15
 760.9140625 140.537109375 760.9140625 140.537109375 760.791992188 256.796875 c 0,16,17
 761.017578125 461.5703125 761.017578125 461.5703125 891.521484375 604.037109375 c 0,18,19
 947.18359375 664.7265625 947.18359375 664.7265625 1018.453125 705.25 c 128,-1,20
 1089.72363281 745.772460938 1089.72363281 745.772460938 1174.2734375 765.661132812 c 128,-1,21
 1258.82421875 785.549804688 1258.82421875 785.549804688 1357 785.549804688 c 2,22,-1
 1378.37597656 785.549804688 l 1,23,-1
 1418.43945312 785.549804688 l 1,24,-1
 1418.37597656 745.486328125 l 1,25,-1
 1418.0703125 552.676757812 l 1,26,-1
 1418.00683594 512.740234375 l 1,27,-1
 1378.0703125 512.740234375 l 1,28,-1
 1355.96777344 512.740234375 l 2,29,30
 1334.4375 512.775390625 1334.4375 512.775390625 1314.09375 511.415039062 c 128,-1,31
 1293.75097656 510.053710938 1293.75097656 510.053710938 1274.77929688 507.338867188 c 128,-1,32
 1255.80664062 504.623046875 1255.80664062 504.623046875 1237.95605469 500.537109375 c 128,-1,33
 1220.10546875 496.452148438 1220.10546875 496.452148438 1203.5546875 491.07421875 c 128,-1,34
 1187.00390625 485.697265625 1187.00390625 485.697265625 1171.50878906 478.97265625 c 128,-1,35
 1156.01269531 472.248046875 1156.01269531 472.248046875 1141.74609375 464.294921875 c 128,-1,36
 1127.47949219 456.340820312 1127.47949219 456.340820312 1114.20214844 447.06640625 c 0,37,38
 1023.70117188 383.92578125 1023.70117188 383.92578125 1022.4296875 295.421875 c 0,39,40
 1022.19564758 279.166275943 1022.19564758 279.166275943 1051.93359375 279.215820312 c 2,41,-1
 1170.97753906 279.413085938 l 2,42,43
 1301.49023438 279.736328125 1301.49023438 279.736328125 1374.81835938 218.181640625 c 128,-1,44
 1448.14648438 156.626953125 1448.14648438 156.626953125 1448.3515625 40.1474609375 c 0,45,46
 1448.16210938 -116.224609375 1448.16210938 -116.224609375 1368.91308594 -232.163085938 c 128,-1,47
 1289.66503906 -348.102539062 1289.66503906 -348.102539062 1136.63671875 -418.0859375 c 0,48,49
 959.731445312 -498.991210938 959.731445312 -498.991210938 735.999023438 -499.208984375 c 0,50,51
 407.366210938 -499.100585938 407.366210938 -499.100585938 235.126953125 -353.002929688 c 128,-1,52
 62.8876953125 -206.904296875 62.8876953125 -206.904296875 62.76171875 78.0205078125 c 0,53,54
 63.0087890625 324.506835938 63.0087890625 324.506835938 195.923828125 623.584960938 c 2,55,-1
 211.731445312 659.155273438 l 1,56,-1
 247.719726562 644.321289062 l 1,57,-1
 406.243164062 578.981445312 l 1,58,-1
 444.150390625 563.357421875 l 1,59,-1
 427.59375 525.84765625 l 2,60,61
 318.010742188 277.58984375 318.010742188 277.58984375 318.268554688 81.2451171875 c 0,0,1
EndSplineSet
Substitution2: "'fina' Terminal Forms in Arabic lookup 9 subtable" uniFEF0
Substitution2: "'medi' Medial Forms in Arabic lookup 11 subtable" uniFBE9
Substitution2: "'init' Initial Forms in Arabic lookup 13 subtable" uniFBE8
EndChar

StartChar: uni064B
Encoding: 1611 1611 46
GlifName: uni064B_
Width: -26
VWidth: 2316
GlyphClass: 4
Flags: W
AnchorPoint: "Anchor-10" 593.551 1113.65 mark 0
AnchorPoint: "Anchor-9" 593.551 1113.65 mark 0
AnchorPoint: "Anchor-1" 553.285 1596.25 basemark 0
AnchorPoint: "Anchor-1" 593.551 1113.65 mark 0
LayerCount: 2
Fore
SplineSet
306.700195312 1076.40039062 m 1,0,-1
 306.700195312 1179.97753906 l 1,1,-1
 306.700195312 1193.40453724 l 1,2,-1
 319.127502848 1198.48846364 l 1,3,-1
 774.526916911 1384.78924489 l 1,4,-1
 802.099609375 1396.06904453 l 1,5,-1
 802.099609375 1366.27832031 l 1,6,-1
 802.099609375 1262.70019531 l 1,7,-1
 802.099609375 1249.27317048 l 1,8,-1
 789.672267835 1244.18925682 l 1,9,-1
 334.272853772 1057.88945213 l 1,10,-1
 306.700195312 1046.60972552 l 1,11,-1
 306.700195312 1076.40039062 l 1,0,-1
306.700195312 1288.40039062 m 1,12,-1
 306.700195312 1391.97753906 l 1,13,-1
 306.700195312 1405.40453724 l 1,14,-1
 319.127502848 1410.48846364 l 1,15,-1
 774.526916911 1596.78924489 l 1,16,-1
 802.099609375 1608.06904453 l 1,17,-1
 802.099609375 1578.27832031 l 1,18,-1
 802.099609375 1474.70019531 l 1,19,-1
 802.099609375 1461.27317048 l 1,20,-1
 789.672267835 1456.18925682 l 1,21,-1
 334.272853772 1269.88945213 l 1,22,-1
 306.700195312 1258.60972552 l 1,23,-1
 306.700195312 1288.40039062 l 1,12,-1
EndSplineSet
EndChar

StartChar: uni064C
Encoding: 1612 1612 47
GlifName: uni064C_
Width: -26
VWidth: 2316
GlyphClass: 4
Flags: W
AnchorPoint: "Anchor-10" 680.906 1218.67 mark 0
AnchorPoint: "Anchor-9" 680.906 1218.67 mark 0
AnchorPoint: "Anchor-1" 571.739 1915.46 basemark 0
AnchorPoint: "Anchor-1" 680.906 1218.67 mark 0
LayerCount: 2
Fore
SplineSet
602.965781921 1704.27878472 m 0,0,1
 587.92984442 1686.57151425 587.92984442 1686.57151425 587.714338414 1664.04635577 c 0,2,3
 587.927660765 1620.73609404 587.927660765 1620.73609404 641.333477362 1598.28248926 c 0,4,5
 659.941231424 1590.45916247 659.941231424 1590.45916247 697.963688251 1578.71152612 c 1,6,7
 715.0005202 1613.7360769 715.0005202 1613.7360769 715.001953129 1648.81991463 c 0,8,9
 715.001093866 1692.01336155 715.001093866 1692.01336155 700.678054019 1709.29349794 c 128,-1,10
 686.355014173 1726.57363433 686.355014173 1726.57363433 654.456781803 1726.29455327 c 0,11,12
 642.796151118 1726.21352245 642.796151118 1726.21352245 633.337128291 1723.68845481 c 128,-1,13
 623.878105465 1721.16338717 623.878105465 1721.16338717 616.512282258 1716.38371403 c 128,-1,14
 609.146459051 1711.60404089 609.146459051 1711.60404089 602.965781921 1704.27878472 c 0,0,1
338.79245354 1514.85068495 m 2,15,16
 339.820953164 1459.44429924 339.820953164 1459.44429924 347.950894291 1419.48424319 c 128,-1,17
 356.080835418 1379.52418714 356.080835418 1379.52418714 370.971809466 1355.40920199 c 128,-1,18
 385.862783513 1331.29421683 385.862783513 1331.29421683 405.922283632 1320.15455936 c 128,-1,19
 425.98178375 1309.0149019 425.98178375 1309.0149019 452.334326608 1309.27436257 c 0,20,21
 515.817606486 1309.91806142 515.817606486 1309.91806142 586.525952018 1378.40343036 c 0,22,23
 621.747281156 1413.15396672 621.747281156 1413.15396672 654.544288453 1472.12269185 c 1,24,-1
 650.859450759 1472.90468156 l 2,25,26
 597.901450887 1484.30573904 597.901450887 1484.30573904 560.791889454 1503.18113105 c 128,-1,27
 523.68232802 1522.05652305 523.68232802 1522.05652305 502.365248477 1549.97023345 c 0,28,29
 466 1598.3179852 466 1598.3179852 466 1655.09960938 c 0,30,31
 466 1661.90684396 466 1661.90684396 466.282773603 1668.42842026 c 128,-1,32
 466.565547207 1674.94999656 466.565547207 1674.94999656 467.13888085 1681.29165826 c 128,-1,33
 467.712214494 1687.63331996 467.712214494 1687.63331996 468.588431398 1693.71018208 c 128,-1,34
 469.464648302 1699.78704419 469.464648302 1699.78704419 470.642814211 1705.65430923 c 128,-1,35
 471.82098012 1711.52157427 471.82098012 1711.52157427 473.322720326 1717.14826783 c 128,-1,36
 474.824460532 1722.77496138 474.824460532 1722.77496138 476.639538709 1728.16237538 c 128,-1,37
 478.454616886 1733.54978938 478.454616886 1733.54978938 480.613960396 1738.72085999 c 128,-1,38
 482.773303905 1743.89193061 482.773303905 1743.89193061 485.257955731 1748.7974086 c 0,39,40
 509.695228609 1796.24705791 509.695228609 1796.24705791 551.684718297 1820.71726626 c 128,-1,41
 593.674207986 1845.18747461 593.674207986 1845.18747461 650.053096802 1845.41373512 c 0,42,43
 689.259716827 1845.73357593 689.259716827 1845.73357593 721.893387696 1834.06069263 c 128,-1,44
 754.527058566 1822.38780932 754.527058566 1822.38780932 779.101990916 1798.6502294 c 0,45,46
 832.962252401 1746.5117448 832.962252401 1746.5117448 833.38995226 1650.5743895 c 0,47,48
 833.664309731 1632.39468967 833.664309731 1632.39468967 829.799169473 1609.54252733 c 128,-1,49
 825.934029216 1586.690365 825.934029216 1586.690365 818.312446777 1559.75129358 c 1,50,-1
 822.920964441 1559.50932894 l 2,51,52
 851.686017165 1557.99162335 851.686017165 1557.99162335 880.822800982 1557.51687856 c 2,53,-1
 900.497070312 1557.19641041 l 1,54,-1
 900.497070312 1537.51953125 l 1,55,-1
 900.497070312 1459.00878906 l 1,56,-1
 900.497070312 1438.51327686 l 1,57,-1
 880.007694581 1439.01477717 l 2,58,59
 869.625064373 1439.26890362 869.625064373 1439.26890362 861.657862562 1439.50543828 c 128,-1,60
 853.690660752 1439.74197295 853.690660752 1439.74197295 847.124013491 1439.99675751 c 128,-1,61
 840.55736623 1440.25154208 840.55736623 1440.25154208 835.842348363 1440.52361057 c 128,-1,62
 831.127330497 1440.79567905 831.127330497 1440.79567905 827.976376867 1441.09865536 c 2,63,-1
 766.377654787 1447.0216094 l 1,64,65
 742.314519573 1392.81322489 742.314519573 1392.81322489 709.308021698 1348.03096518 c 128,-1,66
 676.301523823 1303.24870547 676.301523823 1303.24870547 633.160872962 1266.039942 c 0,67,68
 612.138356828 1247.61907766 612.138356828 1247.61907766 590.399009911 1233.64577448 c 128,-1,69
 568.659662993 1219.67247131 568.659662993 1219.67247131 546.193268625 1210.15942076 c 128,-1,70
 523.726874257 1200.6463702 523.726874257 1200.6463702 500.514818779 1195.81006201 c 128,-1,71
 477.302763301 1190.97375382 477.302763301 1190.97375382 453.73578323 1190.96388892 c 0,72,73
 350.336791628 1190.42714256 350.336791628 1190.42714256 297.99335455 1273.86353242 c 128,-1,74
 245.649917472 1357.29992228 245.649917472 1357.29992228 243.150000386 1514.16078942 c 2,75,-1
 242.826177923 1534.47949219 l 1,76,-1
 263.147460938 1534.47949219 l 1,77,-1
 318.795898438 1534.47949219 l 1,78,-1
 338.428087219 1534.47949219 l 1,79,-1
 338.79245354 1514.85068495 l 2,15,16
EndSplineSet
EndChar

StartChar: uni064D
Encoding: 1613 1613 48
GlifName: uni064D_
Width: -26
VWidth: 2316
GlyphClass: 4
Flags: W
AnchorPoint: "Anchor-7" 546.278 61.7109 mark 0
AnchorPoint: "Anchor-6" 546.278 61.7109 mark 0
AnchorPoint: "Anchor-0" 592.022 -407.025 basemark 0
AnchorPoint: "Anchor-0" 546.278 61.7109 mark 0
LayerCount: 2
Fore
SplineSet
312.099609375 -446 m 1,0,-1
 312.099609375 -342.422851562 l 1,1,-1
 312.099609375 -328.995842477 l 1,2,-1
 324.526930822 -323.91192129 l 1,3,-1
 779.927321447 -137.61114004 l 1,4,-1
 807.5 -126.331370278 l 1,5,-1
 807.5 -156.122070312 l 1,6,-1
 807.5 -259.700195312 l 1,7,-1
 807.5 -273.127231046 l 1,8,-1
 795.072644549 -278.211139495 l 1,9,-1
 339.672253924 -464.510944183 l 1,10,-1
 312.099609375 -475.790640907 l 1,11,-1
 312.099609375 -446 l 1,0,-1
312.099609375 -234 m 1,12,-1
 312.099609375 -130.422851562 l 1,13,-1
 312.099609375 -116.995842477 l 1,14,-1
 324.526930822 -111.91192129 l 1,15,-1
 779.927321447 74.3888599593 l 1,16,-1
 807.5 85.668629721 l 1,17,-1
 807.5 55.8779296875 l 1,18,-1
 807.5 -47.7001953125 l 1,19,-1
 807.5 -61.1272310468 l 1,20,-1
 795.072644549 -66.2111394951 l 1,21,-1
 339.672253924 -252.510944183 l 1,22,-1
 312.099609375 -263.790640907 l 1,23,-1
 312.099609375 -234 l 1,12,-1
EndSplineSet
EndChar

StartChar: uni064E
Encoding: 1614 1614 49
GlifName: uni064E_
Width: -26
VWidth: 2316
GlyphClass: 4
Flags: W
AnchorPoint: "Anchor-10" 581.66 1364.63 mark 0
AnchorPoint: "Anchor-9" 581.66 1364.63 mark 0
AnchorPoint: "Anchor-1" 541.396 1651.77 basemark 0
AnchorPoint: "Anchor-1" 581.66 1364.63 mark 0
LayerCount: 2
Fore
SplineSet
276.099609375 1349.09960938 m 1,0,-1
 276.099609375 1452.67773438 l 1,1,-1
 276.099609375 1466.10474347 l 1,2,-1
 288.526930822 1471.18866465 l 1,3,-1
 743.927321447 1657.48944589 l 1,4,-1
 771.5 1668.76921565 l 1,5,-1
 771.5 1638.97851562 l 1,6,-1
 771.5 1535.40039062 l 1,7,-1
 771.5 1521.97338153 l 1,8,-1
 759.072678553 1516.88946035 l 1,9,-1
 303.672287928 1330.58867911 l 1,10,-1
 276.099609375 1319.30890935 l 1,11,-1
 276.099609375 1349.09960938 l 1,0,-1
EndSplineSet
EndChar

StartChar: uni064F
Encoding: 1615 1615 50
GlifName: uni064F_
Width: -26
VWidth: 2316
GlyphClass: 4
Flags: W
AnchorPoint: "Anchor-10" 591.295 1299.37 mark 0
AnchorPoint: "Anchor-9" 591.295 1299.37 mark 0
AnchorPoint: "Anchor-1" 570.134 1910.4 basemark 0
AnchorPoint: "Anchor-1" 591.295 1299.37 mark 0
LayerCount: 2
Fore
SplineSet
812.652987786 1444.00195313 m 2,0,1
 781.932771719 1444.00195313 781.932771719 1444.00195313 756.715299324 1445.2788364 c 128,-1,2
 731.497826929 1446.55571968 731.497826929 1446.55571968 711.420460817 1449.16704819 c 2,3,-1
 691.908905908 1451.70478543 l 1,4,5
 647.893810291 1392.5588199 647.893810291 1392.5588199 591.577465729 1351.85415033 c 128,-1,6
 535.261121166 1311.14948075 535.261121166 1311.14948075 467.390492147 1288.99002066 c 128,-1,7
 399.519863127 1266.83056056 399.519863127 1266.83056056 319.606965964 1262.69855697 c 2,8,-1
 298.57421875 1261.61103055 l 1,9,-1
 298.57421875 1282.671875 l 1,10,-1
 298.57421875 1360.92578125 l 1,11,-1
 298.57421875 1380.07831789 l 1,12,-1
 317.708817358 1380.90704949 l 2,13,14
 398.017187932 1384.38525592 398.017187932 1384.38525592 458.47799713 1410.65649735 c 128,-1,15
 518.938806327 1436.92773877 518.938806327 1436.92773877 561.404015451 1485.81068319 c 1,16,17
 529.581734353 1496.02021914 529.581734353 1496.02021914 496.835829759 1513.94881352 c 0,18,19
 399.965750351 1568.30861702 399.965750351 1568.30861702 400.250340051 1665.6983251 c 0,20,21
 401.083224132 1737.2677939 401.083224132 1737.2677939 440.780575366 1785.54779067 c 0,22,23
 492.611332206 1848.00463179 492.611332206 1848.00463179 582.957581869 1847.95995664 c 0,24,25
 605.346918715 1847.97464545 605.346918715 1847.97464545 626.060448395 1843.49414668 c 128,-1,26
 646.773978076 1839.01364791 646.773978076 1839.01364791 665.684863313 1830.00216357 c 128,-1,27
 684.595748549 1820.99067923 684.595748549 1820.99067923 701.254416801 1807.57758412 c 0,28,29
 719.451951344 1792.92445202 719.451951344 1792.92445202 732.794584726 1774.53557368 c 128,-1,30
 746.137218108 1756.14669533 746.137218108 1756.14669533 754.485652544 1734.16906693 c 0,31,32
 766.047704879 1702.39460598 766.047704879 1702.39460598 765.544635239 1665.17178007 c 0,33,34
 765.313114882 1640.40365778 765.313114882 1640.40365778 760.776604042 1614.76113484 c 128,-1,35
 756.240093203 1589.1186119 756.240093203 1589.1186119 747.78529323 1563.86933262 c 1,36,37
 782.624940257 1561.15263048 782.624940257 1561.15263048 811.890853359 1562.26772461 c 2,38,-1
 832.65234375 1563.05878198 l 1,39,-1
 832.65234375 1542.28222656 l 1,40,-1
 832.65234375 1464.00195312 l 1,41,-1
 832.65234375 1444.00259715 l 1,42,-1
 812.652987786 1444.00195313 l 2,0,1
628.5669323 1583.84846785 m 1,43,44
 647.018922857 1627.0277168 647.018922857 1627.0277168 647.158057799 1663.71639858 c 0,45,46
 647.036288168 1695.49225893 647.036288168 1695.49225893 629.224804535 1710.0641485 c 0,47,48
 609.436634505 1727.11622215 609.436634505 1727.11622215 586.666954964 1727.47352414 c 0,49,50
 551.78136017 1727.88363076 551.78136017 1727.88363076 533.300002656 1703.76762355 c 0,51,52
 526.605085252 1694.95654414 526.605085252 1694.95654414 523.263093037 1684.6889661 c 128,-1,53
 519.921100822 1674.42138807 519.921100822 1674.42138807 519.868283389 1662.01281247 c 0,54,55
 519.913899472 1645.74104875 519.913899472 1645.74104875 532.436738622 1631.04534634 c 128,-1,56
 544.959577772 1616.34964392 544.959577772 1616.34964392 574.121871334 1602.94814129 c 0,57,58
 591.908567093 1594.69771302 591.908567093 1594.69771302 628.5669323 1583.84846785 c 1,43,44
EndSplineSet
EndChar

StartChar: uni0650
Encoding: 1616 1616 51
GlifName: uni0650
Width: -26
VWidth: 2316
GlyphClass: 4
Flags: W
AnchorPoint: "Anchor-7" 571.144 -44.8242 mark 0
AnchorPoint: "Anchor-6" 571.144 -44.8242 mark 0
AnchorPoint: "Anchor-0" 619.091 -324.624 basemark 0
AnchorPoint: "Anchor-0" 571.144 -44.8242 mark 0
LayerCount: 2
Fore
SplineSet
322.900390625 -345.599609375 m 1,0,-1
 322.900390625 -242.022460938 l 1,1,-1
 322.900390625 -228.595462755 l 1,2,-1
 335.327698161 -223.511536357 l 1,3,-1
 790.727112224 -37.2107551065 l 1,4,-1
 818.299804688 -25.9309554655 l 1,5,-1
 818.299804688 -55.7216796875 l 1,6,-1
 818.299804688 -159.299804688 l 1,7,-1
 818.299804688 -172.72682952 l 1,8,-1
 805.872463148 -177.81074318 l 1,9,-1
 350.473049085 -364.110547867 l 1,10,-1
 322.900390625 -375.39027447 l 1,11,-1
 322.900390625 -345.599609375 l 1,0,-1
EndSplineSet
EndChar

StartChar: uni0651
Encoding: 1617 1617 52
GlifName: uni0651
Width: -26
VWidth: 2393
GlyphClass: 4
Flags: W
AnchorPoint: "Anchor-10" 598.801 1463.71 mark 0
AnchorPoint: "Anchor-9" 598.801 1463.71 mark 0
AnchorPoint: "Anchor-1" 570.087 1849.1 basemark 0
AnchorPoint: "Anchor-1" 598.801 1463.71 mark 0
LayerCount: 2
Fore
SplineSet
628.403416837 1769.32195162 m 2,0,1
 630.195785149 1727.63191747 630.195785149 1727.63191747 630.623518614 1685.95902149 c 0,2,3
 630.435621922 1645.0773879 630.435621922 1645.0773879 641.624839251 1629.60168962 c 128,-1,4
 652.814056581 1614.12599134 652.814056581 1614.12599134 676.55866211 1614.25154114 c 0,5,6
 702.161551842 1614.45103586 702.161551842 1614.45103586 714.753653822 1632.33207817 c 128,-1,7
 727.345755802 1650.21312048 727.345755802 1650.21312048 727.62746464 1695.3119849 c 0,8,9
 727.885431276 1731.38032714 727.885431276 1731.38032714 711.52520403 1808.77272862 c 2,10,-1
 707.171165343 1829.36960084 l 1,11,-1
 727.964018473 1832.6629361 l 1,12,-1
 816.040190347 1846.61313141 l 1,13,-1
 833.499943997 1849.37854422 l 1,14,-1
 838.388860594 1832.39063675 l 2,15,16
 847.666099852 1800.15427539 847.666099852 1800.15427539 852.220230301 1768.19962108 c 128,-1,17
 856.774360749 1736.24496676 856.774360749 1736.24496676 856.527528468 1704.98447437 c 0,18,19
 856.775893765 1598.8190859 856.775893765 1598.8190859 814.978362452 1540.61877324 c 128,-1,20
 773.180831138 1482.41846058 773.180831138 1482.41846058 690.5612364 1481.66667791 c 0,21,22
 634.294536723 1481.25712523 634.294536723 1481.25712523 592.231670009 1517.51060067 c 1,23,24
 549.71714665 1418.19046241 549.71714665 1418.19046241 431.987901918 1417.88958965 c 0,25,26
 355.934928667 1418.06455687 355.934928667 1418.06455687 315.840294704 1467.18562589 c 128,-1,27
 275.74566074 1516.30669491 275.74566074 1516.30669491 274.305041602 1606.1962176 c 0,28,29
 273.35941966 1668.44556848 273.35941966 1668.44556848 287.791201092 1721.03408976 c 2,30,-1
 292.564782717 1738.42872673 l 1,31,-1
 310.358285102 1735.4703911 l 1,32,-1
 388.672738227 1722.44988328 l 1,33,-1
 409.372438137 1719.00836522 l 1,34,-1
 404.941638987 1698.49764505 l 2,35,36
 395.316097872 1653.93981845 395.316097872 1653.93981845 395.57658948 1619.78331496 c 0,37,38
 395.844990881 1583.88399647 395.844990881 1583.88399647 407.177694065 1569.96742854 c 128,-1,39
 418.510397248 1556.05086061 418.510397248 1556.05086061 443.780715963 1555.90196851 c 0,40,41
 475.544961456 1555.70738847 475.544961456 1555.70738847 491.766165895 1576.97798193 c 128,-1,42
 507.987370333 1598.24857539 507.987370333 1598.24857539 509.964868321 1649.98178707 c 0,43,44
 511.895880615 1700.36505974 511.895880615 1700.36505974 511.097088488 1768.22749181 c 2,45,-1
 510.858902547 1788.46289062 l 1,46,-1
 531.095703125 1788.46289062 l 1,47,-1
 608.421875 1788.46289062 l 1,48,-1
 627.580495648 1788.46289062 l 1,49,-1
 628.403416837 1769.32195162 l 2,0,1
EndSplineSet
EndChar

StartChar: uni0652
Encoding: 1618 1618 53
GlifName: uni0652
Width: -26
VWidth: 2316
GlyphClass: 4
Flags: W
AnchorPoint: "Anchor-10" 603.219 1222.43 mark 0
AnchorPoint: "Anchor-9" 603.219 1222.43 mark 0
AnchorPoint: "Anchor-1" 577.537 1799.66 basemark 0
AnchorPoint: "Anchor-1" 603.219 1222.43 mark 0
LayerCount: 2
Fore
SplineSet
378.139648438 1461.671875 m 128,-1,1
 378.139648438 1506.29999427 378.139648438 1506.29999427 393.907871888 1544.84671016 c 128,-1,2
 409.676095338 1583.39342604 409.676095338 1583.39342604 440.696853353 1614.41471835 c 0,3,4
 503.254892145 1676.97167969 503.254892145 1676.97167969 593.439453125 1676.97167969 c 0,5,6
 638.067055034 1676.97167969 638.067055034 1676.97167969 676.613561078 1661.20343648 c 128,-1,7
 715.160067123 1645.43519328 715.160067123 1645.43519328 746.181198125 1614.41459656 c 0,8,9
 766.845192988 1593.7506017 766.845192988 1593.7506017 780.785457842 1569.6525462 c 128,-1,10
 794.725722695 1545.55449071 794.725722695 1545.55449071 801.732490254 1518.46982263 c 128,-1,11
 808.739257812 1491.38515455 808.739257812 1491.38515455 808.739257812 1461.671875 c 0,12,13
 808.739257812 1371.48818969 808.739257812 1371.48818969 746.181198123 1308.93013 c 0,14,15
 725.517220281 1288.26615215 725.517220281 1288.26615215 701.419293885 1274.32589079 c 128,-1,16
 677.321367489 1260.38562942 677.321367489 1260.38562942 650.236899058 1253.37884986 c 128,-1,17
 623.152430628 1246.37207031 623.152430628 1246.37207031 593.439453125 1246.37207031 c 0,18,19
 548.811332245 1246.37207031 548.811332245 1246.37207031 510.264541701 1262.14059036 c 128,-1,20
 471.717751157 1277.90911041 471.717751157 1277.90911041 440.696609776 1308.93025179 c 128,-1,21
 409.679383182 1339.94801261 409.679383182 1339.94801261 393.90951581 1378.49518445 c 128,-1,0
 378.139648438 1417.04235629 378.139648438 1417.04235629 378.139648438 1461.671875 c 128,-1,1
504.539586784 1460.77268455 m 0,22,23
 504.260713948 1422.19902612 504.260713948 1422.19902612 531.082350895 1395.71420973 c 0,24,25
 557.346530125 1369.11242821 557.346530125 1369.11242821 596.13987271 1369.17189885 c 0,26,27
 634.3761146 1369.11242472 634.3761146 1369.11242472 661.196242714 1395.71415178 c 0,28,29
 674.481749438 1409.11013163 674.481749438 1409.11013163 681.039356318 1425.13635663 c 128,-1,30
 687.596963199 1441.16258162 687.596963199 1441.16258162 687.738733528 1460.77223733 c 0,31,32
 687.459839445 1499.2298829 687.459839445 1499.2298829 661.196184773 1525.82952293 c 0,33,34
 634.376338338 1552.31257129 634.376338338 1552.31257129 596.139424166 1552.37204646 c 0,35,36
 576.227490662 1552.34152124 576.227490662 1552.34152124 560.361637927 1545.84848586 c 128,-1,37
 544.495785192 1539.35545048 544.495785192 1539.35545048 531.082079845 1525.82979401 c 0,38,39
 504.260712226 1499.22763757 504.260712226 1499.22763757 504.539586784 1460.77268455 c 0,22,23
EndSplineSet
EndChar

StartChar: uni0653
Encoding: 1619 1619 54
GlifName: uni0653
Width: -30
VWidth: 2673
GlyphClass: 4
Flags: W
AnchorPoint: "Anchor-10" 461.017 1539.11 mark 0
AnchorPoint: "Anchor-9" 461.017 1539.11 mark 0
AnchorPoint: "Anchor-1" 461.017 1995.25 basemark 0
AnchorPoint: "Anchor-1" 461.017 1539.11 mark 0
LayerCount: 2
Fore
SplineSet
397.621872367 1616.99143998 m 2,0,1
 347.700103794 1623.86182827 347.700103794 1623.86182827 301.641301653 1602.64107202 c 128,-1,2
 255.725460082 1581.33660583 255.725460082 1581.33660583 212.370791182 1529.7632235 c 2,3,-1
 197.97495674 1512.63838106 l 1,4,-1
 182.563745329 1528.85549673 l 1,5,-1
 81.197265625 1655.52246094 l 5,6,-1
 69.95703125 1667.3515625 l 5,7,-1
 79.2890625 1680.73730469 l 6,8,9
 205.129477548 1861.18566381 205.129477548 1861.18566381 386.9375 1831.90332031 c 6,10,-1
 535.736328125 1807.9375 l 6,11,12
 627.40319506 1793.09662279 627.40319506 1793.09662279 742.974609375 1851.5859375 c 6,13,-1
 761.180664062 1860.79980469 l 5,14,-1
 770.02734375 1842.41210938 l 5,15,-1
 835.681675149 1685.95440012 l 1,16,-1
 843.452280156 1669.80372409 l 1,17,-1
 828.246942468 1660.31560814 l 2,18,19
 694.265075512 1576.16648426 694.265075512 1576.16648426 538.14238018 1597.65257279 c 2,20,-1
 397.621872367 1616.99143998 l 2,0,1
EndSplineSet
EndChar

StartChar: uni0657
Encoding: 1623 1623 57
GlifName: uni0657
Width: -26
VWidth: 2316
GlyphClass: 4
Flags: W
AnchorPoint: "Anchor-10" 513.285 1370.55 mark 0
AnchorPoint: "Anchor-9" 513.285 1370.55 mark 0
AnchorPoint: "Anchor-1" 573.285 2089.85 basemark 0
AnchorPoint: "Anchor-1" 513.285 1370.55 mark 0
LayerCount: 2
Fore
SplineSet
265.087718114 1824.65333543 m 2,0,1
 292.513980079 1823.88726641 292.513980079 1823.88726641 322.919655211 1821.85666139 c 128,-1,2
 353.325330343 1819.82605638 353.325330343 1819.82605638 384.965382755 1816.68305831 c 1,3,4
 538.460468923 2029.46988078 538.460468923 2029.46988078 782.786965021 2052.62368537 c 2,5,-1
 804.673828125 2054.69781224 l 1,6,-1
 804.673828125 2032.71289062 l 1,7,-1
 804.673828125 1954.59179688 l 1,8,-1
 804.673828125 1937.54142498 l 1,9,-1
 787.838224124 1934.84371854 l 2,10,11
 706.323580902 1921.78196101 706.323580902 1921.78196101 639.454883235 1884.98070174 c 128,-1,12
 572.586185567 1848.17944247 572.586185567 1848.17944247 520.213227755 1788.02845622 c 1,13,14
 567.505716175 1770.51361565 567.505716175 1770.51361565 603.03715748 1744.53288411 c 0,15,16
 639.976082392 1716.65732984 639.976082392 1716.65732984 658.982856364 1679.82905996 c 128,-1,17
 677.989630335 1643.00079009 677.989630335 1643.00079009 677.976561375 1598.87780253 c 0,18,19
 678.002721837 1520.88910317 678.002721837 1520.88910317 627.636402523 1469.02987845 c 0,20,21
 578.50585711 1417.99830689 578.50585711 1417.99830689 501.362075731 1418.01367222 c 0,22,23
 418.843905825 1417.99850004 418.843905825 1417.99850004 359.621492688 1475.95139644 c 0,24,25
 335.68170251 1499.97304164 335.68170251 1499.97304164 323.758691057 1532.03837668 c 128,-1,26
 311.835679604 1564.10371172 311.835679604 1564.10371172 311.635316431 1603.31150794 c 0,27,28
 311.747481992 1616.7743824 311.747481992 1616.7743824 313.877079851 1632.98868231 c 128,-1,29
 316.00667771 1649.20298222 316.00667771 1649.20298222 319.823028136 1666.84511953 c 128,-1,30
 323.639378563 1684.48725685 323.639378563 1684.48725685 329.172136675 1704.31017472 c 1,31,32
 314.05926283 1705.22098006 314.05926283 1705.22098006 297.977793368 1705.73383268 c 128,-1,33
 281.896323905 1706.2466853 281.896323905 1706.2466853 264.379926019 1706.37751092 c 2,34,-1
 244.529296875 1706.52577033 l 1,35,-1
 244.529296875 1726.37695312 l 1,36,-1
 244.529296875 1804.66113281 l 1,37,-1
 244.529296875 1825.22757226 l 1,38,-1
 265.087718114 1824.65333543 l 2,0,1
501.030530228 1536.39991456 m 0,39,40
 509.438446349 1536.5235099 509.438446349 1536.5235099 516.304057634 1537.86310195 c 128,-1,41
 523.169668919 1539.20269401 523.169668919 1539.20269401 528.517157094 1541.74363292 c 128,-1,42
 533.864645269 1544.28457183 533.864645269 1544.28457183 537.943497076 1547.66485318 c 128,-1,43
 542.022348884 1551.04513453 542.022348884 1551.04513453 545.451715654 1555.60467295 c 0,44,45
 557.068162263 1572.7633309 557.068162263 1572.7633309 557.312936229 1596.68331388 c 0,46,47
 557.194053816 1619.19727266 557.194053816 1619.19727266 541.688517593 1637.49024088 c 128,-1,48
 526.18298137 1655.78320909 526.18298137 1655.78320909 491.236313933 1670.56833762 c 0,49,50
 470.459132731 1679.28134909 470.459132731 1679.28134909 449.19890408 1685.26770091 c 1,51,52
 430.005415463 1635.75534152 430.005415463 1635.75534152 430.023444045 1604.95951855 c 0,53,54
 430.01375493 1596.29260512 430.01375493 1596.29260512 431.325620754 1589.2128237 c 128,-1,55
 432.637486579 1582.13304228 432.637486579 1582.13304228 435.126762098 1576.43058572 c 0,56,57
 442.712649637 1559.01097902 442.712649637 1559.01097902 462.042954827 1547.81223853 c 0,58,59
 472.450115549 1541.76917431 472.450115549 1541.76917431 482.108721272 1539.00799211 c 128,-1,60
 491.767326995 1536.24680991 491.767326995 1536.24680991 501.030530228 1536.39991456 c 0,39,40
EndSplineSet
EndChar

StartChar: uni065A
Encoding: 1626 1626 58
GlifName: uni065A_
Width: 1135
VWidth: 2316
GlyphClass: 4
Flags: W
AnchorPoint: "Anchor-10" 573.285 1350.55 mark 0
AnchorPoint: "Anchor-9" 573.285 1350.55 mark 0
AnchorPoint: "Anchor-1" 571.012 1862.38 basemark 0
AnchorPoint: "Anchor-1" 573.285 1350.55 mark 0
LayerCount: 2
Fore
SplineSet
485.20342063 1434.15908232 m 1,0,-1
 291.360647192 1758.22353545 l 1,1,-1
 273.256283057 1788.49023438 l 1,2,-1
 308.524414062 1788.49023438 l 1,3,-1
 412.922851562 1788.49023438 l 1,4,-1
 423.626707512 1788.49023438 l 1,5,-1
 429.56401335 1779.58400445 l 1,6,-1
 573.28520692 1563.99564992 l 1,7,-1
 717.007306892 1779.58405122 l 1,8,-1
 722.944617706 1788.49023438 l 1,9,-1
 733.6484375 1788.49023438 l 1,10,-1
 838.047851562 1788.49023438 l 1,11,-1
 873.316256192 1788.49023438 l 1,12,-1
 855.211550075 1758.22342118 l 1,13,-1
 661.365846951 1434.15896805 l 1,14,-1
 655.543744527 1424.42578125 l 1,15,-1
 644.202148438 1424.42578125 l 1,16,-1
 502.3671875 1424.42578125 l 1,17,-1
 491.025503419 1424.42578125 l 1,18,-1
 485.20342063 1434.15908232 l 1,0,-1
EndSplineSet
EndChar

StartChar: afii57392
Encoding: 1632 1632 59
GlifName: afii57392
Width: 1077
VWidth: 2992
GlyphClass: 2
Flags: W
LayerCount: 2
Fore
SplineSet
418.063476562 593.301757812 m 4,0,1
 418.063476562 582.466796875 418.063476562 582.466796875 419.413085938 572.758789062 c 132,-1,2
 420.762695312 563.051757812 420.762695312 563.051757812 423.491210938 554.189453125 c 132,-1,3
 426.219726562 545.327148438 426.219726562 545.327148438 430.448242188 537.157226562 c 132,-1,4
 434.678710938 528.986328125 434.678710938 528.986328125 440.326171875 521.431640625 c 132,-1,5
 445.973632812 513.879882812 445.973632812 513.879882812 453.272460938 506.580078125 c 4,6,7
 471.0078125 488.844726562 471.0078125 488.844726562 492.692382812 480.01953125 c 132,-1,8
 514.450195312 471.1640625 514.450195312 471.1640625 541.791015625 470.772460938 c 4,9,10
 594.069335938 471.526367188 594.069335938 471.526367188 629.125 506.58203125 c 4,11,12
 638.21484375 515.670898438 638.21484375 515.670898438 644.712890625 525.318359375 c 132,-1,13
 651.2109375 534.96484375 651.2109375 534.96484375 655.551757812 545.596679688 c 4,14,15
 664.331054688 567.108398438 664.331054688 567.108398438 664.331054688 593.301757812 c 132,-1,16
 664.331054688 619.49609375 664.331054688 619.49609375 655.551757812 641.008789062 c 4,17,18
 646.870117188 662.280273438 646.870117188 662.280273438 629.125 680.025390625 c 4,19,20
 623.944335938 685.206054688 623.944335938 685.206054688 618.58203125 689.561523438 c 132,-1,21
 613.219726562 693.91796875 613.219726562 693.91796875 607.534179688 697.555664062 c 132,-1,22
 601.84765625 701.193359375 601.84765625 701.193359375 595.837890625 704.060546875 c 132,-1,23
 589.826171875 706.927734375 589.826171875 706.927734375 583.419921875 709.096679688 c 132,-1,24
 577.013671875 711.264648438 577.013671875 711.264648438 570.135742188 712.717773438 c 132,-1,25
 563.255859375 714.170898438 563.255859375 714.170898438 555.907226562 714.9453125 c 132,-1,26
 548.561523438 715.720703125 548.561523438 715.720703125 540.59765625 715.83203125 c 4,27,28
 533.381835938 715.727539062 533.381835938 715.727539062 526.942382812 715.107421875 c 132,-1,29
 520.505859375 714.486328125 520.505859375 714.486328125 514.612304688 713.317382812 c 132,-1,30
 508.717773438 712.149414062 508.717773438 712.149414062 503.34375 710.514648438 c 132,-1,31
 497.96875 708.880859375 497.96875 708.880859375 492.541015625 706.649414062 c 4,32,33
 471.068359375 697.8203125 471.068359375 697.8203125 453.271484375 680.025390625 c 4,34,35
 435.056640625 661.810546875 435.056640625 661.810546875 426.559570312 640.994140625 c 132,-1,36
 418.063476562 620.1796875 418.063476562 620.1796875 418.063476562 593.301757812 c 4,0,1
285.345703125 845.748046875 m 4,37,38
 293.954101562 854.356445312 293.954101562 854.356445312 302.8671875 862.266601562 c 132,-1,39
 311.779296875 870.177734375 311.779296875 870.177734375 321.073242188 877.4453125 c 132,-1,40
 330.366210938 884.712890625 330.366210938 884.712890625 339.954101562 891.256835938 c 4,41,42
 368.8984375 911.009765625 368.8984375 911.009765625 400.520507812 924.201171875 c 4,43,44
 463.611328125 950.51953125 463.611328125 950.51953125 536.678710938 950.51953125 c 4,45,46
 585.233398438 950.51953125 585.233398438 950.51953125 629.446289062 938.874023438 c 4,47,48
 644.268554688 934.970703125 644.268554688 934.970703125 658.620117188 929.743164062 c 132,-1,49
 672.97265625 924.515625 672.97265625 924.515625 686.793945312 917.990234375 c 132,-1,50
 700.614257812 911.46484375 700.614257812 911.46484375 713.8671875 903.659179688 c 132,-1,51
 727.0859375 895.874023438 727.0859375 895.874023438 739.783203125 886.79296875 c 132,-1,52
 752.48046875 877.7109375 752.48046875 877.7109375 764.508789062 867.467773438 c 132,-1,53
 776.536132812 857.223632812 776.536132812 857.223632812 788.01171875 845.748046875 c 4,54,55
 813.890625 819.869140625 813.890625 819.869140625 833.591796875 791.004882812 c 132,-1,56
 853.293945312 762.140625 853.293945312 762.140625 866.459960938 730.579101562 c 4,57,58
 875.252929688 709.50390625 875.252929688 709.50390625 881.119140625 687.1875 c 132,-1,59
 886.986328125 664.872070312 886.986328125 664.872070312 889.884765625 641.70703125 c 132,-1,60
 892.784179688 618.541992188 892.784179688 618.541992188 892.784179688 594.4140625 c 4,61,62
 892.784179688 447.852539062 892.784179688 447.852539062 788.01171875 343.080078125 c 4,63,64
 762.045898438 317.114257812 762.045898438 317.114257812 733.372070312 297.58984375 c 4,65,66
 727.600585938 293.659179688 727.600585938 293.659179688 721.713867188 289.987304688 c 132,-1,67
 715.827148438 286.315429688 715.827148438 286.315429688 709.81640625 282.896484375 c 132,-1,68
 703.805664062 279.478515625 703.805664062 279.478515625 697.688476562 276.32421875 c 132,-1,69
 691.571289062 273.168945312 691.571289062 273.168945312 685.333984375 270.2734375 c 132,-1,70
 679.095703125 267.377929688 679.095703125 267.377929688 672.759765625 264.751953125 c 4,71,72
 662.1953125 260.375 662.1953125 260.375 651.326171875 256.733398438 c 132,-1,73
 640.456054688 253.091796875 640.456054688 253.091796875 629.333984375 250.200195312 c 132,-1,74
 618.2109375 247.30859375 618.2109375 247.30859375 606.826171875 245.16015625 c 4,75,76
 572.884765625 238.756835938 572.884765625 238.756835938 536.625 238.923828125 c 4,77,78
 463.709960938 238.588867188 463.709960938 238.588867188 400.579101562 264.755859375 c 4,79,80
 379.469726562 273.504882812 379.469726562 273.504882812 359.547851562 285.19921875 c 132,-1,81
 339.725585938 296.834960938 339.725585938 296.834960938 321.095703125 311.380859375 c 4,82,83
 316.459960938 315 316.459960938 315 311.90234375 318.796875 c 132,-1,84
 307.34375 322.594726562 307.34375 322.594726562 302.875 326.55859375 c 132,-1,85
 298.407226562 330.522460938 298.407226562 330.522460938 294.02734375 334.650390625 c 132,-1,86
 289.647460938 338.778320312 289.647460938 338.778320312 285.345703125 343.080078125 c 4,87,88
 278.901367188 349.524414062 278.901367188 349.524414062 272.83984375 356.154296875 c 132,-1,89
 266.77734375 362.783203125 266.77734375 362.783203125 261.084960938 369.61328125 c 132,-1,90
 255.391601562 376.442382812 255.391601562 376.442382812 250.0859375 383.4609375 c 132,-1,91
 244.78125 390.479492188 244.78125 390.479492188 239.862304688 397.681640625 c 132,-1,92
 234.944335938 404.884765625 234.944335938 404.884765625 230.41796875 412.28125 c 132,-1,93
 225.892578125 419.676757812 225.892578125 419.676757812 221.770507812 427.241210938 c 132,-1,94
 217.649414062 434.806640625 217.649414062 434.806640625 213.92578125 442.569335938 c 132,-1,95
 210.202148438 450.33203125 210.202148438 450.33203125 206.899414062 458.248046875 c 4,96,97
 180.577148438 521.348632812 180.577148438 521.348632812 180.577148438 594.415039062 c 132,-1,98
 180.577148438 667.483398438 180.577148438 667.483398438 206.89453125 730.575195312 c 132,-1,99
 233.17578125 793.579101562 233.17578125 793.579101562 285.345703125 845.748046875 c 4,37,38
EndSplineSet
EndChar

StartChar: afii57393
Encoding: 1633 1633 60
GlifName: afii57393
Width: 756
VWidth: 2992
GlyphClass: 2
Flags: W
LayerCount: 2
Fore
SplineSet
346.114257812 1372.60742188 m 6,0,1
 554.115234375 916.439578383 554.115234375 916.439578383 554.115234375 268.771484375 c 2,2,-1
 554.115234375 51.5537109375 l 1,3,-1
 554.115234375 11.5537109375 l 1,4,-1
 514.115234375 11.5537109375 l 1,5,-1
 334.796875 11.5537109375 l 1,6,-1
 294.797851562 11.5537109375 l 1,7,-1
 294.796875 51.552734375 l 1,8,-1
 294.791992188 271.930664062 l 2,9,10
 294.999890099 903.666047073 294.999890099 903.666047073 109.013671875 1280.19335938 c 6,11,-1
 89.0361328125 1320.63769531 l 5,12,-1
 131.579101562 1335.6328125 l 5,13,-1
 296.420898438 1393.73730469 l 5,14,-1
 330.932617188 1405.90234375 l 5,15,-1
 346.114257812 1372.60742188 l 6,0,1
EndSplineSet
EndChar

StartChar: afii57394
Encoding: 1634 1634 61
GlifName: afii57394
Width: 1217
VWidth: 2992
GlyphClass: 2
Flags: W
LayerCount: 2
Fore
SplineSet
448.922851562 1087.71582031 m 6,0,1
 475.888748801 1013.07039674 475.888748801 1013.07039674 531.876953125 977.642578125 c 4,2,3
 589 942 589 942 685.017578125 941.76953125 c 4,4,5
 722 942 722 942 749.435546875 950.174804688 c 4,6,7
 777 959 777 959 794.999023438 974.23046875 c 4,8,9
 813 990 813 990 825.73828125 1014.3125 c 4,10,11
 875.999168844 1111.99838458 875.999168844 1111.99838458 875.948242188 1344.53515625 c 6,12,-1
 875.939453125 1384.66699219 l 5,13,-1
 916.071289062 1384.54394531 l 5,14,-1
 1095.81640625 1383.99023438 l 5,15,-1
 1136.06347656 1383.86621094 l 5,16,-1
 1135.69140625 1343.62011719 l 6,17,18
 1135 1268 1135 1268 1130.66113281 1200.90332031 c 4,19,20
 1121 1068 1121 1068 1092.43847656 970.6953125 c 4,21,22
 1064 874 1064 874 1013.98144531 811.104492188 c 4,23,24
 959 742 959 742 876.703125 708.3125 c 4,25,26
 794 674 794 674 689.115234375 674.568359375 c 4,27,28
 643 675 643 675 602.887695312 680.092773438 c 4,29,30
 563 685 563 685 528.801757812 696.021484375 c 5,31,32
 554.115234375 470.975524739 554.115234375 470.975524739 554.115234375 268.771484375 c 2,33,-1
 554.115234375 51.5537109375 l 1,34,-1
 554.115234375 11.5537109375 l 1,35,-1
 514.115234375 11.5537109375 l 1,36,-1
 334.796875 11.5537109375 l 1,37,-1
 294.797851562 11.5537109375 l 1,38,-1
 294.796875 51.552734375 l 1,39,-1
 294.791992188 271.930664062 l 2,40,41
 294.999887036 903.656738595 294.999887036 903.656738595 109.013671875 1280.19335938 c 6,42,-1
 89.037109375 1320.63671875 l 5,43,-1
 131.579101562 1335.6328125 l 5,44,-1
 296.19921875 1393.66210938 l 5,45,-1
 333.631835938 1406.85742188 l 5,46,-1
 347.1171875 1369.52832031 l 5,47,-1
 448.922851562 1087.71582031 l 6,0,1
EndSplineSet
EndChar

StartChar: afii57395
Encoding: 1635 1635 62
GlifName: afii57395
Width: 1492
VWidth: 2992
GlyphClass: 2
Flags: W
LayerCount: 2
Fore
SplineSet
528.806640625 696.48828125 m 5,0,1
 554.115234375 466.954895062 554.115234375 466.954895062 554.115234375 268.771484375 c 2,2,-1
 554.115234375 51.5537109375 l 1,3,-1
 554.115234375 11.5537109375 l 1,4,-1
 514.115234375 11.5537109375 l 1,5,-1
 334.796875 11.5537109375 l 1,6,-1
 294.797851562 11.5537109375 l 1,7,-1
 294.796875 51.552734375 l 1,8,-1
 294.791992188 271.9296875 l 2,9,10
 294.999887036 903.656738594 294.999887036 903.656738594 109.013671875 1280.19335938 c 6,11,-1
 89.037109375 1320.63671875 l 5,12,-1
 131.579101562 1335.6328125 l 5,13,-1
 296.168945312 1393.65136719 l 5,14,-1
 334.010742188 1406.99121094 l 5,15,-1
 347.232421875 1369.10742188 l 5,16,-1
 456.920898438 1054.828125 l 6,17,18
 491 958 491 958 604.786132812 957.630859375 c 4,19,20
 669 957 669 957 698.064453125 1005.84863281 c 4,21,22
 727.133882203 1054.2227921 727.133882203 1054.2227921 724.375976562 1173.63671875 c 6,23,-1
 721.672851562 1290.67871094 l 5,24,-1
 720.756835938 1330.3203125 l 5,25,-1
 760.389648438 1331.58203125 l 5,26,-1
 919.044921875 1336.6328125 l 5,27,-1
 959.274414062 1337.9140625 l 5,28,-1
 960.3046875 1297.67675781 l 5,29,-1
 963.998046875 1153.39453125 l 6,30,31
 967 1042 967 1042 996.39453125 996.918945312 c 4,32,33
 1026 951 1026 951 1080.94921875 950.889648438 c 4,34,35
 1129 951 1129 951 1149.85839844 1010.74511719 c 4,36,37
 1163 1048 1163 1048 1169.51855469 1228.39160156 c 5,38,-1
 1169.83105469 1361.22460938 l 5,39,-1
 1169.92480469 1401.09375 l 5,40,-1
 1209.79394531 1401.13085938 l 5,41,-1
 1386.59667969 1401.29394531 l 5,42,-1
 1426.81152344 1401.33105469 l 5,43,-1
 1426.63378906 1361.11621094 l 5,44,-1
 1426.0546875 1230.5078125 l 6,45,46
 1426 1159 1426 1159 1418.57714844 1080.27832031 c 4,47,48
 1403 891 1403 891 1319.5234375 788.986328125 c 132,-1,49
 1236 687 1236 687 1086.375 687.76953125 c 4,50,51
 941 689 941 689 838.477539062 784.737304688 c 5,52,53
 743 687 743 687 623.098632812 686.943359375 c 4,54,55
 568 687 568 687 528.806640625 696.48828125 c 5,0,1
EndSplineSet
EndChar

StartChar: afii57396
Encoding: 1636 1636 63
GlifName: afii57396
Width: 1056
VWidth: 2992
GlyphClass: 2
Flags: W
LayerCount: 2
Fore
SplineSet
99.330078125 350.529296875 m 0,0,1
 91 547 91 547 410.018554688 736.969726562 c 1,2,3
 181 848 181 848 181.663085938 1020.078125 c 0,4,5
 182 1124 182 1124 236.576171875 1202.01464844 c 0,6,7
 391.713455285 1428.581522 391.713455285 1428.581522 824.802734375 1377.1015625 c 2,8,-1
 862.619140625 1372.60644531 l 1,9,-1
 844.477539062 1110.82128906 l 1,10,-1
 802.954101562 1115.53125 l 2,11,12
 604 1138 604 1138 522.426757812 1088.1171875 c 0,13,14
 471 1057 471 1057 470.829101562 1021.8359375 c 0,15,16
 469.998698771 927.852729712 469.998698771 927.852729712 791.032226562 901.575195312 c 2,17,-1
 827.313476562 898.60546875 l 1,18,-1
 830.385742188 651.240234375 l 1,19,-1
 805.006835938 641.0078125 l 2,20,21
 370 466 370 466 375.432617188 374.86328125 c 4,22,23
 381.006382546 273.884368559 381.006382546 273.884368559 723.578125 276.052734375 c 2,24,-1
 957.317382812 277.532226562 l 1,25,-1
 960.4375 -0.0703125 l 1,26,-1
 716.973632812 0.46875 l 2,27,28
 325 1 325 1 178.984375 152.590820312 c 0,29,30
 104 230 104 230 99.330078125 350.529296875 c 0,0,1
EndSplineSet
EndChar

StartChar: afii57397
Encoding: 1637 1637 64
GlifName: afii57397
Width: 1257
VWidth: 2992
GlyphClass: 2
Flags: W
LayerCount: 2
Fore
SplineSet
605.099609375 956.397460938 m 5,0,1
 350 673 350 673 349.721679688 493.2421875 c 0,2,3
 350 407 350 407 429.357479656 341.241442785 c 0,4,5
 509 275 509 275 632.096679688 275.03125 c 0,6,7
 785 275 785 275 854.736328125 357.174804688 c 0,8,9
 907 419 907 419 906.259765625 500.182617188 c 0,10,11
 906 715 906 715 605.099609375 956.397460938 c 5,0,1
344.1171875 1161.1875 m 5,12,-1
 489.322265625 1395.32617188 l 5,13,-1
 523.5078125 1373.3984375 l 6,14,15
 1176 955 1176 955 1176.70605469 477.306640625 c 0,16,17
 1177 223 1177 223 962.2109375 89.9609375 c 0,18,19
 828 7 828 7 620.391601562 7.97265625 c 0,20,21
 453 9 453 9 324.718261719 79.9086914062 c 0,22,23
 76 218 76 218 78.630859375 476.333984375 c 0,24,25
 82 763 82 763 393.618164062 1123.26269531 c 5,26,-1
 344.1171875 1161.1875 l 5,12,-1
EndSplineSet
EndChar

StartChar: afii57398
Encoding: 1638 1638 65
GlifName: afii57398
Width: 1305
VWidth: 2992
GlyphClass: 2
Flags: W
LayerCount: 2
Fore
SplineSet
802.471679688 1056.07617188 m 5,0,1
 653 1021 653 1021 494.139648438 1020.07324219 c 4,2,3
 376 1020 376 1020 268.706054688 1041.69433594 c 4,4,5
 163.005662562 1062.60325375 163.005662562 1062.60325375 64.9609375 1106.86328125 c 6,6,-1
 41.41796875 1117.49121094 l 5,7,-1
 41.41796875 1143.32128906 l 5,8,-1
 41.41796875 1353.89746094 l 5,9,-1
 41.41796875 1416.6171875 l 5,10,-1
 98.287109375 1390.16601562 l 6,11,12
 288 1302 288 1302 509.75390625 1301.84277344 c 4,13,14
 572 1302 572 1302 632.74609375 1307.49609375 c 4,15,16
 694 1314 694 1314 754.235351562 1324.65429688 c 4,17,18
 815 1336 815 1336 873.50390625 1353.14746094 c 4,19,20
 894 1359 894 1359 913.15625 1365.05664062 c 4,21,22
 933 1371 933 1371 952.100585938 1378.26367188 c 4,23,24
 985.486085135 1390.80691736 985.486085135 1390.80691736 990.711914062 1392.890625 c 6,25,-1
 1044.796875 1414.45605469 l 5,26,-1
 1045.52441406 1356.23535156 l 6,27,28
 1056.01105424 547.147119393 1056.01105424 547.147119393 1201.38476562 63.0576171875 c 2,29,-1
 1216.8515625 11.5537109375 l 1,30,-1
 1163.07519531 11.5537109375 l 1,31,-1
 974.34765625 11.5537109375 l 1,32,-1
 942.9609375 11.5537109375 l 1,33,-1
 935.49609375 42.0390625 l 2,34,35
 816 531 816 531 802.471679688 1056.07617188 c 5,0,1
EndSplineSet
EndChar

StartChar: afii57399
Encoding: 1639 1639 66
GlifName: afii57399
Width: 1301
VWidth: 2992
GlyphClass: 2
Flags: W
LayerCount: 2
Fore
SplineSet
1238.24707031 1251.98828125 m 6,0,1
 880.052626345 548.932838535 880.052626345 548.932838535 773.41015625 43.298828125 c 2,2,-1
 766.71484375 11.5537109375 l 1,3,-1
 534.436523438 11.5537109375 l 1,4,-1
 527.53515625 42.970703125 l 2,5,6
 418.894678275 536.47843204 418.894678275 536.47843204 62.4580078125 1252.30371094 c 6,7,-1
 44.7705078125 1287.82519531 l 5,8,-1
 285.499023438 1410.1015625 l 5,9,-1
 302.981445312 1372.60449219 l 6,10,11
 545 854 545 854 650.391601562 456.013671875 c 1,12,13
 756.183279542 855.692426291 756.183279542 855.692426291 997.930664062 1372.64746094 c 6,14,-1
 1015.43554688 1410.08007812 l 5,15,-1
 1256.42773438 1287.67285156 l 5,16,-1
 1238.24707031 1251.98828125 l 6,0,1
EndSplineSet
EndChar

StartChar: afii57400
Encoding: 1640 1640 67
GlifName: afii57400
Width: 1301
VWidth: 2992
GlyphClass: 2
Flags: W
LayerCount: 2
Fore
SplineSet
285.436523438 -22.435546875 m 1,0,-1
 44.7783203125 99.8046875 l 1,1,-1
 62.4541015625 135.322265625 l 2,2,3
 419.45217716 852.908902062 419.45217716 852.908902062 527.536132812 1344.66796875 c 6,4,-1
 534.440429688 1376.08105469 l 5,5,-1
 766.5234375 1376.08105469 l 5,6,-1
 773.37109375 1344.57617188 l 6,7,8
 881.194984128 850.10582089 881.194984128 850.10582089 1238.40136719 135.37890625 c 2,9,-1
 1256.16796875 99.830078125 l 1,10,-1
 1015.37792969 -22.4755859375 l 1,11,-1
 997.904296875 15.04296875 l 2,12,13
 756 534 756 534 650.567382812 931.56640625 c 5,14,15
 544.859816564 531.469413844 544.859816564 531.469413844 302.953125 14.96484375 c 2,16,-1
 285.436523438 -22.435546875 l 1,0,-1
EndSplineSet
EndChar

StartChar: afii57401
Encoding: 1641 1641 68
GlifName: afii57401
Width: 1179
VWidth: 2992
GlyphClass: 2
Flags: W
LayerCount: 2
Fore
SplineSet
510.056640625 515.165039062 m 4,0,1
 370 515 370 515 271.861328125 559.288085938 c 4,2,3
 174 603 174 603 123.057617188 690.962890625 c 132,-1,4
 72 779 72 779 71.9462890625 905.950195312 c 4,5,6
 72 1062 72 1062 148.526367188 1185.61425781 c 4,7,8
 283 1401 283 1401 515.049804688 1400.31542969 c 4,9,10
 578 1400 578 1400 633.411132812 1388.6015625 c 4,11,12
 689 1377 689 1377 735.092773438 1354.09472656 c 4,13,14
 782 1331 782 1331 819.848632812 1297.4921875 c 4,15,16
 858 1264 858 1264 887.764648438 1219.45117188 c 4,17,18
 917 1175 917 1175 938.57421875 1120.671875 c 4,19,20
 960 1066 960 1066 972.365234375 1001.81054688 c 4,21,22
 985 937 985 937 988.889648438 863.565429688 c 4,23,24
 1014.25523153 399.622017845 1014.25523153 399.622017845 1021.77246094 52.4189453125 c 2,25,-1
 1022.65722656 11.5537109375 l 1,26,-1
 981.782226562 11.5537109375 l 1,27,-1
 809.748046875 11.5537109375 l 1,28,-1
 770.5546875 11.5537109375 l 1,29,-1
 769.756835938 50.73828125 l 1,30,-1
 757.30078125 561.859375 l 5,31,32
 638 515 638 515 510.056640625 515.165039062 c 4,0,1
512.721679688 784.890625 m 4,33,34
 627 785 627 785 736.145507812 833.706054688 c 5,35,36
 722 990 722 990 669.297851562 1059.44824219 c 4,37,38
 616 1129 616 1129 523.711914062 1128.7265625 c 4,39,40
 431 1129 431 1129 378.15234375 1056.70703125 c 4,41,42
 327 987 327 987 327.008789062 915.30078125 c 4,43,44
 327 848 327 848 368.877929688 816.6015625 c 4,45,46
 411 785 411 785 512.721679688 784.890625 c 4,33,34
EndSplineSet
EndChar

StartChar: afii57381
Encoding: 1642 1642 69
GlifName: afii57381
Width: 1288
VWidth: 4078
GlyphClass: 2
Flags: W
LayerCount: 2
Fore
SplineSet
709.512695312 385.344726562 m 128,-1,1
 709.512695312 472.015625 709.512695312 472.015625 771.366210938 532.723632812 c 0,2,3
 786.126953125 547.484375 786.126953125 547.484375 803.049804688 558.86328125 c 128,-1,4
 819.971679688 570.2421875 819.971679688 570.2421875 838.483398438 577.947265625 c 128,-1,5
 856.994140625 585.65234375 856.994140625 585.65234375 877.086914062 589.67578125 c 128,-1,6
 897.1796875 593.69921875 897.1796875 593.69921875 918.235351562 593.838867188 c 0,7,8
 961.379882812 594.124023438 961.379882812 594.124023438 998.553710938 578.646484375 c 128,-1,9
 1035.70898438 563.176757812 1035.70898438 563.176757812 1065.859375 532.458984375 c 0,10,11
 1080.57714844 517.739257812 1080.57714844 517.739257812 1092.09765625 500.756835938 c 128,-1,12
 1103.61816406 483.774414062 1103.61816406 483.774414062 1111.23828125 465.297851562 c 128,-1,13
 1118.89453125 446.733398438 1118.89453125 446.733398438 1122.69921875 426.629882812 c 128,-1,14
 1126.50390625 406.526367188 1126.50390625 406.526367188 1126.50390625 385.344726562 c 0,15,16
 1126.50390625 298.875 1126.50390625 298.875 1065.7265625 238.096679688 c 128,-1,17
 1004.94824219 177.318359375 1004.94824219 177.318359375 918.48046875 177.318359375 c 128,-1,18
 832.01171875 177.318359375 832.01171875 177.318359375 771.346679688 237.984375 c 0,19,0
 709.512695312 298.671875 709.512695312 298.671875 709.512695312 385.344726562 c 128,-1,1
160.96875 1159.37011719 m 0,20,21
 161 1246 161 1246 222.825195312 1306.75 c 0,22,23
 243 1326 243 1326 265.89453125 1339.91601562 c 0,24,25
 289 1353 289 1353 315.294921875 1360.47460938 c 0,26,27
 341 1368 341 1368 369.671875 1367.86523438 c 0,28,29
 412 1368 412 1368 450.01953125 1352.296875 c 0,30,31
 488 1337 488 1337 517.323242188 1306.47558594 c 0,32,33
 578 1246 578 1246 577.959960938 1159.37011719 c 0,34,35
 578 1117 578 1117 562.479492188 1079.18945312 c 0,36,37
 547 1042 547 1042 516.958007812 1011.90039062 c 128,-1,38
 487 982 487 982 450.388671875 966.684570312 c 0,39,40
 413 951 413 951 369.83203125 951.34375 c 0,41,42
 284 951 284 951 222.8203125 1011.99023438 c 0,43,44
 215 1020 215 1020 208.310546875 1027.64355469 c 0,45,46
 202 1036 202 1036 195.73828125 1044.16113281 c 0,47,48
 190 1053 190 1053 185.108398438 1061.49902344 c 0,49,50
 180 1070 180 1070 176.412109375 1079.6328125 c 0,51,52
 173 1089 173 1089 169.654296875 1098.51757812 c 0,53,54
 167 1108 167 1108 164.826171875 1118.12890625 c 0,55,56
 163 1128 163 1128 161.934570312 1138.421875 c 128,-1,57
 161 1149 161 1149 160.96875 1159.37011719 c 0,20,21
881.81640625 1394.12011719 m 5,58,-1
 1035.08789062 1315.15429688 l 5,59,-1
 1070.71972656 1296.79589844 l 5,60,-1
 1052.2890625 1261.20214844 l 5,61,-1
 390.471679688 55.2802734375 l 1,62,-1
 371.619140625 18.873046875 l 1,63,-1
 335.6875 38.6181640625 l 1,64,-1
 182.84765625 122.608398438 l 1,65,-1
 148.602539062 141.426757812 l 1,66,-1
 166.614257812 176.102539062 l 1,67,-1
 828 1377 l 5,68,-1
 846.376953125 1412.37792969 l 5,69,-1
 881.81640625 1394.12011719 l 5,58,-1
EndSplineSet
EndChar

StartChar: uni066B
Encoding: 1643 1643 70
GlifName: uni066B_
Width: 822
VWidth: 2992
GlyphClass: 2
Flags: W
LayerCount: 2
Fore
SplineSet
548.385742188 894.825195312 m 1,0,-1
 679.688476562 839.0859375 l 1,1,-1
 716.78515625 823.338867188 l 1,2,-1
 700.760742188 786.361328125 l 1,3,-1
 236.491210938 -284.966796875 l 1,4,-1
 220.560546875 -321.725585938 l 1,5,-1
 183.826171875 -305.73828125 l 1,6,-1
 50.4013671875 -247.668945312 l 1,7,-1
 13.69140625 -231.692382812 l 1,8,-1
 29.7021484375 -194.997070312 l 1,9,-1
 496.09375 874.000976562 l 1,10,-1
 511.930664062 910.301757812 l 1,11,-1
 548.385742188 894.825195312 l 1,0,-1
EndSplineSet
EndChar

StartChar: uni066C
Encoding: 1644 1644 71
GlifName: uni066C_
Width: 588
VWidth: 2882
GlyphClass: 2
Flags: W
LayerCount: 2
Fore
SplineSet
87.0283203125 190.947265625 m 0,0,1
 87.3173828125 219.7421875 87.3173828125 219.7421875 93.0986328125 244.810546875 c 128,-1,2
 98.8798828125 269.877929688 98.8798828125 269.877929688 110.826171875 291.080078125 c 0,3,4
 135.4609375 334.802734375 135.4609375 334.802734375 183.654296875 356.36328125 c 0,5,6
 227.547851562 376 227.547851562 376 290.438476562 376.182617188 c 0,7,8
 332.227539062 376.3671875 332.227539062 376.3671875 367.56640625 366.0390625 c 128,-1,9
 402.90625 355.7109375 402.90625 355.7109375 430.181640625 335.647460938 c 128,-1,10
 457.458007812 315.584960938 457.458007812 315.584960938 476.071289062 285.232421875 c 128,-1,11
 494.684570312 254.87890625 494.684570312 254.87890625 502.837890625 215.926757812 c 0,12,13
 519.255859375 135.903320312 519.255859375 135.903320312 490.528320312 20.8671875 c 0,14,15
 428.7734375 -215.151367188 428.7734375 -215.151367188 214.0703125 -391.934570312 c 2,16,-1
 191.612304688 -410.42578125 l 1,17,-1
 167.100585938 -394.7578125 l 1,18,-1
 127.034179688 -369.146484375 l 1,19,-1
 115.952148438 -362.0625 l 1,20,-1
 74.2890625 -335.4296875 l 1,21,-1
 109.038085938 -300.25 l 2,22,23
 255.661132812 -151.80859375 255.661132812 -151.80859375 279.838867188 -0.0283203125 c 1,24,25
 277.10546875 0.0595703125 277.10546875 0.0595703125 274.6015625 0.1650390625 c 128,-1,26
 272.096679688 0.26953125 272.096679688 0.26953125 269.693359375 0.3994140625 c 128,-1,27
 267.290039062 0.5283203125 267.290039062 0.5283203125 265.07421875 0.6787109375 c 128,-1,28
 262.858398438 0.8291015625 262.858398438 0.8291015625 260.72265625 1.0087890625 c 128,-1,29
 258.586914062 1.1884765625 258.586914062 1.1884765625 256.59765625 1.3935546875 c 128,-1,30
 254.608398438 1.599609375 254.608398438 1.599609375 252.676757812 1.8388671875 c 128,-1,31
 250.74609375 2.0771484375 250.74609375 2.0771484375 248.918945312 2.34765625 c 128,-1,32
 247.092773438 2.6171875 247.092773438 2.6171875 245.303710938 2.9248046875 c 128,-1,33
 243.514648438 3.2333984375 243.514648438 3.2333984375 241.788085938 3.576171875 c 128,-1,34
 240.060546875 3.919921875 240.060546875 3.919921875 238.349609375 4.306640625 c 0,35,36
 165.5703125 19.3056640625 165.5703125 19.3056640625 126.071289062 68.1845703125 c 128,-1,37
 86.5732421875 117.063476562 86.5732421875 117.063476562 87.0283203125 190.947265625 c 0,0,1
EndSplineSet
EndChar

StartChar: afii63167
Encoding: 1645 1645 72
GlifName: afii63167
Width: 1584
VWidth: 2992
GlyphClass: 2
Flags: W
LayerCount: 2
Fore
SplineSet
232.590820312 1118.65136719 m 1,0,-1
 635.94921875 1118.65136719 l 1,1,-1
 761.9921875 1502.41015625 l 1,2,-1
 799.995117188 1618.11523438 l 1,3,-1
 837.998046875 1502.41015625 l 1,4,-1
 964.04296875 1118.65136719 l 1,5,-1
 1367.40136719 1118.65136719 l 1,6,-1
 1489.89648438 1118.65136719 l 1,7,-1
 1391.0078125 1046.359375 l 1,8,-1
 1065.11425781 808.120117188 l 1,9,-1
 1189.73632812 425.275390625 l 1,10,-1
 1227.70996094 308.620117188 l 1,11,-1
 1128.2734375 380.473632812 l 1,12,-1
 799.995117188 617.686523438 l 1,13,-1
 471.719726562 380.473632812 l 1,14,-1
 372.284179688 308.620117188 l 1,15,-1
 410.256835938 425.275390625 l 1,16,-1
 534.876953125 808.120117188 l 1,17,-1
 208.984375 1046.36035156 l 1,18,-1
 110.095703125 1118.65136719 l 1,19,-1
 232.590820312 1118.65136719 l 1,0,-1
EndSplineSet
EndChar

StartChar: uni066E
Encoding: 1646 1646 73
GlifName: uni066E_
Width: 1837
VWidth: 2992
GlyphClass: 2
Flags: W
AnchorPoint: "Anchor-10" 1007.36 1455.35 basechar 0
AnchorPoint: "Anchor-7" 957.36 -217.261 basechar 0
LayerCount: 2
Fore
SplineSet
890.911132812 0 m 2,0,1
 486.134765625 0 486.134765625 0 273.103515625 130.831054688 c 128,-1,2
 60.0732421875 261.662109375 60.0732421875 261.662109375 60.16015625 525.854492188 c 0,3,4
 59.990234375 669.54296875 59.990234375 669.54296875 118.168945312 799.165039062 c 2,5,-1
 134.352539062 835.221679688 l 1,6,-1
 170.6015625 819.473632812 l 1,7,-1
 328.373046875 750.928710938 l 1,8,-1
 364.048828125 735.428710938 l 1,9,-1
 349.551757812 699.333007812 l 2,10,11
 319.04296875 623.374023438 319.04296875 623.374023438 319.424804688 554.606445312 c 0,12,13
 319.303710938 460.380859375 319.303710938 460.380859375 374.46875 397.0234375 c 128,-1,14
 429.633789062 333.666015625 429.633789062 333.666015625 553.883789062 298.87890625 c 128,-1,15
 678.133789062 264.091796875 678.133789062 264.091796875 871.877929688 264.13671875 c 0,16,17
 1113.73632812 264.0703125 1113.73632812 264.0703125 1269.16894531 287.858398438 c 128,-1,18
 1424.6015625 311.646484375 1424.6015625 311.646484375 1479.88574219 352.3359375 c 0,19,20
 1491.07421875 360.48046875 1491.07421875 360.48046875 1499.68359375 371.96875 c 128,-1,21
 1508.29199219 383.45703125 1508.29199219 383.45703125 1514.82714844 399.484375 c 128,-1,22
 1521.36132812 415.512695312 1521.36132812 415.512695312 1524.828125 437.1796875 c 128,-1,23
 1528.29492188 458.845703125 1528.29492188 458.845703125 1528.37988281 485.390625 c 0,24,25
 1528.20507812 526.657226562 1528.20507812 526.657226562 1519.30761719 586.354492188 c 128,-1,26
 1510.41015625 646.05078125 1510.41015625 646.05078125 1492.84863281 721.572265625 c 2,27,-1
 1483.95019531 759.836914062 l 1,28,-1
 1522.04785156 769.422851562 l 1,29,-1
 1685.1328125 810.458007812 l 1,30,-1
 1721.13476562 819.516601562 l 1,31,-1
 1732.84960938 784.290039062 l 2,32,33
 1785.00488281 627.461914062 1785.00488281 627.461914062 1784.90625 499.701171875 c 0,34,35
 1784.95605469 373.861328125 1784.95605469 373.861328125 1746.54882812 281.1328125 c 128,-1,36
 1708.14160156 188.404296875 1708.14160156 188.404296875 1629.72070312 133.549804688 c 0,37,38
 1438.58984375 -0 1438.58984375 -0 894.356445312 0 c 2,39,-1
 890.911132812 0 l 2,0,1
EndSplineSet
Substitution2: "'init' Initial Forms in Arabic lookup 13 subtable" uni066E.init
Substitution2: "'medi' Medial Forms in Arabic lookup 11 subtable" uni066E.medi
Substitution2: "'fina' Terminal Forms in Arabic lookup 9 subtable" uni066E.fina
EndChar

StartChar: uni066F
Encoding: 1647 1647 74
GlifName: uni066F_
Width: 1511
VWidth: 2992
GlyphClass: 2
Flags: W
AnchorPoint: "Anchor-10" 121.809 1402.22 basechar 0
AnchorPoint: "Anchor-7" 335.219 -721.353 basechar 0
LayerCount: 2
Fore
SplineSet
1436.04003906 54.1591796875 m 0,0,1
 1395.9453125 -200.859375 1395.9453125 -200.859375 1217.97753906 -330.444335938 c 128,-1,2
 1040.00976562 -460.029296875 1040.00976562 -460.029296875 736.865234375 -460.060546875 c 0,3,4
 519.517578125 -459.997070312 519.517578125 -459.997070312 372.326171875 -394.677734375 c 0,5,6
 216.5234375 -325.08984375 216.5234375 -325.08984375 138.546875 -184.94921875 c 0,7,8
 62.056640625 -47.4814453125 62.056640625 -47.4814453125 60.9580078125 152.580078125 c 0,9,10
 59.962890625 391.803710938 59.962890625 391.803710938 164.763671875 616.12890625 c 2,11,-1
 180.931640625 650.736328125 l 1,12,-1
 216.247070312 636.1796875 l 1,13,-1
 374.973632812 570.756835938 l 1,14,-1
 411.577148438 555.669921875 l 1,15,-1
 396.8671875 518.9140625 l 2,16,17
 355.361328125 415.19921875 355.361328125 415.19921875 335.7578125 325.928710938 c 0,18,19
 316.025390625 237.693359375 316.025390625 237.693359375 316.458984375 161.000976562 c 0,20,21
 317.241210938 36.408203125 317.241210938 36.408203125 361.703125 -43.7509765625 c 128,-1,22
 406.165039062 -123.91015625 406.165039062 -123.91015625 498.799804688 -163.724609375 c 128,-1,23
 591.435546875 -203.540039062 591.435546875 -203.540039062 736.2265625 -203.326171875 c 0,24,25
 945.176757812 -202.741210938 945.176757812 -202.741210938 1056.70703125 -128.580078125 c 128,-1,26
 1168.23730469 -54.41796875 1168.23730469 -54.41796875 1195.64257812 94.552734375 c 1,27,28
 1123.29785156 79.8232421875 1123.29785156 79.8232421875 1044.02734375 79.3193359375 c 0,29,30
 869.637695312 78.07421875 869.637695312 78.07421875 773.534179688 157.48046875 c 128,-1,31
 677.430664062 236.885742188 677.430664062 236.885742188 675.427734375 390.223632812 c 0,32,33
 674.959960938 437.842773438 674.959960938 437.842773438 683.862304688 481.495117188 c 0,34,35
 719.155273438 654.502929688 719.155273438 654.502929688 807.729492188 745.403320312 c 0,36,37
 901.970703125 842.94140625 901.970703125 842.94140625 1043.67578125 843.43359375 c 0,38,39
 1055.41015625 843.51171875 1055.41015625 843.51171875 1066.89941406 842.8359375 c 128,-1,40
 1078.38964844 842.16015625 1078.38964844 842.16015625 1089.62109375 840.732421875 c 128,-1,41
 1100.85253906 839.305664062 1100.85253906 839.305664062 1111.80371094 837.112304688 c 128,-1,42
 1122.75585938 834.919921875 1122.75585938 834.919921875 1133.37890625 831.981445312 c 128,-1,43
 1144.00292969 829.04296875 1144.00292969 829.04296875 1154.31445312 825.327148438 c 128,-1,44
 1164.625 821.611328125 1164.625 821.611328125 1174.5390625 817.155273438 c 128,-1,45
 1184.453125 812.700195312 1184.453125 812.700195312 1194.02148438 807.455078125 c 128,-1,46
 1203.58984375 802.209960938 1203.58984375 802.209960938 1212.69335938 796.23046875 c 0,47,48
 1307.55371094 735.41796875 1307.55371094 735.41796875 1363.44824219 620.29296875 c 128,-1,49
 1419.34179688 505.166992188 1419.34179688 505.166992188 1438.49707031 339.340820312 c 0,50,51
 1456.35742188 186.264648438 1456.35742188 186.264648438 1436.04003906 54.1591796875 c 0,0,1
919.455078125 417.583007812 m 0,52,53
 919.859375 373.6171875 919.859375 373.6171875 949.213867188 353.071289062 c 128,-1,54
 978.568359375 332.524414062 978.568359375 332.524414062 1056.3203125 333.231445312 c 0,55,56
 1118.59667969 333.797851562 1118.59667969 333.797851562 1182.60644531 348.977539062 c 1,57,58
 1168.41894531 436.985351562 1168.41894531 436.985351562 1139.70703125 498.663085938 c 0,59,60
 1118.67578125 545.23828125 1118.67578125 545.23828125 1093.96386719 564.573242188 c 128,-1,61
 1069.25195312 583.908203125 1069.25195312 583.908203125 1037.39746094 583.857421875 c 0,62,63
 999.829101562 583.908203125 999.829101562 583.908203125 973.776367188 559.881835938 c 128,-1,64
 947.723632812 535.85546875 947.723632812 535.85546875 929.737304688 477.41796875 c 0,65,66
 926.44140625 466.765625 926.44140625 466.765625 924.182617188 456.248046875 c 128,-1,67
 921.924804688 445.731445312 921.924804688 445.731445312 920.782226562 436.181640625 c 128,-1,68
 919.638671875 426.630859375 919.638671875 426.630859375 919.455078125 417.583007812 c 0,52,53
EndSplineSet
Substitution2: "'init' Initial Forms in Arabic lookup 13 subtable" uni066F.init
Substitution2: "'medi' Medial Forms in Arabic lookup 11 subtable" uni066F.medi
Substitution2: "'fina' Terminal Forms in Arabic lookup 9 subtable" uni066F.fina
EndChar

StartChar: uni0670
Encoding: 1648 1648 75
GlifName: uni0670
Width: -29
VWidth: 2574
GlyphClass: 4
Flags: W
AnchorPoint: "Anchor-10" 636.984 1500.61 mark 0
AnchorPoint: "Anchor-9" 636.984 1500.61 mark 0
AnchorPoint: "Anchor-1" 636.984 1997.18 basemark 0
AnchorPoint: "Anchor-1" 636.984 1500.61 mark 0
LayerCount: 2
Fore
SplineSet
573.435546875 1568.26757812 m 1,0,-1
 573.435546875 1969.51660156 l 1,1,-1
 573.435546875 1989.51660156 l 1,2,-1
 593.435546875 1989.51660156 l 1,3,-1
 680.533203125 1989.51660156 l 1,4,-1
 700.533203125 1989.51660156 l 1,5,-1
 700.533203125 1969.51660156 l 1,6,-1
 700.533203125 1568.26757812 l 1,7,-1
 700.533203125 1548.26757812 l 1,8,-1
 680.533203125 1548.26757812 l 1,9,-1
 593.435546875 1548.26757812 l 1,10,-1
 573.435546875 1548.26757812 l 1,11,-1
 573.435546875 1568.26757812 l 1,0,-1
EndSplineSet
EndChar

StartChar: uni0674
Encoding: 1652 1652 76
GlifName: uni0674
Width: 551
VWidth: 2537
GlyphClass: 2
Flags: W
LayerCount: 2
Fore
SplineSet
133.336958885 1981.49846364 m 1,0,1
 81 2040 81 2040 80.7831518111 2130.52211384 c 0,2,3
 81 2227 81 2227 145.19082891 2294.7702562 c 0,4,5
 220 2374 220 2374 337.017839301 2374.01562457 c 0,6,7
 417.894971827 2374.00002026 417.894971827 2374.00002026 488.710874262 2328.28216239 c 2,8,-1
 497.805208515 2322.41097433 l 1,9,-1
 497.86299626 2311.58626069 l 1,10,-1
 498.565144698 2180.06087006 l 1,11,-1
 498.764153047 2142.78292506 l 1,12,-1
 467.594667037 2163.23159078 l 2,13,14
 439 2182 439 2182 409.438607513 2191.72711436 c 0,15,16
 380 2201 380 2201 351.001278225 2201.26155148 c 0,17,18
 296 2201 296 2201 268.264785851 2172.91044064 c 0,19,20
 246 2150 246 2150 246.489195834 2118.36617445 c 0,21,22
 248 2072 248 2072 327.816420956 2042.58147502 c 0,23,24
 336 2040 336 2040 341.036844909 2040.8977302 c 0,25,26
 356.376213963 2043.98964223 356.376213963 2043.98964223 480.934555455 2068.17720104 c 2,27,-1
 504.747070312 2072.80127195 l 1,28,-1
 504.747070312 2048.54394531 l 1,29,-1
 504.747070312 1923.015625 l 5,30,-1
 504.747070312 1907.26464844 l 5,31,-1
 489.434570312 1903.57226562 l 5,32,-1
 82.9736328125 1805.58398438 l 5,33,-1
 58.2861328125 1799.6328125 l 5,34,-1
 58.2861328125 1825.02734375 l 5,35,-1
 58.2861328125 1938.27050781 l 5,36,-1
 58.2861328125 1964.18120749 l 1,37,-1
 73.7894764879 1967.7584549 l 1,38,-1
 133.336958885 1981.49846364 l 1,0,1
EndSplineSet
EndChar

StartChar: uni06A1
Encoding: 1697 1697 80
GlifName: uni06A_1
Width: 1851
VWidth: 2992
GlyphClass: 2
Flags: W
AnchorPoint: "Anchor-10" 670.853 1670.62 basechar 0
AnchorPoint: "Anchor-7" 653.182 -312.248 basechar 0
LayerCount: 2
Fore
SplineSet
1787.56054688 513.411132812 m 0,0,1
 1785.88964844 209.921875 1785.88964844 209.921875 1636.11914062 97.5537109375 c 0,2,3
 1608.5234375 76.98046875 1608.5234375 76.98046875 1573.73046875 60.9140625 c 128,-1,4
 1538.93652344 44.8486328125 1538.93652344 44.8486328125 1498.04980469 33.38671875 c 128,-1,5
 1457.1640625 21.9248046875 1457.1640625 21.9248046875 1408.66210938 14.470703125 c 128,-1,6
 1360.16015625 7.017578125 1360.16015625 7.017578125 1306.1875 3.5087890625 c 128,-1,7
 1252.21484375 -0 1252.21484375 -0 1190.20996094 -0 c 2,8,-1
 859.911132812 0 l 2,9,10
 469.901367188 0 469.901367188 0 264.487304688 131.129882812 c 128,-1,11
 59.0732421875 262.259765625 59.0732421875 262.259765625 59.16015625 525.854492188 c 0,12,13
 58.990234375 669.54296875 58.990234375 669.54296875 117.168945312 799.165039062 c 2,14,-1
 133.352539062 835.221679688 l 1,15,-1
 169.6015625 819.473632812 l 1,16,-1
 327.373046875 750.928710938 l 1,17,-1
 362.759765625 735.553710938 l 1,18,-1
 348.671875 699.635742188 l 2,19,20
 318.041992188 621.543945312 318.041992188 621.543945312 318.43359375 551.359375 c 0,21,22
 318.24609375 410.084960938 318.24609375 410.084960938 444.647460938 337.182617188 c 128,-1,23
 571.047851562 264.280273438 571.047851562 264.280273438 846.166992188 264.159179688 c 2,24,-1
 1211.35058594 263.999023438 l 2,25,26
 1368.56347656 263.999023438 1368.56347656 263.999023438 1449.53125 297.083007812 c 128,-1,27
 1530.49902344 330.166992188 1530.49902344 330.166992188 1546.28125 386.528320312 c 1,28,29
 1509.23242188 378.692382812 1509.23242188 378.692382812 1470.57617188 374.774414062 c 128,-1,30
 1431.91992188 370.857421875 1431.91992188 370.857421875 1391.17675781 370.76953125 c 0,31,32
 1217.65722656 370.893554688 1217.65722656 370.893554688 1121.6953125 450.177734375 c 128,-1,33
 1025.734375 529.462890625 1025.734375 529.462890625 1022.83789062 681.357421875 c 0,34,35
 1022.38769531 704.565429688 1022.38769531 704.565429688 1024.54296875 727.817382812 c 128,-1,36
 1026.69824219 751.069335938 1026.69824219 751.069335938 1031.22851562 772.770507812 c 0,37,38
 1063.22949219 942.584960938 1063.22949219 942.584960938 1155.14355469 1036.86425781 c 0,39,40
 1250.05175781 1135.015625 1250.05175781 1135.015625 1391.27636719 1134.88476562 c 0,41,42
 1486.76269531 1135.01660156 1486.76269531 1135.01660156 1560.03515625 1087.72265625 c 0,43,44
 1653.85351562 1027.02539062 1653.85351562 1027.02539062 1708.234375 914.393554688 c 128,-1,45
 1762.61425781 801.76171875 1762.61425781 801.76171875 1779.9453125 640.400390625 c 0,46,47
 1783.4609375 606.860351562 1783.4609375 606.860351562 1785.36523438 575.125 c 128,-1,48
 1787.26953125 543.389648438 1787.26953125 543.389648438 1787.56054688 513.411132812 c 0,0,1
1266.85839844 709.197265625 m 0,49,50
 1266.90722656 665.829101562 1266.90722656 665.829101562 1296.32617188 645.10546875 c 128,-1,51
 1325.74511719 624.381835938 1325.74511719 624.381835938 1403.93847656 624.684570312 c 0,52,53
 1466.24707031 625.154296875 1466.24707031 625.154296875 1529.90722656 640.2890625 c 1,54,55
 1522.5234375 685.271484375 1522.5234375 685.271484375 1511.92382812 722.171875 c 128,-1,56
 1501.32421875 759.072265625 1501.32421875 759.072265625 1487.09375 790.154296875 c 0,57,58
 1466.01367188 836.264648438 1466.01367188 836.264648438 1441.13183594 855.732421875 c 128,-1,59
 1416.24902344 875.19921875 1416.24902344 875.19921875 1384.78710938 875.30859375 c 0,60,61
 1347.91796875 875.200195312 1347.91796875 875.200195312 1321.70605469 851.021484375 c 128,-1,62
 1295.49414062 826.842773438 1295.49414062 826.842773438 1277.05761719 768.594726562 c 0,63,64
 1266.97363281 736.73828125 1266.97363281 736.73828125 1266.85839844 709.197265625 c 0,49,50
EndSplineSet
Substitution2: "'init' Initial Forms in Arabic lookup 13 subtable" uni06A1.init
Substitution2: "'medi' Medial Forms in Arabic lookup 11 subtable" uni06A1.medi
Substitution2: "'fina' Terminal Forms in Arabic lookup 9 subtable" uni06A1.fina
EndChar

StartChar: uni06A9
Encoding: 1705 1705 81
GlifName: uni06A_9
Width: 1878
VWidth: 2992
GlyphClass: 2
Flags: W
AnchorPoint: "Anchor-7" 750.268 -196.468 basechar 0
AnchorPoint: "Anchor-10" 1125.88 1475.07 basechar 0
LayerCount: 2
Fore
SplineSet
1558.61816406 726.829101562 m 0,0,1
 1699.21289062 574.399414062 1699.21289062 574.399414062 1696.70507812 389.703125 c 0,2,3
 1692.92773438 192.499023438 1692.92773438 192.499023438 1524.5234375 96.2490234375 c 128,-1,4
 1356.11816406 0 1356.11816406 0 1044.10449219 0 c 2,5,-1
 862.553710938 0 l 2,6,7
 471.247070312 0 471.247070312 0 265.16015625 131.106445312 c 128,-1,8
 59.0732421875 262.212890625 59.0732421875 262.212890625 59.16015625 525.854492188 c 0,9,10
 58.990234375 669.54296875 58.990234375 669.54296875 117.168945312 799.165039062 c 2,11,-1
 133.352539062 835.221679688 l 1,12,-1
 169.6015625 819.473632812 l 1,13,-1
 327.373046875 750.928710938 l 1,14,-1
 362.759765625 735.553710938 l 1,15,-1
 348.671875 699.635742188 l 2,16,17
 318.041992188 621.543945312 318.041992188 621.543945312 318.432617188 551.481445312 c 0,18,19
 319.108398438 410.411132812 319.108398438 410.411132812 449.646484375 337.202148438 c 128,-1,20
 580.184570312 263.993164062 580.184570312 263.993164062 862.553710938 263.993164062 c 2,21,-1
 1043.2734375 263.993164062 l 2,22,23
 1150.73046875 263.995117188 1150.73046875 263.995117188 1228.93164062 275.475585938 c 128,-1,24
 1307.1328125 286.955078125 1307.1328125 286.955078125 1351.68457031 308.025390625 c 128,-1,25
 1396.23730469 329.095703125 1396.23730469 329.095703125 1416.79492188 355.513671875 c 128,-1,26
 1437.35253906 381.931640625 1437.35253906 381.931640625 1437.21679688 414.9921875 c 0,27,28
 1437.03808594 495.666992188 1437.03808594 495.666992188 1346.34570312 580.921875 c 0,29,30
 1193.97363281 722.581054688 1193.97363281 722.581054688 1075.85253906 815.489257812 c 0,31,32
 1013.13867188 864.240234375 1013.13867188 864.240234375 979.649414062 919.249023438 c 128,-1,33
 946.159179688 974.258789062 946.159179688 974.258789062 946.411132812 1034.47753906 c 0,34,35
 946.165039062 1111.30957031 946.165039062 1111.30957031 989.493164062 1167.6640625 c 128,-1,36
 1032.8203125 1224.01855469 1032.8203125 1224.01855469 1112.40625 1254.24023438 c 2,37,-1
 1805.66308594 1517.49511719 l 1,38,-1
 1859.86328125 1538.07714844 l 1,39,-1
 1859.86328125 1480.10058594 l 1,40,-1
 1859.86328125 1299.46289062 l 1,41,-1
 1859.86328125 1271.68945312 l 1,42,-1
 1833.83984375 1261.984375 l 1,43,-1
 1225.09375 1034.96679688 l 1,44,45
 1451.71777344 842.006835938 1451.71777344 842.006835938 1558.61816406 726.829101562 c 0,0,1
EndSplineSet
Substitution2: "'init' Initial Forms in Arabic lookup 13 subtable" uniFB90
Substitution2: "'medi' Medial Forms in Arabic lookup 11 subtable" uniFB91
Substitution2: "'fina' Terminal Forms in Arabic lookup 9 subtable" uniFB8F
EndChar

StartChar: afii57514
Encoding: 1722 1722 83
GlifName: afii57514
Width: 1475
VWidth: 2992
GlyphClass: 2
Flags: W
AnchorPoint: "Anchor-10" 727.479 1237.75 basechar 0
AnchorPoint: "Anchor-7" 758.023 -683.042 basechar 0
LayerCount: 2
Fore
SplineSet
716.305664062 -199.6953125 m 0,0,1
 940.938476562 -198.89453125 940.938476562 -198.89453125 1046.21191406 -100.584960938 c 128,-1,2
 1151.48535156 -2.2744140625 1151.48535156 -2.2744140625 1151.03710938 203.381835938 c 0,3,4
 1151.00195312 385.790039062 1151.00195312 385.790039062 1065.05371094 562.611328125 c 2,5,-1
 1045.40527344 603.034179688 l 1,6,-1
 1087.8359375 617.859375 l 1,7,-1
 1260.9609375 678.346679688 l 1,8,-1
 1297.03027344 690.948242188 l 1,9,-1
 1311.27148438 655.495117188 l 2,10,11
 1412.01269531 404.702148438 1412.01269531 404.702148438 1411.67871094 202.060546875 c 0,12,13
 1410.96582031 6.59765625 1410.96582031 6.59765625 1340.18261719 -136.826171875 c 0,14,15
 1179.67773438 -457.03125 1179.67773438 -457.03125 706.993164062 -456.431640625 c 0,16,17
 392.484375 -456.206054688 392.484375 -456.206054688 228.065429688 -305.622070312 c 128,-1,18
 63.6455078125 -155.037109375 63.6455078125 -155.037109375 63.25 136.546875 c 0,19,20
 62.990234375 357.903320312 62.990234375 357.903320312 166.444335938 608.7109375 c 2,21,-1
 181.692382812 645.678710938 l 1,22,-1
 218.665039062 630.439453125 l 1,23,-1
 377.27734375 565.0625 l 1,24,-1
 413.755859375 550.02734375 l 1,25,-1
 399.221679688 513.345703125 l 2,26,27
 318.032226562 308.444335938 318.032226562 308.444335938 318.751953125 135.260742188 c 0,28,29
 319.779296875 -36.6259765625 319.779296875 -36.6259765625 415.334960938 -118.46875 c 128,-1,30
 510.889648438 -200.310546875 510.889648438 -200.310546875 716.305664062 -199.6953125 c 0,0,1
EndSplineSet
Substitution2: "'init' Initial Forms in Arabic lookup 13 subtable" uni06BA.init
Substitution2: "'medi' Medial Forms in Arabic lookup 11 subtable" uni06BA.medi
Substitution2: "'fina' Terminal Forms in Arabic lookup 9 subtable" uniFB9F
EndChar

StartChar: uni06F4
Encoding: 1780 1780 90
GlifName: uni06F_4
Width: 1244
VWidth: 2992
GlyphClass: 2
Flags: W
LayerCount: 2
Fore
SplineSet
1122.14648438 1310.74316406 m 5,0,-1
 1079.15136719 1138.35449219 l 5,1,-1
 1068.05175781 1093.8515625 l 5,2,-1
 1025.47167969 1110.90039062 l 6,3,4
 991 1125 991 1125 954.080078125 1131.98242188 c 4,5,6
 918 1139 918 1139 880.239257812 1138.92675781 c 4,7,8
 849 1139 849 1139 822.407226562 1133.94921875 c 4,9,10
 795 1129 795 1129 772.864257812 1119.39648438 c 4,11,12
 750 1110 750 1110 730.854492188 1095.57617188 c 4,13,14
 629 1020 629 1020 616.443359375 903.009765625 c 4,15,16
 616 899 616 899 618.74609375 896.463867188 c 4,17,18
 697 823 697 823 862.94921875 820.590820312 c 4,19,20
 914 820 914 820 980.923828125 832.549804688 c 4,21,22
 1042.71816803 844.327473587 1042.71816803 844.327473587 1100.08886719 867.594726562 c 6,23,-1
 1147.93457031 886.999023438 l 5,24,-1
 1154.76953125 835.823242188 l 5,25,-1
 1178.09667969 661.186523438 l 5,26,-1
 1182.07421875 631.4140625 l 5,27,-1
 1154.59179688 619.291992188 l 6,28,29
 1022 561 1022 561 873.107421875 561.181640625 c 4,30,31
 660 562 660 562 530.743164062 645.624023438 c 5,32,33
 554.115234375 455.060439439 554.115234375 455.060439439 554.115234375 268.771484375 c 2,34,-1
 554.115234375 51.5537109375 l 1,35,-1
 554.115234375 11.5537109375 l 1,36,-1
 514.115234375 11.5537109375 l 1,37,-1
 334.796875 11.5537109375 l 1,38,-1
 294.797851562 11.5537109375 l 1,39,-1
 294.796875 51.552734375 l 1,40,-1
 294.791992188 271.930664062 l 2,41,42
 294.999887036 903.656738595 294.999887036 903.656738595 109.013671875 1280.19335938 c 6,43,-1
 89.037109375 1320.63671875 l 5,44,-1
 131.579101562 1335.6328125 l 5,45,-1
 296.275390625 1393.68847656 l 5,46,-1
 334.202148438 1407.05761719 l 5,47,-1
 347.369140625 1369.05957031 l 6,48,49
 375 1288 375 1288 388.12109375 1250.54101562 c 4,50,51
 409 1189 409 1189 431.611328125 1122.34570312 c 5,52,53
 480 1236 480 1236 570.435546875 1310.76464844 c 4,54,55
 690 1410 690 1410 855.190429688 1409.43164062 c 4,56,57
 920 1409 920 1409 981.041015625 1396.03808594 c 132,-1,58
 1042.14366747 1382.96927198 1042.14366747 1382.96927198 1099.82714844 1356.86425781 c 6,59,-1
 1130.21875 1343.11035156 l 5,60,-1
 1122.14648438 1310.74316406 l 5,0,-1
EndSplineSet
EndChar

StartChar: uni06F5
Encoding: 1781 1781 91
GlifName: uni06F_5
Width: 1328
VWidth: 2992
GlyphClass: 2
Flags: W
LayerCount: 2
Fore
SplineSet
323.965820312 379.413085938 m 0,0,1
 324 278 324 278 398.056640625 277.844726562 c 0,2,3
 449 278 449 278 493.784179688 345.067382812 c 0,4,5
 539.011245278 412.016646296 539.011245278 412.016646296 570.584960938 560.881835938 c 2,6,-1
 577.314453125 592.610351562 l 1,7,-1
 767.818359375 592.44921875 l 1,8,-1
 773.459960938 559.162109375 l 2,9,10
 799 409 799 409 842.427734375 341.2890625 c 0,11,12
 886 274 886 274 939.26171875 274.079101562 c 0,13,14
 1004 274 1004 274 1003.97851562 379.678710938 c 0,15,16
 1004 575 1004 575 633.073242188 959.283203125 c 5,17,18
 324 541 324 541 323.965820312 379.413085938 c 0,0,1
383.447265625 11.9833984375 m 0,19,20
 69 12 69 12 68.9842727008 369.266601562 c 0,21,22
 69 637 69 637 442.087890625 1146.84082031 c 5,23,-1
 384.52734375 1200.72070312 l 5,24,-1
 559.745117188 1414.83203125 l 5,25,-1
 716.48828125 1266.140625 l 6,26,27
 1264 747 1264 747 1259.44238281 389.233398438 c 0,28,29
 1255 12 1255 12 954.297851562 11.943359375 c 0,30,31
 770 12 770 12 673.119140625 184.276367188 c 1,32,33
 579 12 579 12 383.447265625 11.9833984375 c 0,19,20
EndSplineSet
EndChar

StartChar: uni06F6
Encoding: 1782 1782 92
GlifName: uni06F_6
Width: 1124
VWidth: 2992
GlyphClass: 2
Flags: W
LayerCount: 2
Fore
SplineSet
645.9375 1140.50976562 m 4,0,1
 598 1141 598 1141 555.870117188 1136.3359375 c 4,2,3
 353 1113 353 1113 351.594726562 953.76953125 c 4,4,5
 351 876 351 876 418.25 833.40625 c 4,6,7
 501 782 501 782 647.400390625 780.4140625 c 5,8,9
 884 904 884 904 1011.65820312 936.467773438 c 5,10,-1
 1013.84570312 883.4140625 l 5,11,-1
 1021.52246094 697.28515625 l 5,12,-1
 1022.63476562 670.318359375 l 5,13,14
 582 453 582 453 341.008789062 -38.2138671875 c 1,15,-1
 305.55078125 -26.3388671875 l 1,16,-1
 136.307617188 30.34375 l 1,17,-1
 96.5302734375 43.666015625 l 1,18,19
 217 324 217 324 442.178710938 556.385742188 c 5,20,21
 267 590 267 590 175.958984375 695.513671875 c 4,22,23
 87 799 87 799 87.7236328125 966.288085938 c 4,24,25
 88 1016 88 1016 99.1396484375 1062.4609375 c 4,26,27
 110 1108 110 1108 130.499023438 1150.05761719 c 4,28,29
 209 1310 209 1310 375.186523438 1369.23144531 c 4,30,31
 477 1406 477 1406 608.981445312 1406.03125 c 4,32,33
 691 1406 691 1406 823.682617188 1385.78222656 c 5,34,-1
 817.946289062 1346.45800781 l 5,35,-1
 792.080078125 1169.14941406 l 5,36,-1
 786.579101562 1131.44238281 l 5,37,38
 693 1141 693 1141 645.9375 1140.50976562 c 4,0,1
EndSplineSet
EndChar

StartChar: uniFB8F
Encoding: 64399 64399 107
GlifName: uniF_B_8F_
Width: 1954
VWidth: 2992
GlyphClass: 2
Flags: W
AnchorPoint: "Anchor-10" 1170.88 1478.07 basechar 0
AnchorPoint: "Anchor-7" 750.268 -196.468 basechar 0
LayerCount: 2
Fore
SplineSet
860.911132812 0 m 2,0,1
 470.409179688 0 470.409179688 0 264.741210938 131.119140625 c 128,-1,2
 59.0732421875 262.239257812 59.0732421875 262.239257812 59.16015625 525.854492188 c 0,3,4
 58.990234375 669.54296875 58.990234375 669.54296875 117.168945312 799.165039062 c 2,5,-1
 133.352539062 835.221679688 l 1,6,-1
 169.6015625 819.473632812 l 1,7,-1
 327.373046875 750.928710938 l 1,8,-1
 362.759765625 735.553710938 l 1,9,-1
 348.671875 699.635742188 l 2,10,11
 318.041992188 621.543945312 318.041992188 621.543945312 318.432617188 551.481445312 c 0,12,13
 319.108398438 410.3671875 319.108398438 410.3671875 449.241210938 337.1796875 c 128,-1,14
 579.374023438 263.993164062 579.374023438 263.993164062 860.911132812 263.993164062 c 2,15,-1
 1042.63085938 263.993164062 l 2,16,17
 1104.60742188 263.994140625 1104.60742188 263.994140625 1157.00878906 267.952148438 c 128,-1,18
 1209.41015625 271.91015625 1209.41015625 271.91015625 1249.44042969 279.115234375 c 128,-1,19
 1289.47070312 286.319335938 1289.47070312 286.319335938 1321.05273438 296.852539062 c 128,-1,20
 1352.63574219 307.384765625 1352.63574219 307.384765625 1374.14160156 320.08203125 c 128,-1,21
 1395.6484375 332.780273438 1395.6484375 332.780273438 1409.75585938 348.20703125 c 128,-1,22
 1423.86425781 363.633789062 1423.86425781 363.633789062 1430.19140625 380.14453125 c 128,-1,23
 1436.51855469 396.654296875 1436.51855469 396.654296875 1436.57421875 415.265625 c 0,24,25
 1436.92480469 495.700195312 1436.92480469 495.700195312 1345.74707031 580.879882812 c 0,26,27
 1188.03515625 727.5234375 1188.03515625 727.5234375 1075.234375 815.470703125 c 0,28,29
 946.045898438 916.461914062 946.045898438 916.461914062 945.768554688 1034.44628906 c 0,30,31
 945.90625 1111.56347656 945.90625 1111.56347656 989.163085938 1167.83691406 c 128,-1,32
 1032.42089844 1224.11035156 1032.42089844 1224.11035156 1111.76367188 1254.24023438 c 2,33,-1
 1805.02050781 1517.49511719 l 1,34,-1
 1859.22070312 1538.07714844 l 1,35,-1
 1859.22070312 1480.10058594 l 1,36,-1
 1859.22070312 1299.46289062 l 1,37,-1
 1859.22070312 1271.68945312 l 1,38,-1
 1833.19726562 1261.984375 l 1,39,-1
 1224.62304688 1035.03125 l 1,40,41
 1448.2890625 845.35546875 1448.2890625 845.35546875 1557.95800781 726.848632812 c 0,42,43
 1601.2109375 680.216796875 1601.2109375 680.216796875 1635.58300781 620.465820312 c 128,-1,44
 1669.95507812 560.713867188 1669.95507812 560.713867188 1695.6171875 488.264648438 c 0,45,46
 1737.06542969 371.528320312 1737.06542969 371.528320312 1798.76953125 317.760742188 c 128,-1,47
 1860.47460938 263.993164062 1860.47460938 263.993164062 1945.76367188 263.993164062 c 2,48,-1
 1962.08300781 263.993164062 l 2,49,50
 1974.38378906 263.997070312 1974.38378906 263.997070312 1984.12988281 259.966796875 c 128,-1,51
 1993.875 255.936523438 1993.875 255.936523438 2000.14941406 250.838867188 c 128,-1,52
 2006.42285156 245.740234375 2006.42285156 245.740234375 2010.90527344 235.474609375 c 128,-1,53
 2015.38671875 225.208984375 2015.38671875 225.208984375 2017.62207031 218.51953125 c 128,-1,54
 2019.85742188 211.830078125 2019.85742188 211.830078125 2021.03417969 198.455078125 c 128,-1,55
 2022.20996094 185.081054688 2022.20996094 185.081054688 2022.36425781 179.92578125 c 128,-1,56
 2022.51855469 174.770507812 2022.51855469 174.770507812 2022.34570312 161.413085938 c 128,-1,57
 2022.17382812 148.0546875 2022.17382812 148.0546875 2022.17382812 147.174804688 c 2,58,-1
 2022.17382812 128.265625 l 2,59,60
 2022.16894531 125.686523438 2022.16894531 125.686523438 2022.55273438 109.576171875 c 128,-1,61
 2022.93652344 93.4658203125 2022.93652344 93.4658203125 2022.50097656 85.5849609375 c 128,-1,62
 2022.06542969 77.7041015625 2022.06542969 77.7041015625 2020.69042969 62.1748046875 c 128,-1,63
 2019.31445312 46.6455078125 2019.31445312 46.6455078125 2015.22070312 37.92578125 c 128,-1,64
 2011.12695312 29.2060546875 2011.12695312 29.2060546875 2004.80273438 19.2099609375 c 128,-1,65
 1998.47851562 9.212890625 1998.47851562 9.212890625 1987.53710938 4.6064453125 c 128,-1,66
 1976.59667969 0 1976.59667969 0 1962.09570312 0 c 2,67,-1
 1945.65722656 0 l 2,68,69
 1841.60253906 0 1841.60253906 0 1753.54589844 38.7666015625 c 128,-1,70
 1665.48925781 77.5322265625 1665.48925781 77.5322265625 1597.40722656 153.045898438 c 1,71,72
 1522.39355469 73.8037109375 1522.39355469 73.8037109375 1384.33300781 36.9013671875 c 128,-1,73
 1246.27148438 0 1246.27148438 0 1043.46191406 0 c 2,74,-1
 860.911132812 0 l 2,0,1
EndSplineSet
EndChar

StartChar: uniFB9F
Encoding: 64415 64415 115
GlifName: uniF_B_9F_
Width: 1549
VWidth: 2992
GlyphClass: 2
Flags: W
AnchorPoint: "Anchor-10" 703.458 1406.61 basechar 0
AnchorPoint: "Anchor-7" 595.902 -760.086 basechar 0
LayerCount: 2
Fore
SplineSet
1405.52539062 25.4482421875 m 1,0,1
 1398.78320312 -30.958984375 1398.78320312 -30.958984375 1382.46777344 -85.453125 c 128,-1,2
 1366.15234375 -139.948242188 1366.15234375 -139.948242188 1339.83105469 -194.499023438 c 0,3,4
 1179.90722656 -520.015625 1179.90722656 -520.015625 707.327148438 -519.724609375 c 0,5,6
 391.53125 -519.868164062 391.53125 -519.868164062 226.70703125 -367.251953125 c 128,-1,7
 61.8837890625 -214.635742188 61.8837890625 -214.635742188 61.7529296875 81.0595703125 c 0,8,9
 62.009765625 293.97265625 62.009765625 293.97265625 166.068359375 545.420898438 c 2,10,-1
 181.341796875 582.328125 l 1,11,-1
 218.271484375 567.106445312 l 1,12,-1
 376.791992188 501.768554688 l 1,13,-1
 413.215820312 486.755859375 l 1,14,-1
 398.7578125 450.108398438 l 2,15,16
 318.01171875 245.42578125 318.01171875 245.42578125 318.268554688 82.8779296875 c 0,17,18
 318.145507812 -94.30078125 318.145507812 -94.30078125 413.469726562 -178.704101562 c 128,-1,19
 508.793945312 -263.107421875 508.793945312 -263.107421875 714.401367188 -263.203125 c 0,20,21
 938.413085938 -263.107421875 938.413085938 -263.107421875 1044.12109375 -164.274414062 c 128,-1,22
 1149.83007812 -65.4404296875 1149.83007812 -65.4404296875 1150.5546875 142.051757812 c 0,23,24
 1150.97753906 316.815429688 1150.97753906 316.815429688 1064.49023438 494.2421875 c 2,25,-1
 1044.77441406 534.689453125 l 1,26,-1
 1087.25292969 549.530273438 l 1,27,-1
 1259.89453125 609.84765625 l 1,28,-1
 1298.63378906 623.381835938 l 1,29,-1
 1311.17382812 584.310546875 l 1,30,-1
 1384.34570312 356.33203125 l 2,31,32
 1399.56933594 309.135742188 1399.56933594 309.135742188 1435.78320312 286.567382812 c 128,-1,33
 1471.99707031 263.999023438 1471.99707031 263.999023438 1539.02050781 263.999023438 c 2,34,-1
 1558.1328125 263.999023438 l 2,35,36
 1568.90625 264 1568.90625 264 1577.72851562 261.4921875 c 128,-1,37
 1586.55078125 258.985351562 1586.55078125 258.985351562 1592.61035156 253.201171875 c 128,-1,38
 1598.66992188 247.416992188 1598.66992188 247.416992188 1603.31347656 242.259765625 c 128,-1,39
 1607.95605469 237.102539062 1607.95605469 237.102539062 1610.6328125 227.3671875 c 128,-1,40
 1613.30859375 217.631835938 1613.30859375 217.631835938 1615.0859375 211.953125 c 128,-1,41
 1616.86230469 206.275390625 1616.86230469 206.275390625 1617.46875 194.717773438 c 128,-1,42
 1618.07421875 183.16015625 1618.07421875 183.16015625 1618.29785156 179.08984375 c 128,-1,43
 1618.52050781 175.01953125 1618.52050781 175.01953125 1618.37011719 163.76953125 c 128,-1,44
 1618.21875 152.518554688 1618.21875 152.518554688 1618.21875 151.889648438 c 2,45,-1
 1618.21875 128.26171875 l 2,46,47
 1618.20898438 124.21875 1618.20898438 124.21875 1618.43066406 114.577148438 c 0,48,49
 1621.06933594 -0 1621.06933594 -0 1558.13671875 -0 c 2,50,-1
 1543.41894531 0 l 2,51,52
 1463.26074219 0 1463.26074219 0 1405.52539062 25.4482421875 c 1,0,1
EndSplineSet
EndChar

StartChar: uniFBE8
Encoding: 64488 64488 118
GlifName: uniF_B_E_8
Width: 646
VWidth: 2992
GlyphClass: 2
Flags: W
AnchorPoint: "Anchor-10" 311.384 1393 basechar 0
AnchorPoint: "Anchor-7" 303.422 -183.625 basechar 0
LayerCount: 2
Fore
SplineSet
68.673828125 0 m 2,0,-1
 -6.9384765625 0 l 2,1,2
 -56.1552734375 0 -56.1552734375 0 -80.466796875 37.21484375 c 128,-1,3
 -104.778320312 74.4287109375 -104.778320312 74.4287109375 -104.778320312 128.313476562 c 2,4,-1
 -104.778320312 147.119140625 l 2,5,6
 -104.920898438 196.380859375 -104.920898438 196.380859375 -79.5087890625 230.186523438 c 128,-1,7
 -54.09765625 263.993164062 -54.09765625 263.993164062 -6.9384765625 263.993164062 c 2,8,-1
 68.6826171875 263.993164062 l 2,9,10
 217.819335938 264 217.819335938 264 265.602539062 290.827148438 c 0,11,12
 331.032226562 329.478515625 331.032226562 329.478515625 331.221679688 465.024414062 c 0,13,14
 331.008789062 579.005859375 331.008789062 579.005859375 295.549804688 719.869140625 c 2,15,-1
 285.784179688 758.663085938 l 1,16,-1
 324.579101562 768.424804688 l 1,17,-1
 487.6640625 809.458984375 l 1,18,-1
 524.342773438 818.6875 l 1,19,-1
 535.609375 782.583007812 l 2,20,21
 585.990234375 621.125976562 585.990234375 621.125976562 586.223632812 468.340820312 c 0,22,23
 585.1484375 203.12890625 585.1484375 203.12890625 429.655273438 85.318359375 c 0,24,25
 400.233398438 62.9404296875 400.233398438 62.9404296875 362.587890625 46.61328125 c 128,-1,26
 324.943359375 30.28515625 324.943359375 30.28515625 279.422851562 20.0390625 c 128,-1,27
 233.90234375 9.7919921875 233.90234375 9.7919921875 181.791015625 4.8955078125 c 128,-1,28
 129.6796875 -0 129.6796875 -0 68.673828125 0 c 2,0,-1
EndSplineSet
EndChar

StartChar: uniFBE9
Encoding: 64489 64489 119
GlifName: uniF_B_E_9
Width: 717
VWidth: 2992
GlyphClass: 2
Flags: W
AnchorPoint: "Anchor-10" 315.665 1337.09 basechar 0
AnchorPoint: "Anchor-7" 350.537 -137.742 basechar 0
LayerCount: 2
Fore
SplineSet
784.731445312 128.340820312 m 2,0,1
 784.731445312 124.763671875 784.731445312 124.763671875 785.006835938 112.06640625 c 128,-1,2
 785.282226562 99.3701171875 785.282226562 99.3701171875 785.278320312 91.83984375 c 128,-1,3
 785.275390625 84.3095703125 785.275390625 84.3095703125 784.258789062 71.126953125 c 128,-1,4
 783.2421875 57.9453125 783.2421875 57.9453125 781.131835938 49.521484375 c 128,-1,5
 779.020507812 41.09765625 779.020507812 41.09765625 774.577148438 30.748046875 c 128,-1,6
 770.133789062 20.3984375 770.133789062 20.3984375 763.779296875 14.3984375 c 128,-1,7
 757.42578125 8.3984375 757.42578125 8.3984375 747.419921875 4.19921875 c 128,-1,8
 737.4140625 0 737.4140625 0 724.650390625 0 c 2,9,-1
 715.006835938 0 l 2,10,11
 530.043945312 0 530.043945312 0 438.329101562 114.435546875 c 1,12,13
 322.857421875 0 322.857421875 0 95.759765625 0 c 2,14,-1
 -8.1171875 0 l 2,15,16
 -57.064453125 0 -57.064453125 0 -80.9208984375 37.2822265625 c 128,-1,17
 -104.778320312 74.5654296875 -104.778320312 74.5654296875 -104.778320312 128.313476562 c 2,18,-1
 -104.778320312 147.12890625 l 2,19,20
 -104.869140625 178.595703125 -104.869140625 178.595703125 -94.7978515625 204.424804688 c 128,-1,21
 -84.7255859375 230.252929688 -84.7255859375 230.252929688 -62.2412109375 247.123046875 c 128,-1,22
 -39.7578125 263.993164062 -39.7578125 263.993164062 -8.1171875 263.993164062 c 2,23,-1
 91.01171875 263.993164062 l 2,24,25
 288.745117188 263.999023438 288.745117188 263.999023438 307.221679688 363.477539062 c 0,26,27
 313.022460938 394.793945312 313.022460938 394.793945312 313.291992188 439.267578125 c 0,28,29
 313.0078125 487.62890625 313.0078125 487.62890625 310.094726562 531.000976562 c 2,30,-1
 304.604492188 612.756835938 l 1,31,-1
 302.0546875 650.7265625 l 1,32,-1
 339.850585938 655.1640625 l 1,33,-1
 504.657226562 674.51171875 l 1,34,-1
 546.315429688 679.40234375 l 1,35,-1
 549.224609375 637.55859375 l 1,36,-1
 565.294921875 406.408203125 l 2,37,38
 570.657226562 330.022460938 570.657226562 330.022460938 605.799804688 297.0078125 c 128,-1,39
 640.942382812 263.993164062 640.942382812 263.993164062 716.57421875 263.993164062 c 2,40,-1
 724.637695312 263.993164062 l 2,41,42
 739.041015625 263.998046875 739.041015625 263.998046875 749.940429688 259.526367188 c 128,-1,43
 760.83984375 255.055664062 760.83984375 255.055664062 767.159179688 245.01953125 c 128,-1,44
 773.479492188 234.984375 773.479492188 234.984375 777.600585938 226.741210938 c 128,-1,45
 781.72265625 218.499023438 781.72265625 218.499023438 783.127929688 202.788085938 c 128,-1,46
 784.533203125 187.078125 784.533203125 187.078125 785.008789062 179.974609375 c 128,-1,47
 785.485351562 172.87109375 785.485351562 172.87109375 785.108398438 156.396484375 c 128,-1,48
 784.731445312 139.920898438 784.731445312 139.920898438 784.731445312 138.322265625 c 2,49,-1
 784.731445312 128.340820312 l 2,0,1
EndSplineSet
EndChar

StartChar: uniFE73
Encoding: 65139 65139 127
GlifName: uniF_E_73
Width: 672
VWidth: 2992
GlyphClass: 2
Flags: W
AnchorPoint: "Anchor-10" 342.943 1052.47 basechar 0
AnchorPoint: "Anchor-7" 416.943 -166.304 basechar 0
LayerCount: 2
Fore
SplineSet
340.336914062 466.018554688 m 2,0,1
 340.336914062 363.178710938 340.336914062 363.178710938 405.239257812 313.760742188 c 128,-1,2
 470.141601562 264.342773438 470.141601562 264.342773438 618.00390625 264.342773438 c 2,3,-1
 688.674804688 264.342773438 l 1,4,-1
 728.674804688 264.342773438 l 1,5,-1
 728.674804688 224.342773438 l 1,6,-1
 728.674804688 41.5537109375 l 1,7,-1
 728.674804688 1.5537109375 l 1,8,-1
 688.674804688 1.5537109375 l 1,9,-1
 607.989257812 1.5537109375 l 2,10,11
 434.508789062 1.708984375 434.508789062 1.708984375 314.567382812 54.0283203125 c 128,-1,12
 194.626953125 106.34765625 194.626953125 106.34765625 132.0859375 210.958007812 c 128,-1,13
 69.544921875 315.568359375 69.544921875 315.568359375 69.544921875 468.563476562 c 2,14,-1
 69.544921875 492.69140625 l 1,15,-1
 69.544921875 532.69140625 l 1,16,-1
 109.544921875 532.69140625 l 1,17,-1
 300.336914062 532.69140625 l 1,18,-1
 340.336914062 532.69140625 l 1,19,-1
 340.336914062 492.69140625 l 1,20,-1
 340.336914062 466.018554688 l 2,0,1
EndSplineSet
EndChar

StartChar: uniFE8E
Encoding: 65166 65166 153
GlifName: uniF_E_8E_
Width: 531
VWidth: 2992
GlyphClass: 2
Flags: W
AnchorPoint: "Anchor-10" 234.697 1539.11 basechar 0
AnchorPoint: "Anchor-7" 296.078 -199.903 basechar 0
LayerCount: 2
Fore
SplineSet
598.618164062 128.623046875 m 5,0,1
 600 64 600 64 593.637695312 43.2001953125 c 4,2,3
 579 0 579 0 538.537109375 0 c 6,4,-1
 517.658203125 0 l 6,5,6
 110.283203125 0 110.283203125 0 110.283203125 474.395507812 c 2,7,-1
 110.283203125 1368.171875 l 1,8,-1
 110.283203125 1408.171875 l 1,9,-1
 150.283203125 1408.171875 l 1,10,-1
 323.598632812 1408.171875 l 1,11,-1
 363.598632812 1408.171875 l 1,12,-1
 363.598632812 1368.171875 l 1,13,-1
 363.598632812 476.482421875 l 2,14,15
 364.000012913 263.993164062 364.000012913 263.993164062 520.712890625 263.993164062 c 6,16,-1
 538.524414062 263.993164062 l 6,17,18
 551 264 551 264 560.571289062 259.966796875 c 132,-1,19
 570 256 570 256 576.590820312 250.838867188 c 4,20,21
 583 246 583 246 587.34765625 235.474609375 c 4,22,23
 592 225 592 225 594.065429688 218.521484375 c 132,-1,24
 596 212 596 212 597.477539062 198.456054688 c 132,-1,25
 599 185 599 185 598.807617188 179.927734375 c 4,26,27
 599 175 599 175 598.790039062 161.413085938 c 4,28,29
 599 148 599 148 598.618164062 147.174804688 c 6,30,-1
 598.618164062 128.623046875 l 5,0,1
EndSplineSet
EndChar

StartChar: uniFEA2
Encoding: 65186 65186 173
GlifName: uniF_E_A_2
Width: 1386
VWidth: 2992
GlyphClass: 2
Flags: W
AnchorPoint: "Anchor-7" 580.833 -770.619 basechar 0
AnchorPoint: "Anchor-10" 649.478 1302.07 basechar 0
LayerCount: 2
Fore
SplineSet
1297.796875 697.709960938 m 1,0,-1
 1284.80273438 523.87890625 l 1,1,-1
 1282.24023438 489.594726562 l 1,2,-1
 1247.95996094 486.9765625 l 2,3,4
 1207.15136719 483.859375 1207.15136719 483.859375 1167.34960938 479.900390625 c 128,-1,5
 1127.54785156 475.94140625 1127.54785156 475.94140625 1090.55273438 471.345703125 c 1,6,7
 1097.1953125 362.661132812 1097.1953125 362.661132812 1153.90332031 313.154296875 c 128,-1,8
 1210.61132812 263.6484375 1210.61132812 263.6484375 1330.48242188 264.061523438 c 2,9,-1
 1394.1015625 264.280273438 l 2,10,11
 1404.88378906 264.130859375 1404.88378906 264.130859375 1413.70214844 261.508789062 c 128,-1,12
 1422.52050781 258.88671875 1422.52050781 258.88671875 1428.57128906 253.1484375 c 128,-1,13
 1434.62207031 247.409179688 1434.62207031 247.409179688 1439.24804688 242.12890625 c 128,-1,14
 1443.87402344 236.84765625 1443.87402344 236.84765625 1446.53320312 227.3203125 c 128,-1,15
 1449.19140625 217.791992188 1449.19140625 217.791992188 1450.94726562 211.922851562 c 128,-1,16
 1452.70410156 206.053710938 1452.70410156 206.053710938 1453.29199219 194.806640625 c 128,-1,17
 1453.88085938 183.560546875 1453.88085938 183.560546875 1454.08886719 179.172851562 c 128,-1,18
 1454.29785156 174.78515625 1454.29785156 174.78515625 1454.13769531 163.890625 c 128,-1,19
 1453.97851562 152.99609375 1453.97851562 152.99609375 1453.97851562 151.889648438 c 2,20,-1
 1453.97851562 128.321289062 l 2,21,22
 1453.97949219 126.015625 1453.97949219 126.015625 1454.38574219 109.641601562 c 128,-1,23
 1454.79296875 93.2666015625 1454.79296875 93.2666015625 1454.35351562 85.58984375 c 128,-1,24
 1453.91503906 77.9140625 1453.91503906 77.9140625 1452.546875 62.216796875 c 128,-1,25
 1451.1796875 46.5185546875 1451.1796875 46.5185546875 1447.07714844 37.9130859375 c 128,-1,26
 1442.97460938 29.306640625 1442.97460938 29.306640625 1436.64648438 19.2373046875 c 128,-1,27
 1430.31738281 9.16796875 1430.31738281 9.16796875 1419.36425781 4.583984375 c 128,-1,28
 1408.41210938 0 1408.41210938 0 1393.8984375 0 c 2,29,-1
 1331.49511719 0 l 2,30,31
 1111.30078125 0 1111.30078125 0 989.620117188 108.508789062 c 128,-1,32
 867.939453125 217.017578125 867.939453125 217.017578125 857.247070312 424.109375 c 1,33,34
 589.927734375 348.783203125 589.927734375 348.783203125 462.533203125 221.091796875 c 128,-1,35
 335.139648438 93.400390625 335.139648438 93.400390625 335.249023438 -89.3046875 c 0,36,37
 335.137695312 -254.271484375 335.137695312 -254.271484375 452.982421875 -336.079101562 c 128,-1,38
 570.827148438 -417.887695312 570.827148438 -417.887695312 826.3984375 -417.783203125 c 0,39,40
 1033.953125 -417.991210938 1033.953125 -417.991210938 1226.06542969 -326.192382812 c 2,41,-1
 1272.37695312 -304.0625 l 1,42,-1
 1282.52246094 -354.376953125 l 1,43,-1
 1318.58203125 -533.204101562 l 1,44,-1
 1324.70214844 -563.553710938 l 1,45,-1
 1296.85449219 -577.086914062 l 2,46,47
 1089.22265625 -677.991210938 1089.22265625 -677.991210938 811.534179688 -678.249023438 c 0,48,49
 408.517578125 -677.98828125 408.517578125 -677.98828125 224.650390625 -479.484375 c 0,50,51
 85.001953125 -328.677734375 85.001953125 -328.677734375 84.98046875 -104.543945312 c 0,52,53
 84.990234375 177.5703125 84.990234375 177.5703125 246.215820312 367.140625 c 128,-1,54
 407.442382812 556.709960938 407.442382812 556.709960938 720.944335938 648.379882812 c 1,55,56
 534.04296875 723.96484375 534.04296875 723.96484375 469.58203125 723.6875 c 0,57,58
 437.627929688 723.776367188 437.627929688 723.776367188 410.587890625 715.522460938 c 128,-1,59
 383.547851562 707.26953125 383.547851562 707.26953125 359.897460938 689.971679688 c 128,-1,60
 336.248046875 672.673828125 336.248046875 672.673828125 315.234375 645.607421875 c 2,61,-1
 287.206054688 609.504882812 l 1,62,-1
 267.182617188 583.711914062 l 1,63,-1
 237.903320312 598.166992188 l 1,64,-1
 84.04296875 674.126953125 l 1,65,-1
 44.9541015625 693.424804688 l 1,66,-1
 67.5341796875 730.713867188 l 1,67,-1
 84.244140625 758.306640625 l 2,68,69
 222.5 986.015625 222.5 986.015625 471.779296875 985.841796875 c 0,70,71
 506.51171875 985.885742188 506.51171875 985.885742188 544.037109375 980.161132812 c 128,-1,72
 581.563476562 974.435546875 581.563476562 974.435546875 621.6796875 963.017578125 c 128,-1,73
 661.796875 951.598632812 661.796875 951.598632812 704.245117188 934.920898438 c 128,-1,74
 746.693359375 918.243164062 746.693359375 918.243164062 792.490234375 895.999023438 c 0,75,76
 1097.03222656 747.607421875 1097.03222656 747.607421875 1259.6171875 740.655273438 c 2,77,-1
 1300.875 738.890625 l 1,78,-1
 1297.796875 697.709960938 l 1,0,-1
EndSplineSet
EndChar

StartChar: uniFEA3
Encoding: 65187 65187 174
GlifName: uniF_E_A_3
Width: 1337
VWidth: 2992
GlyphClass: 2
Flags: W
AnchorPoint: "Anchor-10" 565.825 1220.07 basechar 0
AnchorPoint: "Anchor-7" 513.524 -194.745 basechar 0
LayerCount: 2
Fore
SplineSet
-6.9384765625 0 m 2,0,1
 -56.1552734375 0 -56.1552734375 0 -80.466796875 37.21484375 c 128,-1,2
 -104.778320312 74.4287109375 -104.778320312 74.4287109375 -104.778320312 128.313476562 c 2,3,-1
 -104.778320312 147.12890625 l 2,4,5
 -104.920898438 196.388671875 -104.920898438 196.388671875 -79.5087890625 230.194335938 c 128,-1,6
 -54.09765625 263.999023438 -54.09765625 263.999023438 -6.9384765625 263.999023438 c 2,7,-1
 52.54296875 263.999023438 l 2,8,9
 371.254882812 264 371.254882812 264 844.100585938 507.005859375 c 1,10,11
 792.708007812 527.21484375 792.708007812 527.21484375 711.897460938 559.967773438 c 0,12,13
 523.3359375 635.961914062 523.3359375 635.961914062 460.35546875 635.657226562 c 0,14,15
 366.08203125 635.942382812 366.08203125 635.942382812 305.243164062 557.578125 c 2,16,-1
 277.21484375 521.475585938 l 1,17,-1
 257.19140625 495.682617188 l 1,18,-1
 227.912109375 510.137695312 l 1,19,-1
 74.0517578125 586.09765625 l 1,20,-1
 34.962890625 605.395507812 l 1,21,-1
 57.54296875 642.684570312 l 1,22,-1
 74.234375 670.247070312 l 2,23,24
 141.737304688 781.795898438 141.737304688 781.795898438 239.647460938 839.583007812 c 128,-1,25
 337.55859375 897.370117188 337.55859375 897.370117188 461.231445312 897.8125 c 0,26,27
 597.174804688 898.013671875 597.174804688 898.013671875 782.5 807.96875 c 0,28,29
 1087.03417969 659.606445312 1087.03417969 659.606445312 1249.6328125 652.625 c 2,30,-1
 1288.32128906 650.963867188 l 1,31,-1
 1287.91503906 612.2421875 l 1,32,-1
 1286.08984375 438.573242188 l 1,33,-1
 1285.70800781 402.282226562 l 1,34,-1
 1249.55175781 399.143554688 l 2,35,36
 1142.49609375 389.84765625 1142.49609375 389.84765625 840.33203125 230.764648438 c 0,37,38
 402.904296875 0 402.904296875 0 40.767578125 0 c 2,39,-1
 -6.9384765625 0 l 2,0,1
EndSplineSet
EndChar

StartChar: uniFEA4
Encoding: 65188 65188 175
GlifName: uniF_E_A_4
Width: 1351
VWidth: 2992
GlyphClass: 2
Flags: W
AnchorPoint: "Anchor-10" 565.825 1220.07 basechar 0
AnchorPoint: "Anchor-7" 513.524 -194.745 basechar 0
LayerCount: 2
Fore
SplineSet
843.986328125 506.947265625 m 1,0,1
 818.248046875 517.080078125 818.248046875 517.080078125 785.276367188 530.315429688 c 128,-1,2
 752.3046875 543.55078125 752.3046875 543.55078125 711.881835938 559.974609375 c 0,3,4
 523.3359375 635.961914062 523.3359375 635.961914062 460.35546875 635.657226562 c 0,5,6
 366.08203125 635.942382812 366.08203125 635.942382812 305.243164062 557.578125 c 2,7,-1
 277.21484375 521.475585938 l 1,8,-1
 257.19140625 495.682617188 l 1,9,-1
 227.912109375 510.137695312 l 1,10,-1
 74.0517578125 586.09765625 l 1,11,-1
 34.962890625 605.395507812 l 1,12,-1
 57.54296875 642.684570312 l 1,13,-1
 74.234375 670.247070312 l 2,14,15
 141.737304688 781.795898438 141.737304688 781.795898438 239.647460938 839.583007812 c 128,-1,16
 337.55859375 897.370117188 337.55859375 897.370117188 461.231445312 897.8125 c 0,17,18
 597.174804688 898.013671875 597.174804688 898.013671875 782.5 807.96875 c 0,19,20
 1087.03417969 659.606445312 1087.03417969 659.606445312 1249.6328125 652.625 c 2,21,-1
 1288.32128906 650.963867188 l 1,22,-1
 1287.91503906 612.2421875 l 1,23,-1
 1286.08984375 438.573242188 l 1,24,-1
 1285.703125 401.778320312 l 1,25,-1
 1249.00390625 399.099609375 l 2,26,27
 1183.25585938 394.298828125 1183.25585938 394.298828125 1082.67871094 346.819335938 c 1,28,29
 1094.00390625 309.853515625 1094.00390625 309.853515625 1149.90429688 287.06640625 c 128,-1,30
 1205.8046875 264.279296875 1205.8046875 264.279296875 1316.61132812 264.279296875 c 2,31,-1
 1360.66894531 264.279296875 l 2,32,33
 1371.4296875 264.133789062 1371.4296875 264.133789062 1380.23339844 261.522460938 c 128,-1,34
 1389.03710938 258.911132812 1389.03710938 258.911132812 1395.08105469 253.151367188 c 128,-1,35
 1401.12402344 247.391601562 1401.12402344 247.391601562 1405.74707031 242.149414062 c 128,-1,36
 1410.37011719 236.908203125 1410.37011719 236.908203125 1413.03027344 227.327148438 c 128,-1,37
 1415.68945312 217.745117188 1415.68945312 217.745117188 1417.44921875 211.944335938 c 128,-1,38
 1419.20800781 206.143554688 1419.20800781 206.143554688 1419.80078125 194.811523438 c 128,-1,39
 1420.39453125 183.478515625 1420.39453125 183.478515625 1420.60644531 179.189453125 c 128,-1,40
 1420.81933594 174.899414062 1420.81933594 174.899414062 1420.66210938 163.887695312 c 128,-1,41
 1420.50585938 152.875976562 1420.50585938 152.875976562 1420.50585938 151.889648438 c 2,42,-1
 1420.50585938 128.439453125 l 2,43,44
 1420.51464844 126.919921875 1420.51464844 126.919921875 1420.98339844 109.802734375 c 128,-1,45
 1421.45214844 92.685546875 1421.45214844 92.685546875 1421.00097656 85.595703125 c 128,-1,46
 1420.54980469 78.5068359375 1420.54980469 78.5068359375 1419.20605469 62.3330078125 c 128,-1,47
 1417.86328125 46.1591796875 1417.86328125 46.1591796875 1413.73632812 37.876953125 c 128,-1,48
 1409.61035156 29.59375 1409.61035156 29.59375 1403.2734375 19.318359375 c 128,-1,49
 1396.9375 9.04296875 1396.9375 9.04296875 1385.95507812 4.521484375 c 128,-1,50
 1374.97265625 0 1374.97265625 0 1360.42773438 0 c 2,51,-1
 1301.09667969 0 l 2,52,53
 1185.91894531 0 1185.91894531 0 1099.1796875 26.66796875 c 128,-1,54
 1012.43945312 53.3369140625 1012.43945312 53.3369140625 954.6640625 109.26953125 c 128,-1,55
 896.887695312 165.202148438 896.887695312 165.202148438 874.66015625 248.680664062 c 1,56,57
 868.5859375 245.544921875 868.5859375 245.544921875 862.953125 242.616210938 c 128,-1,58
 857.3203125 239.686523438 857.3203125 239.686523438 851.830078125 236.810546875 c 128,-1,59
 846.33984375 233.93359375 846.33984375 233.93359375 840.346679688 230.772460938 c 0,60,61
 402.904296875 0 402.904296875 0 40.767578125 0 c 2,62,-1
 -6.9384765625 0 l 2,63,64
 -56.1552734375 0 -56.1552734375 0 -80.466796875 37.21484375 c 128,-1,65
 -104.778320312 74.4287109375 -104.778320312 74.4287109375 -104.778320312 128.313476562 c 2,66,-1
 -104.778320312 147.12890625 l 2,67,68
 -104.920898438 196.388671875 -104.920898438 196.388671875 -79.5087890625 230.194335938 c 128,-1,69
 -54.09765625 263.999023438 -54.09765625 263.999023438 -6.9384765625 263.999023438 c 2,70,-1
 52.54296875 263.999023438 l 2,71,72
 370.8828125 264 370.8828125 264 843.986328125 506.947265625 c 1,0,1
EndSplineSet
EndChar

StartChar: uniFEAA
Encoding: 65194 65194 181
GlifName: uniF_E_A_A_
Width: 1101
VWidth: 2992
GlyphClass: 2
Flags: W
AnchorPoint: "Anchor-7" 437.24 -199.316 basechar 0
AnchorPoint: "Anchor-10" 562.848 1285.53 basechar 0
LayerCount: 2
Fore
SplineSet
387.543945312 0.8193359375 m 0,0,1
 250.248046875 1.0048828125 250.248046875 1.0048828125 94.7099609375 30.2294921875 c 2,2,-1
 62.0966796875 36.357421875 l 1,3,-1
 62.0966796875 69.5419921875 l 1,4,-1
 62.0966796875 254.252929688 l 1,5,-1
 62.0966796875 303.481445312 l 1,6,-1
 110.283203125 293.40625 l 2,7,8
 246.127929688 265.001953125 246.127929688 265.001953125 392.990234375 265.068359375 c 0,9,10
 455.3671875 265.0546875 455.3671875 265.0546875 503.736328125 270.748046875 c 128,-1,11
 552.10546875 276.44140625 552.10546875 276.44140625 582.640625 285.963867188 c 128,-1,12
 613.174804688 295.485351562 613.174804688 295.485351562 632.794921875 309.116210938 c 128,-1,13
 652.415039062 322.747070312 652.415039062 322.747070312 660.247070312 337.34375 c 128,-1,14
 668.078125 351.939453125 668.078125 351.939453125 668.088867188 369.047851562 c 0,15,16
 668.056640625 391.543945312 668.056640625 391.543945312 645.204101562 462.002929688 c 128,-1,17
 622.350585938 532.4609375 622.350585938 532.4609375 579.986328125 632.857421875 c 2,18,-1
 453.146484375 933.44921875 l 1,19,-1
 438.076171875 969.163085938 l 1,20,-1
 473.299804688 985.346679688 l 1,21,-1
 637.931640625 1060.98828125 l 1,22,-1
 676.360351562 1078.64453125 l 1,23,-1
 691.8515625 1039.29394531 l 1,24,-1
 889.774414062 536.532226562 l 2,25,26
 944.916015625 396.67578125 944.916015625 396.67578125 997.74609375 330.334960938 c 128,-1,27
 1050.57617188 263.993164062 1050.57617188 263.993164062 1088.87988281 263.993164062 c 2,28,-1
 1108.50488281 263.993164062 l 2,29,30
 1120.80664062 263.997070312 1120.80664062 263.997070312 1130.55175781 259.966796875 c 128,-1,31
 1140.296875 255.935546875 1140.296875 255.935546875 1146.57128906 250.838867188 c 128,-1,32
 1152.84570312 245.7421875 1152.84570312 245.7421875 1157.32714844 235.474609375 c 128,-1,33
 1161.80957031 225.208007812 1161.80957031 225.208007812 1164.04492188 218.520507812 c 128,-1,34
 1166.28027344 211.833984375 1166.28027344 211.833984375 1167.45703125 198.456054688 c 128,-1,35
 1168.6328125 185.078125 1168.6328125 185.078125 1168.78710938 179.926757812 c 128,-1,36
 1168.94238281 174.775390625 1168.94238281 174.775390625 1168.76953125 161.413085938 c 128,-1,37
 1168.59765625 148.05078125 1168.59765625 148.05078125 1168.59765625 147.174804688 c 2,38,-1
 1168.59765625 128.559570312 l 2,39,40
 1169.03515625 92.3701171875 1169.03515625 92.3701171875 1165.33007812 71.5791015625 c 0,41,42
 1161.57714844 46.06640625 1161.57714844 46.06640625 1154.94726562 31.8896484375 c 2,43,-1
 1154.50097656 30.935546875 l 1,44,-1
 1154.00488281 30.005859375 l 2,45,46
 1137.99511719 0 1137.99511719 0 1108.51757812 0 c 2,47,-1
 1088.53222656 0 l 2,48,49
 924.666992188 0 924.666992188 0 821.734375 136.719726562 c 1,50,51
 674.810546875 0.98828125 674.810546875 0.98828125 387.543945312 0.8193359375 c 0,0,1
EndSplineSet
EndChar

StartChar: uniFEAE
Encoding: 65198 65198 185
GlifName: uniF_E_A_E_
Width: 910
VWidth: 2184
GlyphClass: 2
Flags: W
AnchorPoint: "Anchor-7" 322.969 -627.998 basechar 0
AnchorPoint: "Anchor-10" 507.256 966.2 basechar 0
LayerCount: 2
Fore
SplineSet
682.512695312 582.87109375 m 1,0,-1
 739.319335938 389.817382812 l 2,1,2
 758.821289062 322.931640625 758.821289062 322.931640625 795.118164062 293.465820312 c 128,-1,3
 831.416015625 263.999023438 831.416015625 263.999023438 891.31640625 263.999023438 c 2,4,-1
 918.572265625 263.999023438 l 2,5,6
 929.327148438 264 929.327148438 264 938.137695312 261.509765625 c 128,-1,7
 946.948242188 259.01953125 946.948242188 259.01953125 953.001953125 253.2265625 c 128,-1,8
 959.055664062 247.432617188 959.055664062 247.432617188 963.697265625 242.33984375 c 128,-1,9
 968.338867188 237.248046875 968.338867188 237.248046875 971.016601562 227.479492188 c 128,-1,10
 973.6953125 217.7109375 973.6953125 217.7109375 975.4765625 212.139648438 c 128,-1,11
 977.256835938 206.569335938 977.256835938 206.569335938 977.868164062 194.94921875 c 128,-1,12
 978.479492188 183.330078125 978.479492188 183.330078125 978.70703125 179.404296875 c 128,-1,13
 978.934570312 175.477539062 978.934570312 175.477539062 978.786132812 164.130859375 c 128,-1,14
 978.638671875 152.784179688 978.638671875 152.784179688 978.638671875 152.322265625 c 2,15,-1
 978.638671875 128.291015625 l 2,16,17
 978.645507812 126.540039062 978.645507812 126.540039062 979.096679688 109.66796875 c 128,-1,18
 979.546875 92.7958984375 979.546875 92.7958984375 979.099609375 85.5341796875 c 128,-1,19
 978.651367188 78.271484375 978.651367188 78.271484375 977.301757812 62.2568359375 c 128,-1,20
 975.951171875 46.2412109375 975.951171875 46.2412109375 971.83203125 37.865234375 c 128,-1,21
 967.713867188 29.48828125 967.713867188 29.48828125 961.380859375 19.283203125 c 128,-1,22
 955.047851562 9.0771484375 955.047851562 9.0771484375 944.077148438 4.5380859375 c 128,-1,23
 933.10546875 -0 933.10546875 -0 918.57421875 0 c 2,24,-1
 901.80078125 0 l 2,25,26
 854.478515625 0 854.478515625 0 816.622070312 5.728515625 c 128,-1,27
 778.766601562 11.45703125 778.766601562 11.45703125 749.576171875 23.646484375 c 1,28,29
 701.536132812 -209.879882812 701.536132812 -209.879882812 520.137695312 -343.444335938 c 128,-1,30
 338.73828125 -477.008789062 338.73828125 -477.008789062 33.7294921875 -509.923828125 c 2,31,-1
 -0.9169921875 -513.662109375 l 1,32,-1
 -9.3681640625 -479.85546875 l 1,33,-1
 -51.9365234375 -309.580078125 l 1,34,-1
 -63.1572265625 -264.6953125 l 1,35,-1
 -17.1220703125 -260.078125 l 2,36,37
 255.872070312 -232.69921875 255.872070312 -232.69921875 384.734375 -120.448242188 c 128,-1,38
 513.596679688 -8.197265625 513.596679688 -8.197265625 513.25 193.276367188 c 0,39,40
 513.014648438 334.081054688 513.014648438 334.081054688 437.763671875 495.061523438 c 2,41,-1
 419.032226562 535.1328125 l 1,42,-1
 460.780273438 549.751953125 l 1,43,-1
 630.919921875 609.331054688 l 1,44,-1
 670.634765625 623.23828125 l 1,45,-1
 682.512695312 582.87109375 l 1,0,-1
EndSplineSet
PairPos2: "'kern' Horizontal Kerning lookup 15-2" uniFBFE dx=60 dy=0 dh=60 dv=0 dx=0 dy=0 dh=0 dv=0
PairPos2: "'kern' Horizontal Kerning lookup 15-1" uniFEE7 dx=-178 dy=0 dh=-178 dv=0 dx=0 dy=0 dh=0 dv=0
PairPos2: "'kern' Horizontal Kerning lookup 15-2" uniFB90 dx=-226 dy=0 dh=-226 dv=0 dx=0 dy=0 dh=0 dv=0
PairPos2: "'kern' Horizontal Kerning lookup 15-2" uniFB8E dx=-226 dy=0 dh=-226 dv=0 dx=0 dy=0 dh=0 dv=0
PairPos2: "'kern' Horizontal Kerning lookup 15-2" uni06A9 dx=-226 dy=0 dh=-226 dv=0 dx=0 dy=0 dh=0 dv=0
PairPos2: "'kern' Horizontal Kerning lookup 15-2" uni064A dx=-60 dy=0 dh=-60 dv=0 dx=0 dy=0 dh=0 dv=0
PairPos2: "'kern' Horizontal Kerning lookup 15-2" afii57414 dx=-60 dy=0 dh=-60 dv=0 dx=0 dy=0 dh=0 dv=0
PairPos2: "'kern' Horizontal Kerning lookup 15-2" uni0649 dx=-60 dy=0 dh=-60 dv=0 dx=0 dy=0 dh=0 dv=0
PairPos2: "'kern' Horizontal Kerning lookup 15-2" uniFEEB dx=-178 dy=0 dh=-178 dv=0 dx=0 dy=0 dh=0 dv=0
PairPos2: "'kern' Horizontal Kerning lookup 15-2" uni0647 dx=-178 dy=0 dh=-178 dv=0 dx=0 dy=0 dh=0 dv=0
PairPos2: "'kern' Horizontal Kerning lookup 15-2" uni0646 dx=-60 dy=0 dh=-60 dv=0 dx=0 dy=0 dh=0 dv=0
PairPos2: "'kern' Horizontal Kerning lookup 15-2" uniFEE3 dx=-178 dy=0 dh=-178 dv=0 dx=0 dy=0 dh=0 dv=0
PairPos2: "'kern' Horizontal Kerning lookup 15-2" uni0645 dx=-178 dy=0 dh=-178 dv=0 dx=0 dy=0 dh=0 dv=0
PairPos2: "'kern' Horizontal Kerning lookup 15-2" uniFEFB dx=-143 dy=0 dh=-143 dv=0 dx=0 dy=0 dh=0 dv=0
PairPos2: "'kern' Horizontal Kerning lookup 15-2" uniFEDF dx=-143 dy=0 dh=-143 dv=0 dx=0 dy=0 dh=0 dv=0
PairPos2: "'kern' Horizontal Kerning lookup 15-2" uni0644 dx=-60 dy=0 dh=-60 dv=0 dx=0 dy=0 dh=0 dv=0
PairPos2: "'kern' Horizontal Kerning lookup 15-2" uniFEDB dx=-226 dy=0 dh=-226 dv=0 dx=0 dy=0 dh=0 dv=0
PairPos2: "'kern' Horizontal Kerning lookup 15-2" uni0643 dx=-143 dy=0 dh=-143 dv=0 dx=0 dy=0 dh=0 dv=0
PairPos2: "'kern' Horizontal Kerning lookup 15-2" uniFED7 dx=-178 dy=0 dh=-178 dv=0 dx=0 dy=0 dh=0 dv=0
PairPos2: "'kern' Horizontal Kerning lookup 15-2" uni0642 dx=-60 dy=0 dh=-60 dv=0 dx=0 dy=0 dh=0 dv=0
PairPos2: "'kern' Horizontal Kerning lookup 15-2" uniFED3 dx=-178 dy=0 dh=-178 dv=0 dx=0 dy=0 dh=0 dv=0
PairPos2: "'kern' Horizontal Kerning lookup 15-2" uni0641 dx=-178 dy=0 dh=-178 dv=0 dx=0 dy=0 dh=0 dv=0
PairPos2: "'kern' Horizontal Kerning lookup 15-2" uniFECF dx=-178 dy=0 dh=-178 dv=0 dx=0 dy=0 dh=0 dv=0
PairPos2: "'kern' Horizontal Kerning lookup 15-2" uniFECB dx=-178 dy=0 dh=-178 dv=0 dx=0 dy=0 dh=0 dv=0
PairPos2: "'kern' Horizontal Kerning lookup 15-2" uniFEC7 dx=-178 dy=0 dh=-178 dv=0 dx=0 dy=0 dh=0 dv=0
PairPos2: "'kern' Horizontal Kerning lookup 15-2" uni0638 dx=-178 dy=0 dh=-178 dv=0 dx=0 dy=0 dh=0 dv=0
PairPos2: "'kern' Horizontal Kerning lookup 15-2" uniFEC3 dx=-178 dy=0 dh=-178 dv=0 dx=0 dy=0 dh=0 dv=0
PairPos2: "'kern' Horizontal Kerning lookup 15-2" uni0637 dx=-178 dy=0 dh=-178 dv=0 dx=0 dy=0 dh=0 dv=0
PairPos2: "'kern' Horizontal Kerning lookup 15-2" uniFEBF dx=-178 dy=0 dh=-178 dv=0 dx=0 dy=0 dh=0 dv=0
PairPos2: "'kern' Horizontal Kerning lookup 15-2" uni0636 dx=-178 dy=0 dh=-178 dv=0 dx=0 dy=0 dh=0 dv=0
PairPos2: "'kern' Horizontal Kerning lookup 15-2" uniFEBB dx=-178 dy=0 dh=-178 dv=0 dx=0 dy=0 dh=0 dv=0
PairPos2: "'kern' Horizontal Kerning lookup 15-2" uni0635 dx=-178 dy=0 dh=-178 dv=0 dx=0 dy=0 dh=0 dv=0
PairPos2: "'kern' Horizontal Kerning lookup 15-2" uniFEB7 dx=-178 dy=0 dh=-178 dv=0 dx=0 dy=0 dh=0 dv=0
PairPos2: "'kern' Horizontal Kerning lookup 15-2" uni0634 dx=-178 dy=0 dh=-178 dv=0 dx=0 dy=0 dh=0 dv=0
PairPos2: "'kern' Horizontal Kerning lookup 15-2" uniFEB3 dx=-178 dy=0 dh=-178 dv=0 dx=0 dy=0 dh=0 dv=0
PairPos2: "'kern' Horizontal Kerning lookup 15-2" uni0633 dx=-178 dy=0 dh=-178 dv=0 dx=0 dy=0 dh=0 dv=0
PairPos2: "'kern' Horizontal Kerning lookup 15-2" uni0630 dx=-178 dy=0 dh=-178 dv=0 dx=0 dy=0 dh=0 dv=0
PairPos2: "'kern' Horizontal Kerning lookup 15-2" uni062F dx=-178 dy=0 dh=-178 dv=0 dx=0 dy=0 dh=0 dv=0
PairPos2: "'kern' Horizontal Kerning lookup 15-2" uniFEA7 dx=-178 dy=0 dh=-178 dv=0 dx=0 dy=0 dh=0 dv=0
PairPos2: "'kern' Horizontal Kerning lookup 15-2" uniFEA3 dx=-178 dy=0 dh=-178 dv=0 dx=0 dy=0 dh=0 dv=0
PairPos2: "'kern' Horizontal Kerning lookup 15-2" uniFE9F dx=-178 dy=0 dh=-178 dv=0 dx=0 dy=0 dh=0 dv=0
PairPos2: "'kern' Horizontal Kerning lookup 15-2" uniFE9B dx=-178 dy=0 dh=-178 dv=0 dx=0 dy=0 dh=0 dv=0
PairPos2: "'kern' Horizontal Kerning lookup 15-2" uni062B dx=-178 dy=0 dh=-178 dv=0 dx=0 dy=0 dh=0 dv=0
PairPos2: "'kern' Horizontal Kerning lookup 15-2" uniFE97 dx=-178 dy=0 dh=-178 dv=0 dx=0 dy=0 dh=0 dv=0
PairPos2: "'kern' Horizontal Kerning lookup 15-2" uni062A dx=-178 dy=0 dh=-178 dv=0 dx=0 dy=0 dh=0 dv=0
PairPos2: "'kern' Horizontal Kerning lookup 15-2" uni0629 dx=-178 dy=0 dh=-178 dv=0 dx=0 dy=0 dh=0 dv=0
PairPos2: "'kern' Horizontal Kerning lookup 15-2" uni0628 dx=-178 dy=0 dh=-178 dv=0 dx=0 dy=0 dh=0 dv=0
PairPos2: "'kern' Horizontal Kerning lookup 15-2" uni0627 dx=-143 dy=0 dh=-143 dv=0 dx=0 dy=0 dh=0 dv=0
PairPos2: "'kern' Horizontal Kerning lookup 15-2" uni0623 dx=-143 dy=0 dh=-143 dv=0 dx=0 dy=0 dh=0 dv=0
PairPos2: "'kern' Horizontal Kerning lookup 15-2" uni0622 dx=-143 dy=0 dh=-143 dv=0 dx=0 dy=0 dh=0 dv=0
PairPos2: "'kern' Horizontal Kerning lookup 15-2" uni0621 dx=-178 dy=0 dh=-178 dv=0 dx=0 dy=0 dh=0 dv=0
PairPos2: "'kern' Horizontal Kerning lookup 15-2" uniFB94 dx=-226 dy=0 dh=-226 dv=0 dx=0 dy=0 dh=0 dv=0
PairPos2: "'kern' Horizontal Kerning lookup 15-2" uniFB92 dx=-226 dy=0 dh=-226 dv=0 dx=0 dy=0 dh=0 dv=0
PairPos2: "'kern' Horizontal Kerning lookup 15-2" uni06AF dx=-226 dy=0 dh=-226 dv=0 dx=0 dy=0 dh=0 dv=0
PairPos2: "'kern' Horizontal Kerning lookup 15-2" afii57506 dx=-178 dy=0 dh=-178 dv=0 dx=0 dy=0 dh=0 dv=0
PairPos2: "'kern' Horizontal Kerning lookup 15-2" afii57440 dx=-178 dy=0 dh=-178 dv=0 dx=0 dy=0 dh=0 dv=0
PairPos2: "'kern' Horizontal Kerning lookup 15-2" uniFE8B dx=-178 dy=0 dh=-178 dv=0 dx=0 dy=0 dh=0 dv=0
EndChar

StartChar: uniFEB2
Encoding: 65202 65202 189
GlifName: uniF_E_B_2
Width: 2589
VWidth: 2992
GlyphClass: 2
Flags: W
AnchorPoint: "Anchor-7" 681.902 -716.086 basechar 0
AnchorPoint: "Anchor-10" 1810.53 1130.1 basechar 0
LayerCount: 2
Fore
SplineSet
1371.05566406 399.318359375 m 2,0,1
 1393.93261719 328.646484375 1393.93261719 328.646484375 1437.76757812 296.34375 c 128,-1,2
 1481.60351562 264.041992188 1481.60351562 264.041992188 1554.08691406 264.073242188 c 0,3,4
 1608.1640625 264.051757812 1608.1640625 264.051757812 1640.38378906 278.580078125 c 128,-1,5
 1672.60351562 293.108398438 1672.60351562 293.108398438 1687.29003906 323.963867188 c 128,-1,6
 1701.9765625 354.819335938 1701.9765625 354.819335938 1701.96777344 406.3828125 c 0,7,8
 1701.98339844 444.377929688 1701.98339844 444.377929688 1701.51855469 470.83203125 c 128,-1,9
 1701.05371094 497.28515625 1701.05371094 497.28515625 1700.20117188 509.973632812 c 2,10,-1
 1694.70996094 591.733398438 l 1,11,-1
 1692.16015625 629.704101562 l 1,12,-1
 1729.95605469 634.141601562 l 1,13,-1
 1894.76269531 653.489257812 l 1,14,-1
 1936.42089844 658.379882812 l 1,15,-1
 1939.33007812 616.536132812 l 1,16,-1
 1955.40625 385.306640625 l 2,17,18
 1959.8125 319.18359375 1959.8125 319.18359375 1986.99023438 291.948242188 c 128,-1,19
 2014.16796875 264.712890625 2014.16796875 264.712890625 2073.21289062 264.520507812 c 0,20,21
 2095.22363281 264.591796875 2095.22363281 264.591796875 2111.9375 269.489257812 c 128,-1,22
 2128.65136719 274.38671875 2128.65136719 274.38671875 2142.34570312 285.828125 c 128,-1,23
 2156.0390625 297.268554688 2156.0390625 297.268554688 2164.81152344 315.869140625 c 128,-1,24
 2173.58398438 334.470703125 2173.58398438 334.470703125 2178.40917969 362.18359375 c 128,-1,25
 2183.234375 389.896484375 2183.234375 389.896484375 2183.51269531 427.103515625 c 0,26,27
 2183.67089844 448.15625 2183.67089844 448.15625 2183.17675781 468.911132812 c 128,-1,28
 2182.68359375 489.666015625 2182.68359375 489.666015625 2181.54101562 510.091796875 c 128,-1,29
 2180.3984375 530.517578125 2180.3984375 530.517578125 2178.60644531 550.647460938 c 2,30,-1
 2173.18847656 611.524414062 l 1,31,-1
 2169.74316406 650.234375 l 1,32,-1
 2208.33789062 654.793945312 l 1,33,-1
 2373.16601562 674.266601562 l 1,34,-1
 2414.23339844 679.118164062 l 1,35,-1
 2417.71679688 637.913085938 l 1,36,-1
 2433.70410156 448.837890625 l 2,37,38
 2439.5703125 381.010742188 2439.5703125 381.010742188 2458.20898438 339.758789062 c 128,-1,39
 2476.84863281 298.5078125 2476.84863281 298.5078125 2506.19335938 281.258789062 c 128,-1,40
 2535.53808594 264.009765625 2535.53808594 264.009765625 2579.3671875 264 c 2,41,-1
 2597.42871094 263.99609375 l 2,42,43
 2609.73144531 263.998046875 2609.73144531 263.998046875 2619.4765625 259.965820312 c 128,-1,44
 2629.22265625 255.932617188 2629.22265625 255.932617188 2635.49804688 250.833984375 c 128,-1,45
 2641.77246094 245.735351562 2641.77246094 245.735351562 2646.25488281 235.463867188 c 128,-1,46
 2650.73730469 225.192382812 2650.73730469 225.192382812 2652.97363281 218.504882812 c 128,-1,47
 2655.20898438 211.81640625 2655.20898438 211.81640625 2656.38574219 198.431640625 c 128,-1,48
 2657.56152344 185.046875 2657.56152344 185.046875 2657.71582031 179.89453125 c 128,-1,49
 2657.87109375 174.741210938 2657.87109375 174.741210938 2657.69824219 161.368164062 c 128,-1,50
 2657.52636719 147.995117188 2657.52636719 147.995117188 2657.52636719 147.1171875 c 2,51,-1
 2657.52636719 127.958984375 l 2,52,53
 2657.45996094 124.104492188 2657.45996094 124.104492188 2657.69824219 109.213867188 c 128,-1,54
 2657.9375 94.3232421875 2657.9375 94.3232421875 2657.50097656 85.490234375 c 128,-1,55
 2657.06542969 76.6572265625 2657.06542969 76.6572265625 2655.63769531 61.9091796875 c 128,-1,56
 2654.20996094 47.162109375 2654.20996094 47.162109375 2650.1640625 37.91796875 c 128,-1,57
 2646.11914062 28.6748046875 2646.11914062 28.6748046875 2639.82910156 19.0166015625 c 128,-1,58
 2633.53808594 9.3583984375 2633.53808594 9.3583984375 2622.68847656 4.6513671875 c 128,-1,59
 2611.83789062 -0.056640625 2611.83789062 -0.056640625 2597.4453125 -0.056640625 c 2,60,-1
 2581.10839844 -0.056640625 l 2,61,62
 2405.04003906 -0.0068359375 2405.04003906 -0.0068359375 2328.17773438 103.912109375 c 1,63,64
 2241.62695312 -0 2241.62695312 -0 2082.5 0 c 0,65,66
 1996.88867188 0 1996.88867188 0 1931.40234375 27.56640625 c 128,-1,67
 1865.91503906 55.1328125 1865.91503906 55.1328125 1825.76660156 110.424804688 c 1,68,69
 1720.67871094 0.994140625 1720.67871094 0.994140625 1552.80175781 0.9189453125 c 0,70,71
 1511.34570312 0.9482421875 1511.34570312 0.9482421875 1474.23144531 7.755859375 c 128,-1,72
 1437.1171875 14.564453125 1437.1171875 14.564453125 1405.70703125 28.0751953125 c 1,73,74
 1392.70410156 -82.4892578125 1392.70410156 -82.4892578125 1339.97460938 -194.200195312 c 0,75,76
 1183.13085938 -520.015625 1183.13085938 -520.015625 707.33203125 -519.724609375 c 0,77,78
 269.823242188 -519.923828125 269.823242188 -519.923828125 126.49609375 -232.51953125 c 0,79,80
 62.041015625 -102.09765625 62.041015625 -102.09765625 61.7529296875 81.0595703125 c 0,81,82
 62.009765625 293.97265625 62.009765625 293.97265625 166.068359375 545.420898438 c 2,83,-1
 181.341796875 582.328125 l 1,84,-1
 218.271484375 567.106445312 l 1,85,-1
 376.791992188 501.768554688 l 1,86,-1
 413.215820312 486.755859375 l 1,87,-1
 398.7578125 450.108398438 l 2,88,89
 318.01171875 245.42578125 318.01171875 245.42578125 318.268554688 82.8779296875 c 0,90,91
 318.145507812 -94.3017578125 318.145507812 -94.3017578125 413.4609375 -178.705078125 c 128,-1,92
 508.776367188 -263.107421875 508.776367188 -263.107421875 714.36328125 -263.203125 c 0,93,94
 826.903320312 -263.155273438 826.903320312 -263.155273438 908.767578125 -238.606445312 c 128,-1,95
 990.631835938 -214.057617188 990.631835938 -214.057617188 1044.3671875 -163.463867188 c 128,-1,96
 1098.10351562 -112.870117188 1098.10351562 -112.870117188 1124.1484375 -36.734375 c 128,-1,97
 1150.19335938 39.4013671875 1150.19335938 39.4013671875 1150.55664062 143.853515625 c 0,98,99
 1150.69726562 201.690429688 1150.69726562 201.690429688 1141.28613281 259.66015625 c 128,-1,100
 1131.875 317.62890625 1131.875 317.62890625 1112.68945312 376.334960938 c 128,-1,101
 1093.50390625 435.041015625 1093.50390625 435.041015625 1064.52832031 494.165039062 c 2,102,-1
 1044.68359375 534.657226562 l 1,103,-1
 1087.25292969 549.530273438 l 1,104,-1
 1259.89453125 609.84765625 l 1,105,-1
 1298.53808594 623.348632812 l 1,106,-1
 1311.14355469 584.404296875 l 1,107,-1
 1371.05566406 399.318359375 l 2,0,1
EndSplineSet
EndChar

StartChar: uniFEB3
Encoding: 65203 65203 190
GlifName: uniF_E_B_3
Width: 1599
VWidth: 2992
GlyphClass: 2
Flags: W
AnchorPoint: "Anchor-10" 859.961 1123.67 basechar 0
AnchorPoint: "Anchor-7" 759.534 -196.974 basechar 0
LayerCount: 2
Fore
SplineSet
797.931640625 378.826171875 m 0,0,1
 802.995117188 403.966796875 802.995117188 403.966796875 802.953125 441.453125 c 0,2,3
 802.967773438 455.834960938 802.967773438 455.834960938 802.529296875 470.456054688 c 128,-1,4
 802.08984375 485.078125 802.08984375 485.078125 801.193359375 500.013671875 c 128,-1,5
 800.295898438 514.94921875 800.295898438 514.94921875 798.938476562 530.208984375 c 2,6,-1
 793.538085938 590.924804688 l 1,7,-1
 790.092773438 629.663085938 l 1,8,-1
 828.71875 634.196289062 l 1,9,-1
 993.444335938 653.529296875 l 1,10,-1
 1035.1015625 658.41796875 l 1,11,-1
 1038.00976562 616.576171875 l 1,12,-1
 1054.08300781 385.388671875 l 2,13,14
 1055.40332031 366.1484375 1055.40332031 366.1484375 1058.48730469 350.588867188 c 128,-1,15
 1061.5703125 335.028320312 1061.5703125 335.028320312 1066.50976562 322.44921875 c 128,-1,16
 1071.44824219 309.869140625 1071.44824219 309.869140625 1078.57714844 300.413085938 c 128,-1,17
 1085.70605469 290.956054688 1085.70605469 290.956054688 1094.77246094 284.112304688 c 128,-1,18
 1103.83886719 277.268554688 1103.83886719 277.268554688 1115.54589844 272.9765625 c 128,-1,19
 1127.25195312 268.684570312 1127.25195312 268.684570312 1140.97851562 266.637695312 c 128,-1,20
 1154.70410156 264.590820312 1154.70410156 264.590820312 1171.49804688 264.538085938 c 0,21,22
 1226.22558594 264.708984375 1226.22558594 264.708984375 1253.109375 303.540039062 c 128,-1,23
 1279.9921875 342.372070312 1279.9921875 342.372070312 1279.98632812 439.403320312 c 128,-1,24
 1279.99902344 536.338867188 1279.99902344 536.338867188 1237.5546875 683.202148438 c 2,25,-1
 1226.2265625 722.401367188 l 1,26,-1
 1265.64355469 732.948242188 l 1,27,-1
 1436.59472656 778.688476562 l 1,28,-1
 1473.52246094 788.569335938 l 1,29,-1
 1485.06640625 752.127929688 l 2,30,31
 1537.04492188 588.04296875 1537.04492188 588.04296875 1536.01855469 445.775390625 c 0,32,33
 1536.00878906 444.280273438 1536.00878906 444.280273438 1536.00488281 442.9921875 c 128,-1,34
 1536 441.704101562 1536 441.704101562 1536 440.412109375 c 0,35,36
 1534.91992188 194.799804688 1534.91992188 194.799804688 1400.71386719 77.166015625 c 0,37,38
 1314.08496094 1.0009765625 1314.08496094 1.0009765625 1174.72363281 0.9931640625 c 0,39,40
 1119.79492188 0.9951171875 1119.79492188 0.9951171875 1073.38085938 12.8642578125 c 128,-1,41
 1026.96679688 24.732421875 1026.96679688 24.732421875 988.952148438 49.41015625 c 128,-1,42
 950.9375 74.0869140625 950.9375 74.0869140625 924.31640625 110.879882812 c 1,43,44
 816.560546875 0 816.560546875 0 646.276367188 0 c 0,45,46
 452.627929688 0.9033203125 452.627929688 0.9033203125 368.453125 108.85546875 c 1,47,48
 266.340820312 0 266.340820312 0 48.849609375 0 c 2,49,-1
 -6.9384765625 0 l 2,50,51
 -56.1552734375 0 -56.1552734375 0 -80.466796875 37.21484375 c 128,-1,52
 -104.778320312 74.4287109375 -104.778320312 74.4287109375 -104.778320312 128.313476562 c 2,53,-1
 -104.778320312 147.12890625 l 2,54,55
 -104.920898438 196.388671875 -104.920898438 196.388671875 -79.5087890625 230.194335938 c 128,-1,56
 -54.09765625 263.999023438 -54.09765625 263.999023438 -6.9384765625 263.999023438 c 2,57,-1
 51.00390625 263.999023438 l 2,58,59
 143.6875 263.999023438 143.6875 263.999023438 189.640625 292.658203125 c 128,-1,60
 235.59375 321.31640625 235.59375 321.31640625 247.770507812 379.208984375 c 0,61,62
 252.971679688 404.013671875 252.971679688 404.013671875 252.715820312 441.466796875 c 0,63,64
 252.806640625 455.127929688 252.806640625 455.127929688 252.397460938 469.39453125 c 128,-1,65
 251.98828125 483.662109375 251.98828125 483.662109375 251.068359375 498.81640625 c 128,-1,66
 250.147460938 513.970703125 250.147460938 513.970703125 248.702148438 530.223632812 c 2,67,-1
 243.301757812 590.939453125 l 1,68,-1
 239.856445312 629.677734375 l 1,69,-1
 278.482421875 634.2109375 l 1,70,-1
 443.208007812 653.543945312 l 1,71,-1
 484.865234375 658.432617188 l 1,72,-1
 487.7734375 616.590820312 l 1,73,-1
 503.844726562 385.427734375 l 2,74,75
 508.358398438 320.67578125 508.358398438 320.67578125 541.224609375 292.358398438 c 128,-1,76
 574.091796875 264.041992188 574.091796875 264.041992188 648.065429688 264.073242188 c 0,77,78
 716.172851562 264.041992188 716.172851562 264.041992188 751.045898438 291.15625 c 128,-1,79
 785.919921875 318.270507812 785.919921875 318.270507812 797.931640625 378.826171875 c 0,0,1
EndSplineSet
EndChar

StartChar: uniFEB4
Encoding: 65204 65204 191
GlifName: uniF_E_B_4
Width: 1688
VWidth: 2985
GlyphClass: 2
Flags: W
AnchorPoint: "Anchor-7" 759.534 -196.974 basechar 0
AnchorPoint: "Anchor-10" 873.961 1123.67 basechar 0
LayerCount: 2
Fore
SplineSet
1054.08105469 385.40625 m 2,0,1
 1057.18164062 340.809570312 1057.18164062 340.809570312 1070.51269531 314.461914062 c 128,-1,2
 1083.84375 288.11328125 1083.84375 288.11328125 1108.56445312 276.403320312 c 128,-1,3
 1133.28515625 264.693359375 1133.28515625 264.693359375 1173.36816406 264.579101562 c 0,4,5
 1229.85449219 264.73828125 1229.85449219 264.73828125 1256.2578125 300.056640625 c 128,-1,6
 1282.66015625 335.375976562 1282.66015625 335.375976562 1282.38769531 424.059570312 c 0,7,8
 1282.01074219 500.772460938 1282.01074219 500.772460938 1277.56640625 550.704101562 c 2,9,-1
 1272.1484375 611.581054688 l 1,10,-1
 1268.703125 650.291015625 l 1,11,-1
 1307.29785156 654.850585938 l 1,12,-1
 1472.12597656 674.323242188 l 1,13,-1
 1513.19335938 679.174804688 l 1,14,-1
 1516.67675781 637.969726562 l 1,15,-1
 1532.6640625 448.897460938 l 2,16,17
 1537.09960938 397.70703125 1537.09960938 397.70703125 1548.37402344 361.9375 c 128,-1,18
 1559.6484375 326.168945312 1559.6484375 326.168945312 1578.29785156 304.671875 c 128,-1,19
 1596.94824219 283.173828125 1596.94824219 283.173828125 1621.28222656 273.583984375 c 128,-1,20
 1645.61621094 263.994140625 1645.61621094 263.994140625 1678.31445312 263.998046875 c 2,21,-1
 1696.39648438 264 l 2,22,23
 1708.69433594 264 1708.69433594 264 1718.4375 259.965820312 c 128,-1,24
 1728.18164062 255.931640625 1728.18164062 255.931640625 1734.45507812 250.83984375 c 128,-1,25
 1740.72851562 245.748046875 1740.72851562 245.748046875 1745.2109375 235.473632812 c 128,-1,26
 1749.69238281 225.19921875 1749.69238281 225.19921875 1751.92871094 218.525390625 c 128,-1,27
 1754.16503906 211.8515625 1754.16503906 211.8515625 1755.34179688 198.459960938 c 128,-1,28
 1756.51855469 185.068359375 1756.51855469 185.068359375 1756.67382812 179.935546875 c 128,-1,29
 1756.82910156 174.801757812 1756.82910156 174.801757812 1756.65820312 161.416015625 c 128,-1,30
 1756.48632812 148.030273438 1756.48632812 148.030273438 1756.48632812 147.173828125 c 2,31,-1
 1756.48632812 128.250976562 l 2,32,33
 1756.14453125 66.1513671875 1756.14453125 66.1513671875 1753.24414062 52.1552734375 c 0,34,35
 1740.76660156 1.0419921875 1740.76660156 1.0419921875 1696.40527344 -0 c 2,36,-1
 1680.08007812 0 l 2,37,38
 1503.16992188 0 1503.16992188 0 1426.92285156 103.799804688 c 1,39,40
 1382.7734375 51.271484375 1382.7734375 51.271484375 1320.26953125 25.6357421875 c 128,-1,41
 1257.765625 0 1257.765625 0 1179 0 c 0,42,43
 1096.97363281 0 1096.97363281 0 1032.26855469 28.373046875 c 128,-1,44
 967.563476562 56.7451171875 967.563476562 56.7451171875 925.754882812 112.374023438 c 1,45,46
 817.736328125 0 817.736328125 0 646.276367188 0 c 0,47,48
 452.627929688 0.9033203125 452.627929688 0.9033203125 368.453125 108.85546875 c 1,49,50
 266.340820312 0 266.340820312 0 48.849609375 0 c 2,51,-1
 -6.9384765625 0 l 2,52,53
 -56.1552734375 0 -56.1552734375 0 -80.466796875 37.21484375 c 128,-1,54
 -104.778320312 74.4287109375 -104.778320312 74.4287109375 -104.778320312 128.313476562 c 2,55,-1
 -104.778320312 147.12890625 l 2,56,57
 -104.920898438 196.388671875 -104.920898438 196.388671875 -79.5087890625 230.194335938 c 128,-1,58
 -54.09765625 263.999023438 -54.09765625 263.999023438 -6.9384765625 263.999023438 c 2,59,-1
 51.00390625 263.999023438 l 2,60,61
 224.538085938 264 224.538085938 264 248.78125 379.258789062 c 0,62,63
 252.974609375 399.067382812 252.974609375 399.067382812 252.715820312 441.481445312 c 0,64,65
 252.986328125 482.059570312 252.986328125 482.059570312 248.702148438 530.223632812 c 2,66,-1
 243.301757812 590.939453125 l 1,67,-1
 239.856445312 629.677734375 l 1,68,-1
 278.482421875 634.2109375 l 1,69,-1
 443.208007812 653.543945312 l 1,70,-1
 484.865234375 658.432617188 l 1,71,-1
 487.7734375 616.590820312 l 1,72,-1
 503.844726562 385.427734375 l 2,73,74
 508.358398438 320.67578125 508.358398438 320.67578125 541.224609375 292.358398438 c 128,-1,75
 574.091796875 264.041992188 574.091796875 264.041992188 648.065429688 264.073242188 c 0,76,77
 682.840820312 264.057617188 682.840820312 264.057617188 708.392578125 270.66796875 c 128,-1,78
 733.944335938 277.279296875 733.944335938 277.279296875 752.188476562 291.509765625 c 128,-1,79
 770.431640625 305.739257812 770.431640625 305.739257812 781.666015625 327.079101562 c 128,-1,80
 792.899414062 348.418945312 792.899414062 348.418945312 798.932617188 378.83203125 c 0,81,82
 802.99609375 398.974609375 802.99609375 398.974609375 802.953125 441.456054688 c 0,83,84
 802.998046875 484.563476562 802.998046875 484.563476562 798.938476562 530.208984375 c 2,85,-1
 793.538085938 590.924804688 l 1,86,-1
 790.092773438 629.663085938 l 1,87,-1
 828.71875 634.196289062 l 1,88,-1
 993.444335938 653.529296875 l 1,89,-1
 1035.1015625 658.41796875 l 1,90,-1
 1038.00976562 616.576171875 l 1,91,-1
 1054.08105469 385.40625 l 2,0,1
EndSplineSet
EndChar

StartChar: uniFEBA
Encoding: 65210 65210 197
GlifName: uniF_E_B_A_
Width: 2626
VWidth: 2992
GlyphClass: 2
Flags: W
AnchorPoint: "Anchor-7" 681.902 -716.086 basechar 0
AnchorPoint: "Anchor-10" 2058.53 1253.1 basechar 0
LayerCount: 2
Fore
SplineSet
2534.59667969 463.813476562 m 0,0,1
 2534.94726562 358.966796875 2534.94726562 358.966796875 2486.50976562 270.161132812 c 1,2,3
 2532.58691406 264 2532.58691406 264 2615.73828125 264 c 2,4,-1
 2634.37109375 264 l 2,5,6
 2646.66796875 264 2646.66796875 264 2656.41113281 259.961914062 c 128,-1,7
 2666.15527344 255.923828125 2666.15527344 255.923828125 2672.43066406 250.849609375 c 128,-1,8
 2678.70605469 245.775390625 2678.70605469 245.775390625 2683.19140625 235.477539062 c 128,-1,9
 2687.67578125 225.178710938 2687.67578125 225.178710938 2689.91601562 218.54296875 c 128,-1,10
 2692.15527344 211.908203125 2692.15527344 211.908203125 2693.3359375 198.469726562 c 128,-1,11
 2694.51660156 185.03125 2694.51660156 185.03125 2694.67480469 179.955078125 c 128,-1,12
 2694.83300781 174.87890625 2694.83300781 174.87890625 2694.66308594 161.420898438 c 128,-1,13
 2694.49316406 147.962890625 2694.49316406 147.962890625 2694.49316406 147.174804688 c 2,14,-1
 2694.49316406 128.194335938 l 2,15,16
 2694.4765625 125.2265625 2694.4765625 125.2265625 2694.82421875 109.486328125 c 128,-1,17
 2695.17285156 93.74609375 2695.17285156 93.74609375 2694.74121094 85.5751953125 c 128,-1,18
 2694.30859375 77.404296875 2694.30859375 77.404296875 2692.92089844 62.1123046875 c 128,-1,19
 2691.53320312 46.8203125 2691.53320312 46.8203125 2687.45214844 37.94140625 c 128,-1,20
 2683.37207031 29.0625 2683.37207031 29.0625 2677.0546875 19.16796875 c 128,-1,21
 2670.73730469 9.2744140625 2670.73730469 9.2744140625 2659.81445312 4.63671875 c 128,-1,22
 2648.89257812 0 2648.89257812 0 2634.41210938 0 c 2,23,-1
 2610.2265625 0 l 2,24,25
 2380.21777344 0 2380.21777344 0 2261.24707031 80.60546875 c 1,26,27
 2176.5546875 39.3232421875 2176.5546875 39.3232421875 2055.45703125 19.6611328125 c 128,-1,28
 1934.36035156 0 1934.36035156 0 1773.15136719 0 c 2,29,-1
 1722.34082031 0 l 2,30,31
 1623.60449219 0 1623.60449219 0 1544.87597656 9.4306640625 c 128,-1,32
 1466.1484375 18.8623046875 1466.1484375 18.8623046875 1406.90136719 38.1357421875 c 1,33,34
 1395.11914062 -79.9150390625 1395.11914062 -79.9150390625 1339.90039062 -194.354492188 c 0,35,36
 1183.13085938 -520.015625 1183.13085938 -520.015625 706.486328125 -519.724609375 c 0,37,38
 392.138671875 -519.346679688 392.138671875 -519.346679688 227.5390625 -367.56640625 c 128,-1,39
 62.9404296875 -215.786132812 62.9404296875 -215.786132812 61.7587890625 77.8525390625 c 0,40,41
 60.970703125 291.891601562 60.970703125 291.891601562 166.077148438 545.442382812 c 2,42,-1
 181.364257812 582.319335938 l 1,43,-1
 218.271484375 567.106445312 l 1,44,-1
 376.791992188 501.768554688 l 1,45,-1
 413.157226562 486.780273438 l 1,46,-1
 398.78125 450.16796875 l 2,47,48
 318.01171875 244.458984375 318.01171875 244.458984375 318.26953125 81.83984375 c 0,49,50
 318.604492188 -96.537109375 318.604492188 -96.537109375 415.862304688 -180.756835938 c 128,-1,51
 513.120117188 -264.9765625 513.120117188 -264.9765625 722.5546875 -263.16796875 c 0,52,53
 942.330078125 -261.203125 942.330078125 -261.203125 1046.07910156 -162.84765625 c 128,-1,54
 1149.82910156 -64.4921875 1149.82910156 -64.4921875 1150.55273438 140.235351562 c 0,55,56
 1150.97753906 315.860351562 1150.97753906 315.860351562 1064.45410156 494.317382812 c 2,57,-1
 1044.86425781 534.720703125 l 1,58,-1
 1087.25292969 549.530273438 l 1,59,-1
 1259.89453125 609.84765625 l 1,60,-1
 1298.81738281 623.446289062 l 1,61,-1
 1311.23144531 584.129882812 l 1,62,-1
 1379.13769531 369.063476562 l 2,63,64
 1387.21972656 343.512695312 1387.21972656 343.512695312 1397.03515625 326.744140625 c 128,-1,65
 1406.85058594 309.974609375 1406.85058594 309.974609375 1416.4453125 301.97265625 c 1,66,67
 1589.62011719 587.088867188 1589.62011719 587.088867188 1764.21777344 730.743164062 c 128,-1,68
 1938.81542969 874.396484375 1938.81542969 874.396484375 2119.99023438 871.419921875 c 0,69,70
 2281.71582031 868.763671875 2281.71582031 868.763671875 2389.52050781 779.340820312 c 0,71,72
 2535.04296875 658.768554688 2535.04296875 658.768554688 2534.59667969 463.813476562 c 0,0,1
2121.81738281 604.57421875 m 0,73,74
 2031.13671875 605.138671875 2031.13671875 605.138671875 1923.8203125 520.98828125 c 128,-1,75
 1816.50292969 436.836914062 1816.50292969 436.836914062 1698.91894531 264.477539062 c 1,76,-1
 1768.72167969 264.534179688 l 2,77,78
 1876.9921875 264.626953125 1876.9921875 264.626953125 1962.37207031 274.036132812 c 128,-1,79
 2047.75195312 283.444335938 2047.75195312 283.444335938 2105.44824219 300.123046875 c 128,-1,80
 2163.14355469 316.801757812 2163.14355469 316.801757812 2201.03222656 340.924804688 c 128,-1,81
 2238.92089844 365.047851562 2238.92089844 365.047851562 2255.7421875 393.34375 c 128,-1,82
 2272.56445312 421.638671875 2272.56445312 421.638671875 2272.66113281 455.5078125 c 0,83,84
 2272.9296875 536.065429688 2272.9296875 536.065429688 2212.28613281 577.961914062 c 0,85,86
 2174.38183594 604.110351562 2174.38183594 604.110351562 2121.81738281 604.57421875 c 0,73,74
EndSplineSet
EndChar

